<svg width="168" height="243" viewBox="0 0 168 243" fill="none" xmlns="http://www.w3.org/2000/svg">
<path d="M72.6408 103.75C109.365 70.1317 131.469 54.8504 166.205 54.8504C100.523 -20.9447 29.3675 23.2691 2 54.8504C19.6212 71.1504 58.4191 103.75 72.6408 103.75Z" fill="#CF83B1" stroke="#A56A8D" stroke-linecap="round" stroke-linejoin="round"/>
<path d="M72.3328 104.233C59.6661 101.066 33.1003 92.7325 14.3003 66.7325C-9.19972 34.2325 59.0382 47.0301 78.3003 63.7325C89.8208 73.7221 76.3607 28.3269 138.14 59.1363C138.209 59.1638 138.273 59.1958 138.333 59.2325C138.268 59.2004 138.204 59.1683 138.14 59.1363C132.196 56.7613 91.9387 88.0864 72.3328 104.233Z" fill="#738D6F"/>
<path d="M21.5 82.5L41 150M41 70L48.5 158.5M43.5 59.5V158.5M58.5 87.5L53.5 166M69.5 104.5L58.5 170.5M99 87.5L68.1758 172.5M66 178.5L68.1758 172.5M151 67.5L74 181M120.5 57L79.7665 172.5M83 47.5L66 170.5M72 35.5L68.1758 172.5M74 66L69.5 185.5" stroke="#97CA8E" stroke-width="0.5" stroke-linecap="round" stroke-linejoin="round"/>
<path d="M18.496 75.6755C16.712 77.5361 20.248 80.1295 21.124 80.8148L22 81.5L22.876 80.8148C23.7521 80.1295 27.288 77.5361 25.504 75.6755C24.19 74.3051 22.146 75.3329 22 76.0181C21.854 75.3329 19.81 74.305 18.496 75.6755Z" fill="#9CCB7F"/>
<path d="M22 76.0181C21.854 75.3329 19.81 74.305 18.496 75.6755C16.712 77.5361 20.248 80.1295 21.124 80.8148L22 81.5L22.876 80.8148C23.7521 80.1295 27.288 77.5361 25.504 75.6755C24.19 74.3051 22.146 75.3329 22 76.0181ZM22 76.0181C21.854 76.475 21.6496 77.5942 22 78.4165" stroke="#55794F" stroke-width="0.1" stroke-linecap="round" stroke-linejoin="round"/>
<path d="M14.8314 78.653C17.1214 77.2035 20.3133 80.0765 21.1566 80.7883L22 81.5L21.1566 82.2117C20.3133 82.9235 17.1214 85.7965 14.8314 84.347C13.1447 83.2794 14.4097 81.6186 15.2531 81.5C14.4097 81.3814 13.1447 79.7206 14.8314 78.653Z" fill="#9CCB7F"/>
<path d="M15.2531 81.5C14.4097 81.3814 13.1447 79.7206 14.8314 78.653C17.1214 77.2035 20.3133 80.0765 21.1566 80.7883L22 81.5L21.1566 82.2117C20.3133 82.9235 17.1214 85.7965 14.8314 84.347C13.1447 83.2794 14.4097 81.6186 15.2531 81.5ZM15.2531 81.5C15.8153 81.3814 17.1928 81.2153 18.2049 81.5" stroke="#55794F" stroke-width="0.1" stroke-linecap="round" stroke-linejoin="round"/>
<path d="M18.496 87.3245C16.712 85.4639 20.248 82.8705 21.124 82.1852L22 81.5L22.876 82.1852C23.7521 82.8705 27.288 85.4639 25.504 87.3245C24.19 88.6949 22.146 87.6671 22 86.9819C21.854 87.6671 19.81 88.695 18.496 87.3245Z" fill="#9CCB7F"/>
<path d="M22 86.9819C21.854 87.6671 19.81 88.695 18.496 87.3245C16.712 85.4639 20.248 82.8705 21.124 82.1852L22 81.5L22.876 82.1852C23.7521 82.8705 27.288 85.4639 25.504 87.3245C24.19 88.6949 22.146 87.6671 22 86.9819ZM22 86.9819C21.854 86.525 21.6496 85.4058 22 84.5835" stroke="#55794F" stroke-width="0.1" stroke-linecap="round" stroke-linejoin="round"/>
<path d="M29.1686 78.653C26.8786 77.2035 23.6867 80.0765 22.8434 80.7883L22 81.5L22.8434 82.2117C23.6867 82.9235 26.8786 85.7965 29.1686 84.347C30.8553 83.2794 29.5903 81.6186 28.7469 81.5C29.5903 81.3814 30.8553 79.7206 29.1686 78.653Z" fill="#9CCB7F"/>
<path d="M28.7469 81.5C29.5903 81.3814 30.8553 79.7206 29.1686 78.653C26.8786 77.2035 23.6867 80.0765 22.8434 80.7883L22 81.5L22.8434 82.2117C23.6867 82.9235 26.8786 85.7965 29.1686 84.347C30.8553 83.2794 29.5903 81.6186 28.7469 81.5ZM28.7469 81.5C28.1847 81.3814 26.8072 81.2153 25.7951 81.5" stroke="#55794F" stroke-width="0.1" stroke-linecap="round" stroke-linejoin="round"/>
<path d="M58.9797 80.9398C56.4755 81.5506 58.0645 85.6377 58.4352 86.6863L58.8059 87.7349L59.9129 87.6276C61.0199 87.5203 65.3955 87.2327 64.8905 84.705C64.5185 82.8431 62.2423 82.6119 61.751 83.1114C61.996 82.455 60.8243 80.4899 58.9797 80.9398Z" fill="#9CCB7F"/>
<path d="M61.751 83.1114C61.996 82.455 60.8243 80.4899 58.9797 80.9398C56.4755 81.5506 58.0645 85.6377 58.4352 86.6863L58.8059 87.7349L59.9129 87.6276C61.0199 87.5203 65.3955 87.2327 64.8905 84.705C64.5185 82.8431 62.2423 82.6119 61.751 83.1114ZM61.751 83.1114C61.3825 83.4182 60.6088 84.2524 60.4626 85.1342" stroke="#55794F" stroke-width="0.1" stroke-linecap="round" stroke-linejoin="round"/>
<path d="M54.2893 81.4822C56.9995 81.49 58.1481 85.628 58.477 86.6814L58.8059 87.7348L57.7122 87.882C56.6185 88.0293 52.3828 88.7375 51.2302 86.2847C50.3812 84.478 52.3404 83.757 53.1154 84.11C52.4678 83.5569 52.2931 81.4765 54.2893 81.4822Z" fill="#9CCB7F"/>
<path d="M53.1154 84.11C52.4678 83.5569 52.2931 81.4765 54.2893 81.4822C56.9995 81.49 58.1481 85.628 58.477 86.6814L58.8059 87.7348L57.7122 87.882C56.6185 88.0293 52.3828 88.7375 51.2302 86.2847C50.3812 84.478 52.3404 83.757 53.1154 84.11ZM53.1154 84.11C53.6534 84.312 54.9044 84.912 55.605 85.6959" stroke="#55794F" stroke-width="0.1" stroke-linecap="round" stroke-linejoin="round"/>
<path d="M52.7213 90.7648C52.2162 88.2371 56.5919 87.9495 57.6989 87.8422L58.8059 87.7349L59.1766 88.7835C59.5473 89.8321 61.1363 93.9191 58.632 94.5299C56.7874 94.9799 55.6157 93.0148 55.8607 92.3584C55.3694 92.8579 53.0933 92.6267 52.7213 90.7648Z" fill="#9CCB7F"/>
<path d="M55.8607 92.3584C55.3694 92.8579 53.0933 92.6267 52.7213 90.7648C52.2162 88.2371 56.5919 87.9495 57.6989 87.8422L58.8059 87.7349L59.1766 88.7835C59.5473 89.8321 61.1363 93.9191 58.632 94.5299C56.7874 94.9799 55.6157 93.0148 55.8607 92.3584ZM55.8607 92.3584C55.983 91.8947 56.4119 90.8409 57.1493 90.3356" stroke="#55794F" stroke-width="0.1" stroke-linecap="round" stroke-linejoin="round"/>
<path d="M66.3816 89.1849C65.2289 86.7321 60.9933 87.4404 59.8996 87.5876L58.8059 87.7348L59.1348 88.7882C59.4637 89.8417 60.6123 93.9797 63.3224 93.9874C65.3187 93.9931 65.1439 91.9128 64.4964 91.3596C65.2714 91.7127 67.2306 90.9916 66.3816 89.1849Z" fill="#9CCB7F"/>
<path d="M64.4964 91.3596C65.2714 91.7127 67.2306 90.9916 66.3816 89.1849C65.2289 86.7321 60.9933 87.4404 59.8996 87.5876L58.8059 87.7348L59.1348 88.7882C59.4637 89.8417 60.6123 93.9797 63.3224 93.9874C65.3187 93.9931 65.1439 91.9128 64.4964 91.3596ZM64.4964 91.3596C64.0859 90.9575 63.0133 90.0774 62.0068 89.7738" stroke="#55794F" stroke-width="0.1" stroke-linecap="round" stroke-linejoin="round"/>
<path d="M65.496 97.6755C63.712 99.5361 67.248 102.13 68.124 102.815L69 103.5L69.876 102.815C70.7521 102.13 74.288 99.5361 72.504 97.6755C71.19 96.3051 69.146 97.3329 69 98.0181C68.854 97.3329 66.81 96.305 65.496 97.6755Z" fill="#9CCB7F"/>
<path d="M69 98.0181C68.854 97.3329 66.81 96.305 65.496 97.6755C63.712 99.5361 67.248 102.13 68.124 102.815L69 103.5L69.876 102.815C70.7521 102.13 74.288 99.5361 72.504 97.6755C71.19 96.3051 69.146 97.3329 69 98.0181ZM69 98.0181C68.854 98.475 68.6496 99.5942 69 100.416" stroke="#55794F" stroke-width="0.1" stroke-linecap="round" stroke-linejoin="round"/>
<path d="M61.8314 100.653C64.1214 99.2035 67.3133 102.076 68.1566 102.788L69 103.5L68.1566 104.212C67.3133 104.924 64.1214 107.797 61.8314 106.347C60.1447 105.279 61.4097 103.619 62.2531 103.5C61.4097 103.381 60.1447 101.721 61.8314 100.653Z" fill="#9CCB7F"/>
<path d="M62.2531 103.5C61.4097 103.381 60.1447 101.721 61.8314 100.653C64.1214 99.2035 67.3133 102.076 68.1566 102.788L69 103.5L68.1566 104.212C67.3133 104.924 64.1214 107.797 61.8314 106.347C60.1447 105.279 61.4097 103.619 62.2531 103.5ZM62.2531 103.5C62.8153 103.381 64.1928 103.215 65.2049 103.5" stroke="#55794F" stroke-width="0.1" stroke-linecap="round" stroke-linejoin="round"/>
<path d="M65.496 109.324C63.712 107.464 67.248 104.87 68.124 104.185L69 103.5L69.876 104.185C70.7521 104.87 74.288 107.464 72.504 109.324C71.19 110.695 69.146 109.667 69 108.982C68.854 109.667 66.81 110.695 65.496 109.324Z" fill="#9CCB7F"/>
<path d="M69 108.982C68.854 109.667 66.81 110.695 65.496 109.324C63.712 107.464 67.248 104.87 68.124 104.185L69 103.5L69.876 104.185C70.7521 104.87 74.288 107.464 72.504 109.324C71.19 110.695 69.146 109.667 69 108.982ZM69 108.982C68.854 108.525 68.6496 107.406 69 106.584" stroke="#55794F" stroke-width="0.1" stroke-linecap="round" stroke-linejoin="round"/>
<path d="M76.1686 100.653C73.8786 99.2035 70.6867 102.076 69.8434 102.788L69 103.5L69.8434 104.212C70.6867 104.924 73.8786 107.797 76.1686 106.347C77.8553 105.279 76.5903 103.619 75.7469 103.5C76.5903 103.381 77.8553 101.721 76.1686 100.653Z" fill="#9CCB7F"/>
<path d="M75.7469 103.5C76.5903 103.381 77.8553 101.721 76.1686 100.653C73.8786 99.2035 70.6867 102.076 69.8434 102.788L69 103.5L69.8434 104.212C70.6867 104.924 73.8786 107.797 76.1686 106.347C77.8553 105.279 76.5903 103.619 75.7469 103.5ZM75.7469 103.5C75.1847 103.381 73.8072 103.215 72.7951 103.5" stroke="#55794F" stroke-width="0.1" stroke-linecap="round" stroke-linejoin="round"/>
<path d="M44.189 51.9681C41.6697 52.5136 43.1519 56.6406 43.4952 57.6985L43.8385 58.7563L44.9479 58.6778C46.0573 58.5994 50.439 58.4257 49.9999 55.8857C49.6764 54.0148 47.407 53.7244 46.9029 54.211C47.1649 53.5612 46.0447 51.5663 44.189 51.9681Z" fill="#9CCB7F"/>
<path d="M46.9029 54.211C47.1649 53.5612 46.0447 51.5663 44.189 51.9681C41.6697 52.5136 43.1519 56.6406 43.4952 57.6985L43.8385 58.7563L44.9479 58.6778C46.0573 58.5994 50.439 58.4257 49.9999 55.8857C49.6764 54.0148 47.407 53.7244 46.9029 54.211ZM46.9029 54.211C46.5265 54.5081 45.7314 55.3219 45.5623 56.1996" stroke="#55794F" stroke-width="0.1" stroke-linecap="round" stroke-linejoin="round"/>
<path d="M39.4861 52.3884C42.1951 52.4666 43.2357 56.6331 43.5371 57.6947L43.8385 58.7563L42.7414 58.875C41.6442 58.9938 37.3916 59.5916 36.3031 57.1097C35.5013 55.2815 37.4786 54.6117 38.2442 54.9847C37.6113 54.4149 37.4907 52.3307 39.4861 52.3884Z" fill="#9CCB7F"/>
<path d="M38.2442 54.9847C37.6113 54.4149 37.4907 52.3307 39.4861 52.3884C42.1951 52.4666 43.2357 56.6331 43.5371 57.6947L43.8385 58.7563L42.7414 58.875C41.6442 58.9938 37.3916 59.5916 36.3031 57.1097C35.5013 55.2815 37.4786 54.6117 38.2442 54.9847ZM38.2442 54.9847C38.7767 55.2007 40.0117 55.833 40.6917 56.6348" stroke="#55794F" stroke-width="0.1" stroke-linecap="round" stroke-linejoin="round"/>
<path d="M37.6772 61.6269C37.238 59.0869 41.6197 58.9132 42.7291 58.8347L43.8385 58.7563L44.1818 59.8141C44.5251 60.872 46.0073 64.999 43.488 65.5445C41.6323 65.9463 40.5121 63.9514 40.7741 63.3016C40.27 63.7882 38.0006 63.4978 37.6772 61.6269Z" fill="#9CCB7F"/>
<path d="M40.7741 63.3016C40.27 63.7882 38.0006 63.4978 37.6772 61.6269C37.238 59.0869 41.6197 58.9132 42.7291 58.8347L43.8385 58.7563L44.1818 59.8141C44.5251 60.872 46.0073 64.999 43.488 65.5445C41.6323 65.9463 40.5121 63.9514 40.7741 63.3016ZM40.7741 63.3016C40.9084 62.8412 41.3646 61.799 42.1148 61.313" stroke="#55794F" stroke-width="0.1" stroke-linecap="round" stroke-linejoin="round"/>
<path d="M51.3739 60.4029C50.2855 57.921 46.0328 58.5189 44.9357 58.6376L43.8385 58.7563L44.1399 59.8179C44.4413 60.8795 45.4819 65.046 48.1909 65.1242C50.1863 65.1819 50.0658 63.0977 49.4328 62.5279C50.1984 62.9009 52.1757 62.2311 51.3739 60.4029Z" fill="#9CCB7F"/>
<path d="M49.4328 62.5279C50.1984 62.9009 52.1757 62.2311 51.3739 60.4029C50.2855 57.921 46.0328 58.5189 44.9357 58.6376L43.8385 58.7563L44.1399 59.8179C44.4413 60.8795 45.4819 65.046 48.1909 65.1242C50.1863 65.1819 50.0658 63.0977 49.4328 62.5279ZM49.4328 62.5279C49.0329 62.1152 47.9836 61.2075 46.9853 60.8778" stroke="#55794F" stroke-width="0.1" stroke-linecap="round" stroke-linejoin="round"/>
<path d="M68.337 44.6251C70.8404 45.2397 71.3183 40.8807 71.4737 39.7795L71.6292 38.6782L70.5977 38.2622C69.5663 37.8461 65.5523 36.0806 64.833 38.5559C64.3032 40.3791 66.2153 41.6353 66.8817 41.4192C66.3613 41.8882 66.4932 44.1723 68.337 44.6251Z" fill="#9CCB7F"/>
<path d="M66.8817 41.4192C66.3613 41.8882 66.4932 44.1723 68.337 44.6251C70.8404 45.2397 71.3183 40.8807 71.4737 39.7795L71.6292 38.6782L70.5977 38.2622C69.5663 37.8461 65.5523 36.0806 64.833 38.5559C64.3032 40.3791 66.2153 41.6353 66.8817 41.4192ZM66.8817 41.4192C67.3504 41.3172 68.4218 40.9346 68.9587 40.22" stroke="#55794F" stroke-width="0.1" stroke-linecap="round" stroke-linejoin="round"/>
<path d="M72.7479 46.3099C70.3476 45.0515 71.2397 40.8507 71.4345 39.7645L71.6292 38.6782L72.6672 39.0527C73.7054 39.4272 77.7894 40.755 77.6791 43.4629C77.5978 45.4575 75.527 45.1923 75.0026 44.5212C75.3216 45.3109 74.5158 47.2369 72.7479 46.3099Z" fill="#9CCB7F"/>
<path d="M75.0026 44.5212C75.3216 45.3109 74.5158 47.2369 72.7479 46.3099C70.3476 45.0515 71.2397 40.8507 71.4345 39.7645L71.6292 38.6782L72.6672 39.0527C73.7054 39.4272 77.7894 40.755 77.6791 43.4629C77.5978 45.4575 75.527 45.1923 75.0026 44.5212ZM75.0026 44.5212C74.6188 44.0936 73.7862 42.9837 73.5267 41.9649" stroke="#55794F" stroke-width="0.1" stroke-linecap="round" stroke-linejoin="round"/>
<path d="M78.4253 38.8006C77.706 41.2759 73.692 39.5103 72.6606 39.0943L71.6292 38.6782L71.7846 37.577C71.94 36.4757 72.418 32.1167 74.9213 32.7314C76.7652 33.1842 76.897 35.4682 76.3766 35.9373C77.043 35.7211 78.9552 36.9774 78.4253 38.8006Z" fill="#9CCB7F"/>
<path d="M76.3766 35.9373C77.043 35.7211 78.9552 36.9774 78.4253 38.8006C77.706 41.2759 73.692 39.5103 72.6606 39.0943L71.6292 38.6782L71.7846 37.577C71.94 36.4757 72.418 32.1167 74.9213 32.7314C76.7652 33.1842 76.897 35.4682 76.3766 35.9373ZM76.3766 35.9373C76.054 36.2922 75.1869 37.0288 74.2996 37.1364" stroke="#55794F" stroke-width="0.1" stroke-linecap="round" stroke-linejoin="round"/>
<path d="M65.5793 33.8935C65.4689 36.6015 69.553 37.9292 70.5911 38.3037L71.6292 38.6782L71.8239 37.592C72.0186 36.5057 72.9108 32.3049 70.5105 31.0465C68.7425 30.1196 67.9368 32.0455 68.2557 32.8352C67.7313 32.1642 65.6605 31.899 65.5793 33.8935Z" fill="#9CCB7F"/>
<path d="M68.2557 32.8352C67.7313 32.1642 65.6605 31.899 65.5793 33.8935C65.4689 36.6015 69.553 37.9292 70.5911 38.3037L71.6292 38.6782L71.8239 37.592C72.0186 36.5057 72.9108 32.3049 70.5105 31.0465C68.7425 30.1196 67.9368 32.0455 68.2557 32.8352ZM68.2557 32.8352C68.4341 33.3814 68.979 34.6574 69.7316 35.3915" stroke="#55794F" stroke-width="0.1" stroke-linecap="round" stroke-linejoin="round"/>
<path d="M114.186 62.4526C116.285 63.9494 118.341 60.0761 118.892 59.1104L119.444 58.1446L118.639 57.3767C117.835 56.6087 114.758 53.4841 113.175 55.5179C112.008 57.016 113.32 58.8903 114.019 58.9358C113.362 59.1792 112.64 61.3501 114.186 62.4526Z" fill="#9CCB7F"/>
<path d="M114.019 58.9358C113.362 59.1792 112.64 61.3501 114.186 62.4526C116.285 63.9494 118.341 60.0761 118.892 59.1104L119.444 58.1446L118.639 57.3767C117.835 56.6087 114.758 53.4841 113.175 55.5179C112.008 57.016 113.32 58.8903 114.019 58.9358ZM114.019 58.9358C114.493 59.0144 115.63 59.0551 116.393 58.5897" stroke="#55794F" stroke-width="0.1" stroke-linecap="round" stroke-linejoin="round"/>
<path d="M117.661 65.649C115.896 63.5923 118.279 60.0191 118.861 59.0819L119.444 58.1446L120.27 58.8764C121.096 59.6082 124.4 62.352 123.296 64.8272C122.483 66.6504 120.657 65.6383 120.418 64.8209C120.422 65.6725 118.961 67.164 117.661 65.649Z" fill="#9CCB7F"/>
<path d="M120.418 64.8209C120.422 65.6725 118.961 67.164 117.661 65.649C115.896 63.5923 118.279 60.0191 118.861 59.0819L119.444 58.1446L120.27 58.8764C121.096 59.6082 124.4 62.352 123.296 64.8272C122.483 66.6504 120.657 65.6383 120.418 64.8209ZM120.418 64.8209C120.219 64.2816 119.856 62.9425 119.992 61.9" stroke="#55794F" stroke-width="0.1" stroke-linecap="round" stroke-linejoin="round"/>
<path d="M125.713 60.7714C124.13 62.8053 121.053 59.6806 120.248 58.9126L119.444 58.1447L119.996 57.179C120.547 56.2132 122.603 52.3399 124.702 53.8367C126.247 54.9392 125.525 57.1101 124.868 57.3535C125.567 57.3991 126.88 59.2733 125.713 60.7714Z" fill="#9CCB7F"/>
<path d="M124.868 57.3535C125.567 57.3991 126.88 59.2733 125.713 60.7714C124.13 62.8053 121.053 59.6806 120.248 58.9126L119.444 58.1447L119.996 57.179C120.547 56.2132 122.603 52.3399 124.702 53.8367C126.247 54.9392 125.525 57.1101 124.868 57.3535ZM124.868 57.3535C124.437 57.5639 123.359 57.9277 122.495 57.6996" stroke="#55794F" stroke-width="0.1" stroke-linecap="round" stroke-linejoin="round"/>
<path d="M115.592 51.4621C114.488 53.9372 117.792 56.6811 118.618 57.4129L119.444 58.1447L120.026 57.2074C120.609 56.2702 122.991 52.697 121.226 50.6402C119.927 49.1253 118.466 50.6168 118.47 51.4684C118.231 50.651 116.405 49.6389 115.592 51.4621Z" fill="#9CCB7F"/>
<path d="M118.47 51.4684C118.231 50.651 116.405 49.6389 115.592 51.4621C114.488 53.9372 117.792 56.6811 118.618 57.4129L119.444 58.1447L120.026 57.2074C120.609 56.2702 122.991 52.697 121.226 50.6402C119.927 49.1253 118.466 50.6168 118.47 51.4684ZM118.47 51.4684C118.434 52.0419 118.468 53.4289 118.896 54.3893" stroke="#55794F" stroke-width="0.1" stroke-linecap="round" stroke-linejoin="round"/>
<path d="M142.999 68.1924C143.641 70.6888 147.708 69.0486 148.752 68.6647L149.796 68.2809L149.675 67.1754C149.553 66.0698 149.211 61.6981 146.69 62.2348C144.833 62.6302 144.63 64.9091 145.136 65.3941C144.476 65.1573 142.526 66.3536 142.999 68.1924Z" fill="#9CCB7F"/>
<path d="M145.136 65.3941C144.476 65.1573 142.526 66.3536 142.999 68.1924C143.641 70.6888 147.708 69.0486 148.752 68.6647L149.796 68.2809L149.675 67.1754C149.553 66.0698 149.211 61.6981 146.69 62.2348C144.833 62.6302 144.63 64.9091 145.136 65.3941ZM145.136 65.3941C145.447 65.7587 146.291 66.5219 147.174 66.657" stroke="#55794F" stroke-width="0.1" stroke-linecap="round" stroke-linejoin="round"/>
<path d="M143.6 72.8757C143.574 70.1656 147.697 68.9652 148.747 68.6231L149.796 68.2809L149.957 69.3727C150.118 70.4645 150.879 74.6909 148.441 75.8743C146.645 76.7459 145.899 74.7959 146.243 74.0165C145.698 74.671 143.62 74.8718 143.6 72.8757Z" fill="#9CCB7F"/>
<path d="M146.243 74.0165C145.698 74.671 143.62 74.8718 143.6 72.8757C143.574 70.1656 147.697 68.9652 148.747 68.6231L149.796 68.2809L149.957 69.3727C150.118 70.4645 150.879 74.6909 148.441 75.8743C146.645 76.7459 145.899 74.7959 146.243 74.0165ZM146.243 74.0165C146.438 73.4761 147.022 72.2176 147.797 71.5072" stroke="#55794F" stroke-width="0.1" stroke-linecap="round" stroke-linejoin="round"/>
<path d="M152.902 74.327C150.381 74.8638 150.038 70.492 149.917 69.3865L149.796 68.2809L150.84 67.8971C151.883 67.5132 155.95 65.873 156.592 68.3694C157.065 70.2082 155.115 71.4045 154.456 71.1678C154.961 71.6528 154.759 73.9317 152.902 74.327Z" fill="#9CCB7F"/>
<path d="M154.456 71.1678C154.961 71.6528 154.759 73.9317 152.902 74.327C150.381 74.8638 150.038 70.492 149.917 69.3865L149.796 68.2809L150.84 67.8971C151.883 67.5132 155.95 65.873 156.592 68.3694C157.065 70.2082 155.115 71.4045 154.456 71.1678ZM154.456 71.1678C153.991 71.0513 152.932 70.6357 152.417 69.9048" stroke="#55794F" stroke-width="0.1" stroke-linecap="round" stroke-linejoin="round"/>
<path d="M151.151 60.6875C148.712 61.8709 149.474 66.0973 149.635 67.1891L149.796 68.2809L150.845 67.9388C151.894 67.5967 156.017 66.3962 155.991 63.6861C155.972 61.69 153.894 61.8909 153.349 62.5453C153.692 61.7659 152.946 59.8159 151.151 60.6875Z" fill="#9CCB7F"/>
<path d="M153.349 62.5453C153.692 61.7659 152.946 59.8159 151.151 60.6875C148.712 61.8709 149.474 66.0973 149.635 67.1891L149.796 68.2809L150.845 67.9388C151.894 67.5967 156.017 66.3962 155.991 63.6861C155.972 61.69 153.894 61.8909 153.349 62.5453ZM153.349 62.5453C152.952 62.9608 152.085 64.0444 151.794 65.0546" stroke="#55794F" stroke-width="0.1" stroke-linecap="round" stroke-linejoin="round"/>
<path d="M33.1973 73.5039C34.8362 75.4935 37.8259 72.2855 38.609 71.4958L39.3921 70.706L38.8141 69.7558C38.2362 68.8055 36.0747 64.9902 34.018 66.544C32.5031 67.6886 33.2845 69.8389 33.9479 70.0641C33.2503 70.1289 31.9902 72.0384 33.1973 73.5039Z" fill="#9CCB7F"/>
<path d="M33.9479 70.0641C33.2503 70.1289 31.9902 72.0384 33.1973 73.5039C34.8362 75.4935 37.8259 72.2855 38.609 71.4958L39.3921 70.706L38.8141 69.7558C38.2362 68.8055 36.0747 64.9902 34.018 66.544C32.5031 67.6886 33.2845 69.8389 33.9479 70.0641ZM33.9479 70.0641C34.3845 70.2626 35.4721 70.5966 36.3297 70.3449" stroke="#55794F" stroke-width="0.1" stroke-linecap="round" stroke-linejoin="round"/>
<path d="M35.7252 77.492C34.5538 75.0481 37.7808 72.2145 38.5865 71.4603L39.3921 70.7061L40.0002 71.627C40.6083 72.5479 43.0878 76.0543 41.3801 78.1588C40.1222 79.7089 38.6211 78.2581 38.602 77.4066C38.3854 78.2303 36.588 79.2922 35.7252 77.492Z" fill="#9CCB7F"/>
<path d="M38.602 77.4066C38.3854 78.2303 36.588 79.2922 35.7252 77.492C34.5538 75.0481 37.7808 72.2145 38.5865 71.4603L39.3921 70.7061L40.0002 71.627C40.6083 72.5479 43.0878 76.0543 41.3801 78.1588C40.1223 79.7089 38.6211 78.2581 38.602 77.4066ZM38.602 77.4066C38.55 76.8343 38.5464 75.4469 38.9477 74.4751" stroke="#55794F" stroke-width="0.1" stroke-linecap="round" stroke-linejoin="round"/>
<path d="M44.7662 74.8681C42.7095 76.4219 40.548 72.6065 39.97 71.6563L39.3921 70.7061L40.1752 69.9163C40.9583 69.1266 43.9479 65.9186 45.5868 67.9082C46.794 69.3737 45.5338 71.2832 44.8362 71.348C45.4996 71.5732 46.2811 73.7235 44.7662 74.8681Z" fill="#9CCB7F"/>
<path d="M44.8362 71.348C45.4996 71.5732 46.2811 73.7235 44.7662 74.8681C42.7095 76.4219 40.548 72.6065 39.97 71.6563L39.3921 70.7061L40.1752 69.9163C40.9583 69.1266 43.9479 65.9186 45.5868 67.9082C46.794 69.3737 45.5338 71.2832 44.8362 71.348ZM44.8362 71.348C44.3654 71.4395 43.23 71.5114 42.4544 71.0671" stroke="#55794F" stroke-width="0.1" stroke-linecap="round" stroke-linejoin="round"/>
<path d="M37.4041 63.2534C35.6964 65.3578 38.1759 68.8642 38.784 69.7851L39.3921 70.706L40.1977 69.9518C41.0033 69.1976 44.2303 66.3641 43.059 63.9201C42.1962 62.12 40.3987 63.1819 40.1821 64.0055C40.1631 63.1541 38.6619 61.7033 37.4041 63.2534Z" fill="#9CCB7F"/>
<path d="M40.1821 64.0055C40.1631 63.1541 38.6619 61.7033 37.4041 63.2534C35.6964 65.3578 38.1759 68.8642 38.784 69.7851L39.3921 70.706L40.1977 69.9518C41.0033 69.1976 44.2303 66.3641 43.059 63.9201C42.1962 62.12 40.3987 63.1819 40.1821 64.0055ZM40.1821 64.0055C39.9985 64.55 39.6723 65.8986 39.8365 66.937" stroke="#55794F" stroke-width="0.1" stroke-linecap="round" stroke-linejoin="round"/>
<path d="M91.1973 91.5039C92.8362 93.4935 95.8259 90.2855 96.609 89.4958L97.3921 88.706L96.8141 87.7558C96.2362 86.8055 94.0747 82.9902 92.018 84.544C90.5031 85.6886 91.2845 87.8389 91.9479 88.0641C91.2503 88.1289 89.9902 90.0384 91.1973 91.5039Z" fill="#9CCB7F"/>
<path d="M91.9479 88.0641C91.2503 88.1289 89.9902 90.0384 91.1973 91.5039C92.8362 93.4935 95.8259 90.2855 96.609 89.4958L97.3921 88.706L96.8141 87.7558C96.2362 86.8055 94.0747 82.9902 92.018 84.544C90.5031 85.6886 91.2845 87.8389 91.9479 88.0641ZM91.9479 88.0641C92.3845 88.2626 93.4721 88.5966 94.3297 88.3449" stroke="#55794F" stroke-width="0.1" stroke-linecap="round" stroke-linejoin="round"/>
<path d="M93.7252 95.492C92.5538 93.0481 95.7808 90.2145 96.5865 89.4603L97.3921 88.7061L98.0002 89.627C98.6083 90.5479 101.088 94.0543 99.3801 96.1588C98.1223 97.7089 96.6211 96.2581 96.602 95.4066C96.3854 96.2303 94.588 97.2922 93.7252 95.492Z" fill="#9CCB7F"/>
<path d="M96.602 95.4066C96.3854 96.2303 94.588 97.2922 93.7252 95.492C92.5538 93.0481 95.7808 90.2145 96.5865 89.4603L97.3921 88.7061L98.0002 89.627C98.6083 90.5479 101.088 94.0543 99.3801 96.1588C98.1223 97.7089 96.6211 96.2581 96.602 95.4066ZM96.602 95.4066C96.55 94.8343 96.5464 93.4469 96.9477 92.4751" stroke="#55794F" stroke-width="0.1" stroke-linecap="round" stroke-linejoin="round"/>
<path d="M102.766 92.8681C100.709 94.4219 98.548 90.6065 97.97 89.6563L97.3921 88.7061L98.1752 87.9163C98.9583 87.1266 101.948 83.9186 103.587 85.9082C104.794 87.3737 103.534 89.2832 102.836 89.348C103.5 89.5732 104.281 91.7235 102.766 92.8681Z" fill="#9CCB7F"/>
<path d="M102.836 89.348C103.5 89.5732 104.281 91.7235 102.766 92.8681C100.709 94.4219 98.548 90.6065 97.97 89.6563L97.3921 88.7061L98.1752 87.9163C98.9583 87.1266 101.948 83.9186 103.587 85.9082C104.794 87.3737 103.534 89.2832 102.836 89.348ZM102.836 89.348C102.365 89.4395 101.23 89.5114 100.454 89.0671" stroke="#55794F" stroke-width="0.1" stroke-linecap="round" stroke-linejoin="round"/>
<path d="M95.4041 81.2534C93.6964 83.3578 96.1759 86.8642 96.784 87.7851L97.3921 88.706L98.1977 87.9518C99.0033 87.1976 102.23 84.3641 101.059 81.9201C100.196 80.12 98.3987 81.1819 98.1821 82.0055C98.1631 81.1541 96.6619 79.7033 95.4041 81.2534Z" fill="#9CCB7F"/>
<path d="M98.1821 82.0055C98.1631 81.1541 96.6619 79.7033 95.4041 81.2534C93.6964 83.3578 96.1759 86.8642 96.784 87.7851L97.3921 88.706L98.1977 87.9518C99.0033 87.1976 102.23 84.3641 101.059 81.9201C100.196 80.12 98.3987 81.1819 98.1821 82.0055ZM98.1821 82.0055C97.9985 82.55 97.6723 83.8986 97.8365 84.937" stroke="#55794F" stroke-width="0.1" stroke-linecap="round" stroke-linejoin="round"/>
<path d="M74.777 48.3924C75.5385 50.8551 79.5217 49.0212 80.5459 48.5876L81.5701 48.154L81.3959 47.0556C81.2217 45.9571 80.6693 41.607 78.1769 42.2643C76.341 42.7485 76.2482 45.0345 76.7765 45.4946C76.1065 45.2898 74.2161 46.5785 74.777 48.3924Z" fill="#9CCB7F"/>
<path d="M76.7765 45.4946C76.1065 45.2898 74.2161 46.5785 74.777 48.3924C75.5385 50.8551 79.5217 49.0212 80.5459 48.5876L81.5701 48.154L81.3959 47.0556C81.2217 45.9571 80.6693 41.607 78.1769 42.2643C76.341 42.7485 76.2482 45.0345 76.7765 45.4946ZM76.7765 45.4946C77.1052 45.8439 77.9847 46.5656 78.8737 46.6581" stroke="#55794F" stroke-width="0.1" stroke-linecap="round" stroke-linejoin="round"/>
<path d="M75.6028 53.0414C75.4462 50.3357 79.507 48.9384 80.5386 48.5462L81.5701 48.1541L81.7833 49.2368C81.9966 50.3196 82.9604 54.5045 80.5819 55.8037C78.83 56.7607 77.9915 54.8488 78.2969 54.0538C77.7841 54.7337 75.7181 55.0343 75.6028 53.0414Z" fill="#9CCB7F"/>
<path d="M78.2969 54.0538C77.7841 54.7337 75.7181 55.0343 75.6028 53.0414C75.4462 50.3357 79.507 48.9384 80.5386 48.5462L81.5701 48.1541L81.7833 49.2368C81.9966 50.3196 82.9604 54.5045 80.5819 55.8037C78.83 56.7607 77.9915 54.8488 78.2969 54.0538ZM78.2969 54.0538C78.466 53.5046 78.989 52.2195 79.729 51.4727" stroke="#55794F" stroke-width="0.1" stroke-linecap="round" stroke-linejoin="round"/>
<path d="M84.9633 54.0438C82.4709 54.7011 81.9185 50.3509 81.7443 49.2525L81.5701 48.154L82.5943 47.7205C83.6185 47.2868 87.6017 45.453 88.3632 47.9156C88.9241 49.7295 87.0337 51.0182 86.3636 50.8135C86.892 51.2736 86.7992 53.5596 84.9633 54.0438Z" fill="#9CCB7F"/>
<path d="M86.3636 50.8135C86.892 51.2736 86.7992 53.5596 84.9633 54.0438C82.4709 54.7011 81.9185 50.3509 81.7443 49.2525L81.5701 48.154L82.5943 47.7205C83.6185 47.2868 87.6017 45.453 88.3632 47.9156C88.9241 49.7295 87.0337 51.0182 86.3636 50.8135ZM86.3636 50.8135C85.8934 50.7195 84.8155 50.3553 84.2665 49.65" stroke="#55794F" stroke-width="0.1" stroke-linecap="round" stroke-linejoin="round"/>
<path d="M82.5583 40.5044C80.1798 41.8037 81.1436 45.9886 81.3569 47.0713L81.5701 48.1541L82.6016 47.7619C83.6332 47.3698 87.6939 45.9724 87.5374 43.2668C87.4221 41.2739 85.3561 41.5744 84.8432 42.2544C85.1487 41.4593 84.3102 39.5474 82.5583 40.5044Z" fill="#9CCB7F"/>
<path d="M84.8432 42.2544C85.1487 41.4593 84.3102 39.5474 82.5583 40.5044C80.1798 41.8037 81.1436 45.9886 81.3569 47.0713L81.5701 48.1541L82.6016 47.7619C83.6332 47.3698 87.6939 45.9724 87.5374 43.2668C87.4221 41.2739 85.3561 41.5744 84.8432 42.2544ZM84.8432 42.2544C84.4668 42.6885 83.6533 43.8124 83.4113 44.8355" stroke="#55794F" stroke-width="0.1" stroke-linecap="round" stroke-linejoin="round"/>
<path d="M74.2944 59.0734C71.7751 59.6189 73.2573 63.7459 73.6006 64.8038L73.9439 65.8617L75.0533 65.7832C76.1627 65.7047 80.5443 65.531 80.1052 62.991C79.7818 61.1201 77.5124 60.8298 77.0083 61.3163C77.2703 60.6665 76.15 58.6717 74.2944 59.0734Z" fill="#9CCB7F"/>
<path d="M77.0083 61.3163C77.2703 60.6665 76.15 58.6717 74.2944 59.0734C71.7751 59.6189 73.2573 63.7459 73.6006 64.8038L73.9439 65.8617L75.0533 65.7832C76.1627 65.7047 80.5443 65.531 80.1052 62.991C79.7818 61.1201 77.5124 60.8298 77.0083 61.3163ZM77.0083 61.3163C76.6319 61.6135 75.8367 62.4272 75.6676 63.3049" stroke="#55794F" stroke-width="0.1" stroke-linecap="round" stroke-linejoin="round"/>
<path d="M69.5915 59.4937C72.3005 59.572 73.3411 63.7385 73.6425 64.8001L73.9439 65.8617L72.8467 65.9804C71.7495 66.0991 67.4969 66.697 66.4084 64.215C65.6067 62.3869 67.584 61.717 68.3496 62.0901C67.7166 61.5203 67.5961 59.4361 69.5915 59.4937Z" fill="#9CCB7F"/>
<path d="M68.3496 62.0901C67.7166 61.5203 67.5961 59.4361 69.5915 59.4937C72.3005 59.572 73.3411 63.7385 73.6425 64.8001L73.9439 65.8617L72.8467 65.9804C71.7495 66.0991 67.4969 66.697 66.4084 64.215C65.6067 62.3869 67.584 61.717 68.3496 62.0901ZM68.3496 62.0901C68.8821 62.306 70.1171 62.9384 70.7971 63.7402" stroke="#55794F" stroke-width="0.1" stroke-linecap="round" stroke-linejoin="round"/>
<path d="M67.7825 68.7323C67.3434 66.1923 71.7251 66.0186 72.8345 65.9401L73.9439 65.8616L74.2872 66.9195C74.6305 67.9774 76.1127 72.1044 73.5934 72.6498C71.7377 73.0516 70.6175 71.0567 70.8795 70.407C70.3754 70.8935 68.106 70.6032 67.7825 68.7323Z" fill="#9CCB7F"/>
<path d="M70.8795 70.407C70.3754 70.8935 68.106 70.6032 67.7825 68.7323C67.3434 66.1923 71.7251 66.0186 72.8345 65.9401L73.9439 65.8616L74.2872 66.9195C74.6305 67.9774 76.1127 72.1044 73.5934 72.6498C71.7377 73.0516 70.6175 71.0567 70.8795 70.407ZM70.8795 70.407C71.0138 69.9466 71.47 68.9043 72.2202 68.4184" stroke="#55794F" stroke-width="0.1" stroke-linecap="round" stroke-linejoin="round"/>
<path d="M81.4793 67.5083C80.3908 65.0263 76.1382 65.6242 75.041 65.7429L73.9439 65.8616L74.2453 66.9232C74.5467 67.9849 75.5873 72.1513 78.2963 72.2296C80.2917 72.2872 80.1711 70.203 79.5381 69.6332C80.3037 70.0063 82.2811 69.3364 81.4793 67.5083Z" fill="#9CCB7F"/>
<path d="M79.5382 69.6332C80.3037 70.0063 82.2811 69.3364 81.4793 67.5083C80.3908 65.0263 76.1382 65.6242 75.041 65.7429L73.9439 65.8616L74.2453 66.9232C74.5467 67.9849 75.5873 72.1513 78.2963 72.2296C80.2917 72.2872 80.1711 70.203 79.5382 69.6332ZM79.5382 69.6332C79.1383 69.2205 78.0889 68.3128 77.0906 67.9832" stroke="#55794F" stroke-width="0.1" stroke-linecap="round" stroke-linejoin="round"/>
<path d="M63.5 47V182.5M36 68L59 178.5M81.5 100.5L69 182.5M105 77.5L76 178.5M134.5 71L81.5 172.5" stroke="#AABF7D" stroke-width="2" stroke-linecap="round" stroke-linejoin="round"/>
<path d="M63.5 47V182.5M36 68L59 178.5M81.5 100.5L69 182.5M105 77.5L76 178.5M134.5 71L81.5 172.5" stroke="url(#paint0_linear_41_5033)" stroke-width="2" stroke-linecap="round" stroke-linejoin="round"/>
<path d="M138.9 32.417C156.317 23.8914 163.993 41.5985 163.959 48.1736C163.388 47.0772 162.095 46.006 159.956 45.8401C156.409 47.2565 149.944 53.2454 146.12 64.4059C144.605 68.8268 138.781 79.7942 130.311 73.7759C128.585 72.5626 129.429 70.2956 130.067 69.3137C130.067 69.3137 130.951 67.4878 132.756 65.2802C134.806 60.4154 132.949 53.0053 132.647 50.6256C131.486 43.0437 134.31 34.6637 138.9 32.417Z" fill="#FFFAED"/>
<path d="M137.855 60.6159C139.97 59.2231 141.408 56.7574 143.833 54.5102C151.468 47.4379 156.696 45.5871 159.956 45.8401M137.855 60.6159C135.406 58.1385 133.183 54.1233 132.647 50.6256M137.855 60.6159C132.602 64.0753 130.067 69.3137 130.067 69.3137C129.429 70.2956 128.585 72.5626 130.311 73.7759C138.781 79.7942 144.605 68.8268 146.12 64.4059C149.944 53.2454 156.409 47.2565 159.956 45.8401M159.956 45.8401C162.095 46.006 163.388 47.0772 163.959 48.1735C163.993 41.5985 156.317 23.8914 138.9 32.417C134.31 34.6637 131.486 43.0437 132.647 50.6256M132.647 50.6256C132.949 53.0053 134.806 60.4154 132.756 65.2802" stroke="#758672" stroke-width="0.5" stroke-linecap="round" stroke-linejoin="round"/>
<path d="M144.405 48.8552C143.63 52.7246 139.158 62.9347 137.018 67.5561C135.022 71.1692 131.632 76.0511 134.037 66.6739C136.441 57.2966 139.963 50.2994 141.423 47.973C142.759 45.846 145.179 44.9859 144.405 48.8552Z" fill="#F5CF6C" stroke="#EEB648" stroke-linecap="round" stroke-linejoin="round"/>
<path fill-rule="evenodd" clip-rule="evenodd" d="M137.855 60.6159C135.406 58.1385 133.183 54.1233 132.647 50.6256C132.697 51.016 132.788 51.5419 132.897 52.1697C133.453 55.3684 134.469 61.2136 132.756 65.2802C130.951 67.4878 130.067 69.3137 130.067 69.3137C129.429 70.2956 128.585 72.5626 130.311 73.7759C138.781 79.7942 144.605 68.8268 146.12 64.4059C149.944 53.2454 156.409 47.2565 159.956 45.8401C156.696 45.5871 151.468 47.4379 143.833 54.5102C142.805 55.4629 141.954 56.4548 141.154 57.3877C140.067 58.6552 139.074 59.8136 137.855 60.6159Z" fill="#EDF5D7"/>
<path d="M137.855 60.6159C135.406 58.1385 133.183 54.1233 132.647 50.6256M137.855 60.6159C132.602 64.0753 130.067 69.3137 130.067 69.3137M137.855 60.6159C139.074 59.8136 140.067 58.6552 141.154 57.3877C141.954 56.4548 142.805 55.4629 143.833 54.5102C151.468 47.4379 156.696 45.5871 159.956 45.8401M159.956 45.8401C162.095 46.006 163.388 47.0772 163.959 48.1735C163.993 41.5985 156.317 23.8914 138.9 32.417C134.31 34.6637 131.486 43.0437 132.647 50.6256M159.956 45.8401C156.409 47.2565 149.944 53.2454 146.12 64.4059C144.605 68.8268 138.781 79.7942 130.311 73.7759C128.585 72.5626 129.429 70.2956 130.067 69.3137M132.647 50.6256C132.697 51.016 132.788 51.5419 132.897 52.1697C133.453 55.3684 134.469 61.2136 132.756 65.2802C130.951 67.4878 130.067 69.3137 130.067 69.3137" stroke="#758672" stroke-width="0.5" stroke-linecap="round" stroke-linejoin="round"/>
<path d="M47.0752 10.9569C58.3824 -4.79699 73.5249 7.16796 76.6073 12.9759C75.5857 12.2802 73.9399 11.9484 71.9771 12.8147C69.5227 15.7414 66.6623 24.0771 68.5761 35.7183C69.3342 40.3296 69.3948 52.7476 59.0856 51.4548C56.9902 51.2032 56.6613 48.8064 56.7587 47.6395C56.7587 47.6395 56.6727 45.6129 57.2176 42.814C56.7208 37.5584 51.5783 31.9095 50.1858 29.9562C45.5745 23.8269 44.0954 15.1086 47.0752 10.9569Z" fill="#FFFAED"/>
<path d="M59.5021 36.2916C60.7059 34.0636 60.8051 31.2112 61.8783 28.0834C65.2562 18.2399 68.9851 14.1353 71.9771 12.8147M59.5021 36.2916C56.1719 35.2685 52.3131 32.7838 50.1858 29.9562M59.5021 36.2916C56.512 41.8253 56.7587 47.6395 56.7587 47.6395C56.6613 48.8064 56.9902 51.2032 59.0856 51.4548C69.3948 52.7475 69.3342 40.3296 68.5761 35.7183C66.6623 24.0771 69.5227 15.7414 71.9771 12.8147M71.9771 12.8147C73.9399 11.9484 75.5857 12.2802 76.6073 12.9759C73.5249 7.16796 58.3824 -4.79699 47.0752 10.9569C44.0954 15.1086 45.5745 23.8269 50.1858 29.9562M50.1858 29.9562C51.5783 31.9095 56.7208 37.5584 57.2176 42.814" stroke="#758672" stroke-width="0.5" stroke-linecap="round" stroke-linejoin="round"/>
<path d="M59.7051 22.8315C60.8544 26.6065 61.747 37.7176 62.0496 42.8013C62.0018 46.9286 61.3262 52.8336 59.0057 43.4353C56.6852 34.0369 56.4759 26.2061 56.6612 23.4655C56.8307 20.9599 58.5559 19.0564 59.7051 22.8315Z" fill="#F5CF6C" stroke="#EEB648" stroke-linecap="round" stroke-linejoin="round"/>
<path fill-rule="evenodd" clip-rule="evenodd" d="M59.5021 36.2916C56.1719 35.2685 52.3131 32.7838 50.1858 29.9562C50.4143 30.2767 50.7437 30.6966 51.137 31.198C53.1407 33.7526 56.8023 38.4207 57.2176 42.814C56.6727 45.6129 56.7587 47.6395 56.7587 47.6395C56.6613 48.8064 56.9902 51.2032 59.0856 51.4548C69.3948 52.7476 69.3342 40.3296 68.5761 35.7183C66.6623 24.0771 69.5227 15.7414 71.9771 12.8147C68.9851 14.1353 65.2562 18.2399 61.8783 28.0834C61.4233 29.4094 61.1434 30.6859 60.8802 31.8864C60.5225 33.5175 60.1956 35.0081 59.5021 36.2916Z" fill="#EDF5D7"/>
<path d="M59.5021 36.2916C56.1719 35.2685 52.3131 32.7838 50.1858 29.9562M59.5021 36.2916C56.512 41.8253 56.7587 47.6395 56.7587 47.6395M59.5021 36.2916C60.1956 35.0081 60.5225 33.5175 60.8802 31.8864C61.1434 30.6859 61.4233 29.4094 61.8783 28.0834C65.2562 18.2399 68.9851 14.1353 71.9771 12.8147M71.9771 12.8147C73.9399 11.9484 75.5857 12.2802 76.6073 12.9759C73.5249 7.16796 58.3824 -4.79699 47.0752 10.9569C44.0954 15.1086 45.5745 23.8269 50.1858 29.9562M71.9771 12.8147C69.5227 15.7414 66.6623 24.0771 68.5761 35.7183C69.3342 40.3296 69.3948 52.7475 59.0856 51.4548C56.9902 51.2032 56.6613 48.8064 56.7587 47.6395M50.1858 29.9562C50.4143 30.2767 50.7437 30.6966 51.137 31.198C53.1407 33.7526 56.8023 38.4207 57.2176 42.814C56.6727 45.6129 56.7587 47.6395 56.7587 47.6395" stroke="#758672" stroke-width="0.5" stroke-linecap="round" stroke-linejoin="round"/>
<path d="M42.5 31.2562C28.218 18.1388 15.8333 32.94 14 39.2544C14.8583 38.365 16.4018 37.7047 18.5 38.1525C21.4996 40.5173 25.9996 48.0946 26.4997 59.8814C26.6978 64.5505 29.1706 76.7198 38.9996 73.3522C40.9996 72.6786 40.833 70.2651 40.4996 69.1426C40.4996 69.1426 40.1706 67.141 39.0665 64.512C38.4812 59.2655 42.3638 52.6867 43.3287 50.4905C46.5933 43.5497 46.2637 34.713 42.5 31.2562Z" fill="#FFFAED"/>
<path d="M35.5 58.5924C33.8672 56.6567 33.1885 53.8844 31.5 51.0413C26.186 42.0933 21.6985 38.8353 18.5 38.1525M35.5 58.5924C38.5517 56.9118 41.8227 53.6925 43.3287 50.4905M35.5 58.5924C39.5556 63.4002 40.4996 69.1426 40.4996 69.1426C40.833 70.2651 40.9996 72.6786 38.9996 73.3522C29.1706 76.7198 26.6978 64.5505 26.4997 59.8814C25.9996 48.0946 21.4996 40.5173 18.5 38.1525M18.5 38.1525C16.4018 37.7047 14.8583 38.365 14 39.2544C15.8333 32.94 28.218 18.1388 42.5 31.2562C46.2637 34.713 46.5933 43.5497 43.3287 50.4905M43.3287 50.4905C42.3638 52.6867 38.4812 59.2655 39.0665 64.512" stroke="#758672" stroke-width="0.5" stroke-linecap="round" stroke-linejoin="round"/>
<path d="M32.5567 45.4566C32.2013 49.3867 33.5931 60.4463 34.3334 65.4849C35.2217 69.5158 37.0873 75.159 37.4426 65.4849C37.7979 55.8109 36.4062 48.1019 35.6659 45.4566C34.9891 43.0382 32.912 41.5265 32.5567 45.4566Z" fill="#F5CF6C" stroke="#EEB648" stroke-linecap="round" stroke-linejoin="round"/>
<path fill-rule="evenodd" clip-rule="evenodd" d="M35.5 58.5924C38.5517 56.9118 41.8227 53.6924 43.3287 50.4905C43.1704 50.8508 42.9335 51.3292 42.6507 51.9002C41.21 54.8097 38.5772 60.1263 39.0665 64.512C40.1706 67.141 40.4996 69.1426 40.4996 69.1426C40.833 70.2651 40.9996 72.6786 38.9996 73.3522C29.1706 76.7198 26.6978 64.5505 26.4997 59.8814C25.9996 48.0946 21.4996 40.5173 18.5 38.1525C21.6985 38.8353 26.186 42.0933 31.5 51.0413C32.2158 52.2466 32.7502 53.4392 33.2526 54.5608C33.9354 56.0847 34.5594 57.4774 35.5 58.5924Z" fill="#EDF5D7"/>
<path d="M35.5 58.5924C38.5517 56.9118 41.8227 53.6925 43.3287 50.4905M35.5 58.5924C39.5556 63.4002 40.4996 69.1426 40.4996 69.1426M35.5 58.5924C34.5594 57.4774 33.9354 56.0847 33.2526 54.5608C32.7502 53.4392 32.2158 52.2466 31.5 51.0413C26.186 42.0933 21.6985 38.8353 18.5 38.1525M18.5 38.1525C16.4018 37.7047 14.8583 38.365 14 39.2544C15.8333 32.94 28.218 18.1388 42.5 31.2562C46.2637 34.713 46.5933 43.5497 43.3287 50.4905M18.5 38.1525C21.4996 40.5173 25.9996 48.0946 26.4997 59.8814C26.6978 64.5505 29.1706 76.7198 38.9996 73.3522C40.9996 72.6786 40.833 70.2651 40.4996 69.1426M43.3287 50.4905C43.1704 50.8508 42.9335 51.3292 42.6507 51.9002C41.21 54.8097 38.5772 60.1263 39.0665 64.512C40.1706 67.141 40.4996 69.1426 40.4996 69.1426" stroke="#758672" stroke-width="0.5" stroke-linecap="round" stroke-linejoin="round"/>
<path d="M112.5 39.2562C98.218 26.1388 85.8333 40.94 84 47.2544C84.8583 46.365 86.4018 45.7047 88.5 46.1525C91.4996 48.5173 95.9996 56.0946 96.4997 67.8814C96.6978 72.5505 99.1706 84.7198 109 81.3522C111 80.6786 110.833 78.2651 110.5 77.1426C110.5 77.1426 110.171 75.141 109.066 72.512C108.481 67.2655 112.364 60.6867 113.329 58.4905C116.593 51.5497 116.264 42.713 112.5 39.2562Z" fill="#FFFAED"/>
<path d="M105.5 66.5924C103.867 64.6567 103.188 61.8844 101.5 59.0413C96.186 50.0933 91.6985 46.8353 88.5 46.1525M105.5 66.5924C108.552 64.9118 111.823 61.6925 113.329 58.4905M105.5 66.5924C109.556 71.4002 110.5 77.1426 110.5 77.1426C110.833 78.2651 111 80.6786 109 81.3522C99.1706 84.7198 96.6978 72.5505 96.4997 67.8814C95.9996 56.0946 91.4996 48.5173 88.5 46.1525M88.5 46.1525C86.4018 45.7047 84.8583 46.365 84 47.2544C85.8333 40.94 98.218 26.1388 112.5 39.2562C116.264 42.713 116.593 51.5497 113.329 58.4905M113.329 58.4905C112.364 60.6867 108.481 67.2655 109.066 72.512" stroke="#758672" stroke-width="0.5" stroke-linecap="round" stroke-linejoin="round"/>
<path d="M102.557 53.4566C102.201 57.3867 103.593 68.4463 104.333 73.4849C105.222 77.5158 107.087 83.159 107.443 73.4849C107.798 63.8109 106.406 56.1019 105.666 53.4566C104.989 51.0382 102.912 49.5265 102.557 53.4566Z" fill="#F5CF6C" stroke="#EEB648" stroke-linecap="round" stroke-linejoin="round"/>
<path fill-rule="evenodd" clip-rule="evenodd" d="M105.5 66.5924C108.552 64.9118 111.823 61.6924 113.329 58.4905C113.17 58.8508 112.934 59.3292 112.651 59.9002C111.21 62.8097 108.577 68.1263 109.066 72.512C110.171 75.141 110.5 77.1426 110.5 77.1426C110.833 78.2651 111 80.6786 109 81.3522C99.1706 84.7198 96.6978 72.5505 96.4997 67.8814C95.9996 56.0946 91.4996 48.5173 88.5 46.1525C91.6985 46.8353 96.186 50.0933 101.5 59.0413C102.216 60.2466 102.75 61.4392 103.253 62.5608C103.935 64.0847 104.559 65.4774 105.5 66.5924Z" fill="#EDF5D7"/>
<path d="M105.5 66.5924C108.552 64.9118 111.823 61.6925 113.329 58.4905M105.5 66.5924C109.556 71.4002 110.5 77.1426 110.5 77.1426M105.5 66.5924C104.559 65.4774 103.935 64.0847 103.253 62.5608C102.75 61.4392 102.216 60.2466 101.5 59.0413C96.186 50.0933 91.6985 46.8353 88.5 46.1525M88.5 46.1525C86.4018 45.7047 84.8583 46.365 84 47.2544C85.8333 40.94 98.218 26.1388 112.5 39.2562C116.264 42.713 116.593 51.5497 113.329 58.4905M88.5 46.1525C91.4996 48.5173 95.9996 56.0946 96.4997 67.8814C96.6978 72.5505 99.1706 84.7198 109 81.3522C111 80.6786 110.833 78.2651 110.5 77.1426M113.329 58.4905C113.17 58.8508 112.934 59.3292 112.651 59.9002C111.21 62.8097 108.577 68.1263 109.066 72.512C110.171 75.141 110.5 77.1426 110.5 77.1426" stroke="#758672" stroke-width="0.5" stroke-linecap="round" stroke-linejoin="round"/>
<path d="M99.6019 69.0275C90.0027 52.1784 73.6928 62.4957 70.0205 67.9497C71.1092 67.3646 72.7806 67.2066 74.6421 68.2732C76.7773 71.4404 78.7511 80.0293 75.6314 91.4068C74.3957 95.9137 73.038 108.257 83.4258 108.049C85.536 108.018 86.1136 105.668 86.1386 104.498C86.1386 104.498 86.4358 102.491 86.1864 99.6505C87.2296 94.4755 92.9342 89.3949 94.5232 87.5977C99.7496 81.9838 102.132 73.4678 99.6019 69.0275Z" fill="#FFFAED"/>
<path d="M84.5959 92.925C83.6315 90.5835 83.8309 87.7363 83.0903 84.5136C80.7594 74.371 77.4799 69.8992 74.6421 68.2732M84.5959 92.925C88.0148 92.2556 92.112 90.1876 94.5231 87.5977M84.5959 92.925C86.9914 98.7409 86.1386 104.498 86.1386 104.498C86.1136 105.668 85.536 108.018 83.4258 108.049C73.038 108.257 74.3957 95.9137 75.6314 91.4068C78.7511 80.0293 76.7773 71.4404 74.6421 68.2732M74.6421 68.2732C72.7806 67.2066 71.1092 67.3646 70.0205 67.9497C73.6928 62.4957 90.0027 52.1784 99.6019 69.0275C102.132 73.4678 99.7496 81.9838 94.5231 87.5977M94.5231 87.5977C92.9342 89.3949 87.2296 94.4755 86.1864 99.6505" stroke="#758672" stroke-width="0.5" stroke-linecap="round" stroke-linejoin="round"/>
<path d="M85.8004 79.5174C84.263 83.1517 82.2143 94.1087 81.3822 99.1329C80.9985 103.243 81.0534 109.186 84.3432 100.081C87.6329 90.977 88.6594 83.211 88.7614 80.466C88.8546 77.9564 87.3378 75.8831 85.8004 79.5174Z" fill="#F5CF6C" stroke="#EEB648" stroke-linecap="round" stroke-linejoin="round"/>
<path fill-rule="evenodd" clip-rule="evenodd" d="M84.5959 92.925C88.0148 92.2556 92.112 90.1876 94.5232 87.5977C94.2624 87.8926 93.8909 88.2759 93.4474 88.7334C91.1878 91.0646 87.0585 95.3246 86.1864 99.6505C86.4358 102.491 86.1386 104.498 86.1386 104.498C86.1136 105.668 85.536 108.018 83.4258 108.049C73.038 108.257 74.3957 95.9137 75.6314 91.4068C78.7511 80.0293 76.7773 71.4404 74.6421 68.2732C77.4799 69.8992 80.7594 74.371 83.0903 84.5136C83.4043 85.8798 83.5493 87.1786 83.6857 88.4C83.871 90.0595 84.0403 91.5762 84.5959 92.925Z" fill="#EDF5D7"/>
<path d="M84.5959 92.925C88.0148 92.2556 92.112 90.1876 94.5231 87.5977M84.5959 92.925C86.9914 98.7409 86.1386 104.498 86.1386 104.498M84.5959 92.925C84.0403 91.5762 83.871 90.0595 83.6857 88.4C83.5493 87.1786 83.4043 85.8798 83.0903 84.5136C80.7594 74.371 77.4799 69.8992 74.6421 68.2732M74.6421 68.2732C72.7806 67.2066 71.1092 67.3646 70.0205 67.9497C73.6928 62.4957 90.0027 52.1784 99.6019 69.0275C102.132 73.4678 99.7496 81.9838 94.5231 87.5977M74.6421 68.2732C76.7773 71.4404 78.7511 80.0293 75.6314 91.4068C74.3957 95.9137 73.038 108.257 83.4258 108.049C85.536 108.018 86.1136 105.668 86.1386 104.498M94.5231 87.5977C94.2624 87.8926 93.8909 88.2759 93.4474 88.7334C91.1878 91.0646 87.0585 95.3246 86.1864 99.6505C86.4358 102.491 86.1386 104.498 86.1386 104.498" stroke="#758672" stroke-width="0.5" stroke-linecap="round" stroke-linejoin="round"/>
<g opacity="0.8">
<path d="M63.0721 185.419C63.0721 185.419 157.806 170.138 167.279 54C132.543 54 110.439 69.2813 73.715 102.9C50.441 124.206 31.4942 130.406 6.23198 136.519C11.1956 148.529 31.4943 179.306 47.2832 185.419C49.4346 186.198 55.6042 187.288 63.0721 185.419Z" fill="#ECB8D7"/>
<path d="M3.0742 54C-0.0835843 102.9 -0.0835662 121.238 6.23198 136.519C31.4942 130.406 50.441 124.206 73.715 102.9C59.4933 102.9 20.6954 70.3 3.0742 54Z" fill="#ECB8D7"/>
<path fill-rule="evenodd" clip-rule="evenodd" d="M47.2832 185.419C40.9676 198.663 31.1574 219.165 16 226.5C-2.94671 235.669 82.0188 246.544 85.1766 234.319C88.3344 222.094 63.0721 185.419 63.0721 185.419C63.0721 185.419 157.806 170.138 167.279 54C132.543 54 110.439 69.2813 73.715 102.9C59.4933 102.9 20.6954 70.3 3.0742 54C-0.0835843 102.9 -0.0835662 121.238 6.23198 136.519C11.1956 148.529 31.4943 179.306 47.2832 185.419Z" fill="#ECB8D7"/>
<path d="M47.2832 185.419C31.4943 179.306 11.1956 148.529 6.23198 136.519M47.2832 185.419C49.4346 186.198 55.6042 187.288 63.0721 185.419M47.2832 185.419C40.9676 198.663 31.1574 219.165 16 226.5C-2.94671 235.669 82.0188 246.544 85.1766 234.319C88.3344 222.094 63.0721 185.419 63.0721 185.419M47.2832 185.419C49.9346 186.049 56.8042 186.931 63.0721 185.419M63.0721 185.419C63.0721 185.419 157.806 170.138 167.279 54C132.543 54 110.439 69.2813 73.715 102.9M6.23198 136.519C-0.0835662 121.238 -0.0835843 102.9 3.0742 54C20.6954 70.3 59.4933 102.9 73.715 102.9M6.23198 136.519C31.4942 130.406 50.441 124.206 73.715 102.9" stroke="#A56A8D" stroke-linecap="round" stroke-linejoin="round"/>
</g>
<path d="M57.0303 179.473L69.3045 181.001C69.3045 181.001 103.362 160.819 107.708 172.894C110.499 180.648 102.286 190.903 102.286 190.903C102.286 190.903 105.064 206.733 96.0032 211.076C89.1639 214.355 82.0848 209.012 76.7708 202.953C83.0266 214.391 83.2099 223.243 82.1466 226.932L64.5801 226.736C70.1385 221.674 65.164 199.974 61.982 189.756C63.2172 201.197 47.8334 218.993 39.9871 226.46L25.816 216.696C37.0271 214.259 50.5065 197.211 55.8449 188.992C55.8449 188.992 24.6335 213.603 18.593 200.604C14.5274 191.855 21.8704 181.428 21.8704 181.428C21.8704 181.428 17.1806 169.027 21.788 162.195C28.9628 151.554 57.0303 179.473 57.0303 179.473Z" fill="#ECB8D7"/>
<path d="M68.1191 190.52L69.3045 181.001M68.1191 190.52L61.982 189.756M68.1191 190.52C68.1191 190.52 71.6138 197.074 76.7708 202.953M55.8449 188.992L57.0303 179.473M55.8449 188.992C55.8449 188.992 24.6335 213.603 18.593 200.604C14.5274 191.855 21.8704 181.428 21.8704 181.428C21.8704 181.428 17.1806 169.027 21.788 162.195C28.9628 151.554 57.0303 179.473 57.0303 179.473M55.8449 188.992C50.5065 197.211 37.0271 214.259 25.816 216.696L39.9871 226.46C47.8334 218.993 63.2172 201.197 61.982 189.756M55.8449 188.992L61.982 189.756M57.0303 179.473L69.3045 181.001M69.3045 181.001C69.3045 181.001 103.362 160.819 107.708 172.894C110.499 180.648 102.286 190.903 102.286 190.903C102.286 190.903 105.064 206.733 96.0032 211.076C89.1639 214.355 82.0848 209.012 76.7708 202.953M61.982 189.756C65.164 199.974 70.1385 221.674 64.5801 226.736L82.1466 226.932C83.2099 223.243 83.0266 214.391 76.7708 202.953" stroke="#A56A8D" stroke-linecap="round" stroke-linejoin="round"/>
<path d="M57.5666 177.365L68.7965 178.059C68.7965 178.059 98.0304 161.982 101.364 172.271C103.505 178.878 95.376 188.22 95.376 188.22C95.376 188.22 97.2864 201.629 89.537 205.042C83.6873 207.618 77.8694 202.926 73.5576 197.678C78.5168 207.482 78.4312 214.943 77.4355 218.022L62.6444 217.38C67.4635 213.267 63.8619 194.854 61.4587 186.161C62.1889 195.832 48.7484 210.404 41.9369 216.481L30.2653 207.872C39.7746 206.124 51.5907 192.13 56.31 185.351C56.31 185.351 29.3531 205.235 24.6175 194.122C21.4303 186.642 27.8981 178.059 27.8981 178.059C27.8981 178.059 24.2841 167.486 28.3502 161.856C34.6821 153.088 57.5666 177.365 57.5666 177.365Z" fill="#CF83B1"/>
<path d="M66.6073 186.971L68.7965 178.059M66.6073 186.971L61.4587 186.161M66.6073 186.971C66.6073 186.971 69.3733 192.586 73.5576 197.678M56.31 185.351L57.5666 177.365M56.31 185.351C56.31 185.351 29.3531 205.235 24.6175 194.122C21.4303 186.642 27.8981 178.059 27.8981 178.059C27.8981 178.059 24.2841 167.486 28.3502 161.856C34.6821 153.088 57.5666 177.365 57.5666 177.365M56.31 185.351C51.5907 192.13 39.7746 206.124 30.2653 207.872L41.9369 216.481C48.7484 210.404 62.1889 195.832 61.4587 186.161M56.31 185.351L61.4587 186.161M57.5666 177.365L68.7965 178.059M68.7965 178.059C68.7965 178.059 98.0304 161.982 101.364 172.271C103.505 178.878 95.376 188.22 95.376 188.22C95.376 188.22 97.2864 201.629 89.537 205.042C83.6873 207.618 77.8694 202.926 73.5576 197.678M61.4587 186.161C63.8619 194.854 67.4635 213.267 62.6444 217.38L77.4355 218.022C78.4312 214.943 78.5168 207.482 73.5576 197.678" stroke="#A56A8D" stroke-linecap="round" stroke-linejoin="round"/>
<defs>
<linearGradient id="paint0_linear_41_5033" x1="85.25" y1="47" x2="85.25" y2="182.5" gradientUnits="userSpaceOnUse">
<stop stop-color="#FCDC8A"/>
<stop offset="0.296875" stop-color="#B0C17E"/>
<stop offset="0.979167" stop-color="#AABF7D"/>
</linearGradient>
</defs>
</svg>
