<svg width="181" height="244" viewBox="0 0 181 244" fill="none" xmlns="http://www.w3.org/2000/svg">
<path d="M180.07 57.7352L143.427 120.658L74.2848 161.439L23 101L1 35.593C76.7276 -12.0961 151.57 30.1374 180.07 57.7352Z" fill="#E1B493" stroke="#A78268" stroke-linecap="round" stroke-linejoin="round"/>
<path d="M142.18 82.0895C164.329 85.2044 145.265 104.05 132.964 113.084C83.1216 154.062 43.7915 122.231 30.3568 101.193C25.5403 87.6435 22.2163 57.6414 47.4526 46.026C78.9979 31.5066 76.0371 63.9688 91.4267 60.3252C106.816 56.6817 114.495 78.196 142.18 82.0895Z" fill="#5E7959"/>
<path d="M25.5 86.5L70.5 170M60.5 64.5L73 164.5M73 50.5L75.5 159.5M93.5 88.5L80 170M123.5 72.5L86 164.5M132 110.5L88 170M163.5 61L96 153.5M120 50.5L88 153.5M93.5 28.5L80 153.5M34.5 42L68 159.5" stroke="#398A2C" stroke-width="0.5" stroke-linecap="round" stroke-linejoin="round"/>
<path d="M80.8859 47.0657C82.4673 54.1086 75.4383 49.6148 71.6851 49.8964L70.4809 48.6547C70.9487 48.55 79.4331 40.5956 80.8859 47.0657Z" fill="#748BDE" stroke="#485686" stroke-width="0.1" stroke-linecap="round" stroke-linejoin="round"/>
<path d="M72.7298 41.1644C65.466 39.9513 68.2101 45.7474 68.8558 48.8476L72.7298 49.252C72.7298 48.8476 79.1006 42.2284 72.7298 41.1644Z" fill="#6C80C6" stroke="#485686" stroke-width="0.1" stroke-linecap="round" stroke-linejoin="round"/>
<path d="M76.075 56.142C69.1624 58.3654 70.6907 52.2648 70.698 49.118L74.434 48.1714C74.5161 48.5699 82.1378 54.192 76.075 56.142Z" fill="#6C80C6" stroke="#485686" stroke-width="0.1" stroke-linecap="round" stroke-linejoin="round"/>
<path d="M62.5089 45.7969C60.6012 51.774 67.3292 49.8969 71.2032 48.6837L72.1693 47.4701C71.686 47.4446 64.182 40.5545 62.5089 45.7969Z" fill="#748BDE" stroke="#485686" stroke-width="0.1" stroke-linecap="round" stroke-linejoin="round"/>
<path d="M63.9311 53.8984C67.4975 58.5195 70.4172 53.2224 71.9917 50.0965L70.7136 48.1251C70.3745 48.4138 60.8031 49.8454 63.9311 53.8984Z" fill="#748BDE" stroke="#485686" stroke-width="0.1" stroke-linecap="round" stroke-linejoin="round"/>
<ellipse cx="71.6851" cy="48.6832" rx="2.90553" ry="2.42627" fill="#9BAFF3"/>
<path d="M71.6855 47.3157C72.661 47.3159 73.3719 47.9682 73.3721 48.6829C73.3721 49.3977 72.6611 50.0508 71.6855 50.051C70.7097 50.051 69.998 49.3978 69.998 48.6829C69.9983 47.968 70.7099 47.3157 71.6855 47.3157Z" fill="#FCDC8A" stroke="#9BAFF3" stroke-width="0.5"/>
<path d="M130.253 78.6768C124.814 83.4223 125.416 75.1013 123.381 71.9355L123.899 70.2852C124.214 70.6466 135.249 74.3173 130.253 78.6768Z" fill="#748BDE" stroke="#485686" stroke-width="0.1" stroke-linecap="round" stroke-linejoin="round"/>
<path d="M131.556 68.6945C129.162 61.73 125.373 66.9038 122.955 68.9484L124.445 72.5473C124.8 72.3546 133.655 74.8028 131.556 68.6945Z" fill="#6C80C6" stroke="#485686" stroke-width="0.1" stroke-linecap="round" stroke-linejoin="round"/>
<path d="M119.98 78.7706C114.733 73.7519 120.825 72.1896 123.595 70.6969L126.207 73.5308C125.896 73.7928 124.583 83.1724 119.98 78.7706Z" fill="#6C80C6" stroke="#485686" stroke-width="0.1" stroke-linecap="round" stroke-linejoin="round"/>
<path d="M122.614 61.9146C116.45 63.0847 121.305 68.1059 124.217 70.9342L125.745 71.2055C125.537 70.7684 128.02 60.8883 122.614 61.9146Z" fill="#748BDE" stroke="#485686" stroke-width="0.1" stroke-linecap="round" stroke-linejoin="round"/>
<path d="M116.168 67.0244C113.804 72.3615 119.852 72.4052 123.351 72.3005L124.475 70.2375C124.06 70.0769 118.242 62.3434 116.168 67.0244Z" fill="#748BDE" stroke="#485686" stroke-width="0.1" stroke-linecap="round" stroke-linejoin="round"/>
<ellipse cx="124.447" cy="71.3576" rx="2.90553" ry="2.42627" transform="rotate(61.551 124.447 71.3576)" fill="#9BAFF3"/>
<path d="M125.65 70.7065C126.114 71.5643 125.88 72.5 125.251 72.8407C124.623 73.1812 123.71 72.8672 123.245 72.0096C122.78 71.1516 123.015 70.2147 123.644 69.8741C124.273 69.5338 125.185 69.8487 125.65 70.7065Z" fill="#FCDC8A" stroke="#9BAFF3" stroke-width="0.5"/>
<path d="M34.0542 89.615C30.5853 95.945 28.2816 87.9266 25.2792 85.6569L25.1964 83.9292C25.6166 84.1599 37.2411 83.7998 34.0542 89.615Z" fill="#748BDE" stroke="#485686" stroke-width="0.1" stroke-linecap="round" stroke-linejoin="round"/>
<path d="M31.8352 79.7955C27.1867 74.0836 25.4143 80.2467 23.8495 82.9998L26.4891 85.8641C26.7564 85.5607 35.9123 84.8052 31.8352 79.7955Z" fill="#6C80C6" stroke="#485686" stroke-width="0.1" stroke-linecap="round" stroke-linejoin="round"/>
<path d="M24.4446 93.2453C17.788 90.3441 22.9675 86.7768 25.053 84.4204L28.4821 86.1797C28.2802 86.533 30.2829 95.7898 24.4446 93.2453Z" fill="#6C80C6" stroke="#485686" stroke-width="0.1" stroke-linecap="round" stroke-linejoin="round"/>
<path d="M21.1037 76.5151C15.7212 79.7391 22.0104 82.778 25.7193 84.4286L27.2464 84.1565C26.9006 83.8179 25.8245 73.6875 21.1037 76.5151Z" fill="#748BDE" stroke="#485686" stroke-width="0.1" stroke-linecap="round" stroke-linejoin="round"/>
<path d="M16.8155 83.5343C16.4369 89.3593 22.1293 87.3146 25.377 86.0098L25.7211 83.6857C25.2758 83.6781 17.1475 78.4254 16.8155 83.5343Z" fill="#748BDE" stroke="#485686" stroke-width="0.1" stroke-linecap="round" stroke-linejoin="round"/>
<ellipse cx="26.0811" cy="84.7466" rx="2.90553" ry="2.42627" transform="rotate(41.3787 26.0811 84.7466)" fill="#9BAFF3"/>
<path d="M26.9855 83.7208C27.7172 84.3657 27.8195 85.3251 27.3472 85.8615C26.8747 86.3979 25.9095 86.418 25.1773 85.7733C24.4451 85.1282 24.3429 84.1676 24.8155 83.6312C25.2882 83.0949 26.2534 83.0758 26.9855 83.7208Z" fill="#FCDC8A" stroke="#9BAFF3" stroke-width="0.5"/>
<path d="M43.7211 46.0356C40.2521 52.3656 37.9485 44.3473 34.946 42.0776L34.8633 40.3499C35.2834 40.5805 46.9079 40.2204 43.7211 46.0356Z" fill="#748BDE" stroke="#485686" stroke-width="0.1" stroke-linecap="round" stroke-linejoin="round"/>
<path d="M41.5021 36.2162C36.8536 30.5043 35.0812 36.6673 33.5163 39.4204L36.1559 42.2847C36.4232 41.9813 45.5791 41.2258 41.5021 36.2162Z" fill="#6C80C6" stroke="#485686" stroke-width="0.1" stroke-linecap="round" stroke-linejoin="round"/>
<path d="M34.1115 49.666C27.4548 46.7648 32.6343 43.1975 34.7199 40.8411L38.149 42.6004C37.9471 42.9536 39.9497 52.2105 34.1115 49.666Z" fill="#6C80C6" stroke="#485686" stroke-width="0.1" stroke-linecap="round" stroke-linejoin="round"/>
<path d="M30.7705 32.9358C25.388 36.1598 31.6773 39.1986 35.3861 40.8492L36.9133 40.5772C36.5675 40.2386 35.4913 30.1081 30.7705 32.9358Z" fill="#748BDE" stroke="#485686" stroke-width="0.1" stroke-linecap="round" stroke-linejoin="round"/>
<path d="M26.4824 39.9549C26.1038 45.7799 31.7961 43.7352 35.0439 42.4305L35.388 40.1063C34.9427 40.0988 26.8144 34.846 26.4824 39.9549Z" fill="#748BDE" stroke="#485686" stroke-width="0.1" stroke-linecap="round" stroke-linejoin="round"/>
<ellipse cx="35.748" cy="41.1672" rx="2.90553" ry="2.42627" transform="rotate(41.3787 35.748 41.1672)" fill="#9BAFF3"/>
<path d="M36.6523 40.1414C37.3841 40.7864 37.4863 41.7457 37.0141 42.2822C36.5415 42.8185 35.5763 42.8386 34.8442 42.1939C34.112 41.5489 34.0097 40.5883 34.4823 40.0518C34.955 39.5156 35.9202 39.4965 36.6523 40.1414Z" fill="#FCDC8A" stroke="#9BAFF3" stroke-width="0.5"/>
<path d="M101.721 32.0356C98.2521 38.3656 95.9485 30.3473 92.946 28.0776L92.8633 26.3499C93.2834 26.5805 104.908 26.2204 101.721 32.0356Z" fill="#748BDE" stroke="#485686" stroke-width="0.1" stroke-linecap="round" stroke-linejoin="round"/>
<path d="M99.5021 22.2162C94.8536 16.5043 93.0812 22.6673 91.5163 25.4204L94.1559 28.2847C94.4232 27.9813 103.579 27.2258 99.5021 22.2162Z" fill="#6C80C6" stroke="#485686" stroke-width="0.1" stroke-linecap="round" stroke-linejoin="round"/>
<path d="M92.1115 35.666C85.4549 32.7648 90.6344 29.1975 92.7199 26.8411L96.149 28.6004C95.9472 28.9536 97.9498 38.2105 92.1115 35.666Z" fill="#6C80C6" stroke="#485686" stroke-width="0.1" stroke-linecap="round" stroke-linejoin="round"/>
<path d="M88.7705 18.9358C83.388 22.1598 89.6773 25.1986 93.3861 26.8492L94.9133 26.5772C94.5675 26.2386 93.4913 16.1081 88.7705 18.9358Z" fill="#748BDE" stroke="#485686" stroke-width="0.1" stroke-linecap="round" stroke-linejoin="round"/>
<path d="M84.4824 25.9549C84.1038 31.7799 89.7962 29.7352 93.0439 28.4305L93.388 26.1063C92.9427 26.0988 84.8144 20.846 84.4824 25.9549Z" fill="#748BDE" stroke="#485686" stroke-width="0.1" stroke-linecap="round" stroke-linejoin="round"/>
<ellipse cx="93.748" cy="27.1672" rx="2.90553" ry="2.42627" transform="rotate(41.3787 93.748 27.1672)" fill="#9BAFF3"/>
<path d="M94.6523 26.1414C95.3841 26.7864 95.4863 27.7457 95.0141 28.2822C94.5415 28.8185 93.5763 28.8386 92.8442 28.1939C92.112 27.5489 92.0097 26.5883 92.4823 26.0518C92.955 25.5156 93.9202 25.4965 94.6523 26.1414Z" fill="#FCDC8A" stroke="#9BAFF3" stroke-width="0.5"/>
<path d="M173.255 60.7213C172.96 67.9335 167.334 61.7736 163.635 61.0742L162.794 59.5632C163.273 59.5831 173.527 54.0957 173.255 60.7213Z" fill="#748BDE" stroke="#485686" stroke-width="0.1" stroke-linecap="round" stroke-linejoin="round"/>
<path d="M166.905 52.9102C160.202 49.8583 161.353 56.1672 161.174 59.3289L164.811 60.7222C164.916 60.3316 172.783 55.5868 166.905 52.9102Z" fill="#6C80C6" stroke="#485686" stroke-width="0.1" stroke-linecap="round" stroke-linejoin="round"/>
<path d="M166.259 68.2432C159.007 68.6017 162.062 63.1046 162.883 60.0669L166.737 60.1194C166.713 60.5256 172.62 67.9288 166.259 68.2432Z" fill="#6C80C6" stroke="#485686" stroke-width="0.1" stroke-linecap="round" stroke-linejoin="round"/>
<path d="M155.833 54.7394C152.443 60.0191 159.428 59.9473 163.484 59.7781L164.731 58.8559C164.271 58.7062 158.806 50.1087 155.833 54.7394Z" fill="#748BDE" stroke="#485686" stroke-width="0.1" stroke-linecap="round" stroke-linejoin="round"/>
<path d="M155.11 62.9329C157.359 68.3196 161.55 63.9587 163.88 61.3468L163.155 59.1118C162.753 59.3028 153.137 58.2085 155.11 62.9329Z" fill="#748BDE" stroke="#485686" stroke-width="0.1" stroke-linecap="round" stroke-linejoin="round"/>
<ellipse cx="163.949" cy="59.9024" rx="2.90553" ry="2.42627" transform="rotate(15 163.949 59.9024)" fill="#9BAFF3"/>
<path d="M164.304 58.5816C165.246 58.8342 165.764 59.6483 165.579 60.3387C165.394 61.0291 164.538 61.476 163.596 61.2237C162.653 60.9712 162.135 60.156 162.32 59.4654C162.505 58.775 163.361 58.329 164.304 58.5816Z" fill="#FCDC8A" stroke="#9BAFF3" stroke-width="0.5"/>
<path d="M122.646 109.747C122.941 116.959 128.568 110.799 132.266 110.1L133.108 108.589C132.629 108.609 122.375 103.121 122.646 109.747Z" fill="#748BDE" stroke="#485686" stroke-width="0.1" stroke-linecap="round" stroke-linejoin="round"/>
<path d="M128.997 101.936C135.699 98.8841 134.549 105.193 134.727 108.355L131.09 109.748C130.985 109.357 123.118 104.613 128.997 101.936Z" fill="#6C80C6" stroke="#485686" stroke-width="0.1" stroke-linecap="round" stroke-linejoin="round"/>
<path d="M129.642 117.269C136.895 117.627 133.839 112.13 133.018 109.093L129.164 109.145C129.188 109.551 123.281 116.955 129.642 117.269Z" fill="#6C80C6" stroke="#485686" stroke-width="0.1" stroke-linecap="round" stroke-linejoin="round"/>
<path d="M140.068 103.765C143.458 109.045 136.474 108.973 132.418 108.804L131.17 107.882C131.63 107.732 137.096 99.1345 140.068 103.765Z" fill="#748BDE" stroke="#485686" stroke-width="0.1" stroke-linecap="round" stroke-linejoin="round"/>
<path d="M140.792 111.959C138.543 117.345 134.351 112.984 132.022 110.373L132.746 108.138C133.148 108.329 142.764 107.234 140.792 111.959Z" fill="#748BDE" stroke="#485686" stroke-width="0.1" stroke-linecap="round" stroke-linejoin="round"/>
<ellipse cx="2.90553" cy="2.42627" rx="2.90553" ry="2.42627" transform="matrix(-0.965926 0.258819 0.258819 0.965926 134.131 105.833)" fill="#9BAFF3"/>
<path d="M131.598 107.607C130.655 107.86 130.138 108.674 130.322 109.364C130.507 110.055 131.363 110.502 132.306 110.249C133.248 109.997 133.766 109.182 133.581 108.491C133.396 107.801 132.54 107.355 131.598 107.607Z" fill="#FCDC8A" stroke="#9BAFF3" stroke-width="0.5"/>
<path d="M50.646 63.7471C50.9413 70.9593 56.5677 64.7993 60.266 64.0999L61.1077 62.5889C60.6288 62.6089 50.3747 57.1215 50.646 63.7471Z" fill="#748BDE" stroke="#485686" stroke-width="0.1" stroke-linecap="round" stroke-linejoin="round"/>
<path d="M56.9968 55.9359C63.6991 52.8841 62.5487 59.1929 62.7274 62.3546L59.09 63.7479C58.9854 63.3573 51.1185 58.6125 56.9968 55.9359Z" fill="#6C80C6" stroke="#485686" stroke-width="0.1" stroke-linecap="round" stroke-linejoin="round"/>
<path d="M57.6421 71.269C64.8946 71.6274 61.8394 66.1303 61.0179 63.0927L57.1642 63.1452C57.1881 63.5514 51.2812 70.9546 57.6421 71.269Z" fill="#6C80C6" stroke="#485686" stroke-width="0.1" stroke-linecap="round" stroke-linejoin="round"/>
<path d="M68.0685 57.7651C71.4581 63.0449 64.4736 62.973 60.4175 62.8039L59.1703 61.8817C59.6305 61.732 65.0956 53.1345 68.0685 57.7651Z" fill="#748BDE" stroke="#485686" stroke-width="0.1" stroke-linecap="round" stroke-linejoin="round"/>
<path d="M68.7915 65.9587C66.5426 71.3453 62.3514 66.9844 60.0215 64.3725L60.7459 62.1375C61.1482 62.3286 70.7639 61.2342 68.7915 65.9587Z" fill="#748BDE" stroke="#485686" stroke-width="0.1" stroke-linecap="round" stroke-linejoin="round"/>
<ellipse cx="2.90553" cy="2.42627" rx="2.90553" ry="2.42627" transform="matrix(-0.965926 0.258819 0.258819 0.965926 62.1306 59.8325)" fill="#9BAFF3"/>
<path d="M59.5976 61.6073C58.6555 61.86 58.1376 62.674 58.3224 63.3644C58.5074 64.0549 59.3632 64.5018 60.3055 64.2495C61.2481 63.9969 61.7665 63.1818 61.5814 62.4912C61.3962 61.8008 60.54 61.3548 59.5976 61.6073Z" fill="#FCDC8A" stroke="#9BAFF3" stroke-width="0.5"/>
<path d="M83.646 88.782C83.9413 81.5698 89.5677 87.7297 93.266 88.4291L94.1077 89.9401C93.6288 89.9202 83.3747 95.4076 83.646 88.782Z" fill="#748BDE" stroke="#485686" stroke-width="0.1" stroke-linecap="round" stroke-linejoin="round"/>
<path d="M89.9968 96.5931C96.6991 99.6449 95.5487 93.3361 95.7274 90.1744L92.09 88.7811C91.9854 89.1717 84.1185 93.9165 89.9968 96.5931Z" fill="#6C80C6" stroke="#485686" stroke-width="0.1" stroke-linecap="round" stroke-linejoin="round"/>
<path d="M90.6421 81.2601C97.8946 80.9016 94.8394 86.3987 94.0179 89.4364L90.1642 89.3839C90.1881 88.9777 84.2812 81.5745 90.6421 81.2601Z" fill="#6C80C6" stroke="#485686" stroke-width="0.1" stroke-linecap="round" stroke-linejoin="round"/>
<path d="M101.068 94.7639C104.458 89.4842 97.4736 89.556 93.4175 89.7252L92.1703 90.6474C92.6305 90.7971 98.0956 99.3946 101.068 94.7639Z" fill="#748BDE" stroke="#485686" stroke-width="0.1" stroke-linecap="round" stroke-linejoin="round"/>
<path d="M101.792 86.5704C99.5426 81.1837 95.3514 85.5446 93.0215 88.1565L93.7459 90.3915C94.1482 90.2005 103.764 91.2948 101.792 86.5704Z" fill="#748BDE" stroke="#485686" stroke-width="0.1" stroke-linecap="round" stroke-linejoin="round"/>
<ellipse cx="92.952" cy="89.6009" rx="2.90553" ry="2.42627" transform="rotate(-165 92.952 89.6009)" fill="#9BAFF3"/>
<path d="M92.5976 90.9217C91.6555 90.6691 91.1376 89.855 91.3224 89.1646C91.5074 88.4741 92.3632 88.0273 93.3055 88.2796C94.2481 88.5321 94.7665 89.3473 94.5814 90.0379C94.3962 90.7283 93.54 91.1742 92.5976 90.9217Z" fill="#FCDC8A" stroke="#9BAFF3" stroke-width="0.5"/>
<path d="M110.897 54.1731C109.316 47.1302 116.345 51.624 120.098 51.3424L121.302 52.5841C120.835 52.6887 112.35 60.6431 110.897 54.1731Z" fill="#748BDE" stroke="#485686" stroke-width="0.1" stroke-linecap="round" stroke-linejoin="round"/>
<path d="M119.053 60.0744C126.317 61.2875 123.573 55.4914 122.928 52.3912L119.053 51.9868C119.053 52.3912 112.683 59.0104 119.053 60.0744Z" fill="#6C80C6" stroke="#485686" stroke-width="0.1" stroke-linecap="round" stroke-linejoin="round"/>
<path d="M115.708 45.0968C122.621 42.8734 121.093 48.974 121.085 52.1207L117.349 53.0674C117.267 52.6689 109.646 47.0468 115.708 45.0968Z" fill="#6C80C6" stroke="#485686" stroke-width="0.1" stroke-linecap="round" stroke-linejoin="round"/>
<path d="M129.274 55.4419C131.182 49.4647 124.454 51.3419 120.58 52.555L119.614 53.7687C120.097 53.7942 127.601 60.6842 129.274 55.4419Z" fill="#748BDE" stroke="#485686" stroke-width="0.1" stroke-linecap="round" stroke-linejoin="round"/>
<path d="M127.852 47.3404C124.286 42.7193 121.366 48.0164 119.792 51.1423L121.07 53.1137C121.409 52.825 130.98 51.3933 127.852 47.3404Z" fill="#748BDE" stroke="#485686" stroke-width="0.1" stroke-linecap="round" stroke-linejoin="round"/>
<ellipse cx="120.098" cy="52.5555" rx="2.90553" ry="2.42627" transform="rotate(-180 120.098 52.5555)" fill="#9BAFF3"/>
<path d="M120.098 53.9231C119.122 53.9229 118.411 53.2706 118.411 52.5559C118.411 51.8411 119.122 51.188 120.098 51.1877C121.074 51.1877 121.785 51.841 121.785 52.5559C121.785 53.2707 121.073 53.9231 120.098 53.9231Z" fill="#FCDC8A" stroke="#9BAFF3" stroke-width="0.5"/>
<path d="M33.5 60.5L67.5 173.5M61.5 88L70 161.5M100.5 51.5L77.5 161.5M137 81L83 166M142.5 51.5L88.5 149.5M52 26L73 138" stroke="#829F7E" stroke-linecap="round" stroke-linejoin="round"/>
<path d="M40.4175 43.7546C36.8175 36.9546 27.5842 40.9213 23.4175 43.7546C19.3212 45.1939 13.3863 48.7364 12.2078 54.0012C11.6122 56.6621 12.2316 59.763 14.9175 63.2546C24.9175 76.2546 21.4175 68.2546 31.9175 73.7546C38.5758 77.2423 40.2077 72.6877 41.913 67.7405C42.8969 64.8861 43.9052 61.9011 45.9175 60.2546C51.4175 55.7546 44.9175 52.2546 40.4175 43.7546Z" fill="#EE8E48"/>
<path d="M12.2078 54.0012C15.0412 56.3345 22.6175 60.6546 29.4175 58.2546C36.2175 55.8546 40.5841 63.588 41.9175 67.7546M23.4175 43.7546C27.5842 40.9213 36.8175 36.9546 40.4175 43.7546C44.9175 52.2546 51.4175 55.7546 45.9175 60.2546C40.4175 64.7546 42.4175 79.2546 31.9175 73.7546C21.4175 68.2546 24.9175 76.2546 14.9175 63.2546C6.91748 52.8546 17.2508 45.9213 23.4175 43.7546Z" stroke="#AF5E24" stroke-width="0.5" stroke-linecap="round" stroke-linejoin="round"/>
<path d="M30.4175 51.7546C29.1681 51.7546 27.3898 52.3886 25.9116 53.3835C25.1792 53.8766 24.5456 54.4423 24.1001 55.032C23.653 55.6237 23.4175 56.2087 23.4175 56.7546C23.4175 57.8311 24.3587 58.8297 25.8589 59.5945C27.3227 60.3407 29.1204 60.7546 30.4175 60.7546C32.9028 60.7546 34.9175 58.7399 34.9175 56.2546C34.9175 53.7694 32.9028 51.7546 30.4175 51.7546Z" fill="#262925" stroke="#191A18"/>
<path d="M29.6234 54.5C29.0974 54.5001 28.2967 54.7877 27.6136 55.2666C27.2795 55.5009 26.9985 55.7646 26.8051 56.0312C26.6103 56.2997 26.5238 56.5433 26.5238 56.75C26.5238 57.1466 26.864 57.5811 27.5609 57.9512C28.228 58.3054 29.0481 58.4999 29.6234 58.5C30.6537 58.5 31.5238 57.624 31.5238 56.5C31.5238 55.376 30.6537 54.5 29.6234 54.5Z" fill="#A78268" stroke="#76563F"/>
<path fill-rule="evenodd" clip-rule="evenodd" d="M14.9175 63.2546C12.2316 59.763 11.6122 56.6621 12.2078 54.0012C15.0412 56.3345 22.6175 60.6546 29.4175 58.2546C33.0525 56.9717 35.9921 58.5844 38.1448 61C40.0146 63.0982 41.2907 65.8022 41.913 67.7405C40.2077 72.6877 38.5758 77.2423 31.9175 73.7546C27.8683 71.6336 25.9012 71.5203 24.4389 71.436C22.1093 71.3018 21.0611 71.2414 14.9175 63.2546Z" fill="#E37526"/>
<path d="M23.4175 43.7546C27.5842 40.9213 36.8175 36.9546 40.4175 43.7546C44.9175 52.2546 51.4175 55.7546 45.9175 60.2546C43.9052 61.9011 42.8969 64.8861 41.913 67.7405M23.4175 43.7546C17.2508 45.9213 6.91748 52.8546 14.9175 63.2546M23.4175 43.7546C19.3212 45.1939 13.3863 48.7364 12.2078 54.0012M14.9175 63.2546C12.2316 59.763 11.6122 56.6621 12.2078 54.0012M14.9175 63.2546C21.0611 71.2414 22.1093 71.3018 24.4389 71.436C25.9012 71.5203 27.8683 71.6336 31.9175 73.7546C38.5758 77.2423 40.2077 72.6877 41.913 67.7405M12.2078 54.0012C15.0412 56.3345 22.6175 60.6546 29.4175 58.2546C33.0525 56.9717 35.9921 58.5844 38.1448 61C40.0146 63.0982 41.2907 65.8022 41.913 67.7405M41.9175 67.7546C41.916 67.7499 41.9145 67.7452 41.913 67.7405" stroke="#AF5E24" stroke-width="0.5" stroke-linecap="round" stroke-linejoin="round"/>
<path d="M39.6063 4.75463C43.2063 -2.04537 52.4396 1.9213 56.6063 4.75463C60.7026 6.19388 66.6375 9.73641 67.816 15.0012C68.4116 17.6621 67.7922 20.763 65.1063 24.2546C55.1063 37.2546 58.6063 29.2546 48.1063 34.7546C41.448 38.2423 39.8161 33.6877 38.1108 28.7405C37.1269 25.8861 36.1186 22.9011 34.1063 21.2546C28.6063 16.7546 35.1063 13.2546 39.6063 4.75463Z" fill="#EE8E48"/>
<path d="M67.816 15.0012C64.9826 17.3345 57.4063 21.6546 50.6063 19.2546C43.8063 16.8546 39.4397 24.588 38.1063 28.7546M56.6063 4.75463C52.4396 1.9213 43.2063 -2.04537 39.6063 4.75463C35.1063 13.2546 28.6063 16.7546 34.1063 21.2546C39.6063 25.7546 37.6063 40.2546 48.1063 34.7546C58.6063 29.2546 55.1063 37.2546 65.1063 24.2546C73.1063 13.8546 62.773 6.9213 56.6063 4.75463Z" stroke="#AF5E24" stroke-width="0.5" stroke-linecap="round" stroke-linejoin="round"/>
<path d="M49.6063 12.7546C50.8557 12.7546 52.6341 13.3886 54.1122 14.3835C54.8446 14.8766 55.4782 15.4423 55.9237 16.032C56.3708 16.6237 56.6063 17.2087 56.6063 17.7546C56.6063 18.8311 55.6651 19.8297 54.1649 20.5945C52.7011 21.3407 50.9034 21.7546 49.6063 21.7546C47.121 21.7546 45.1063 19.7399 45.1063 17.2546C45.1063 14.7694 47.121 12.7546 49.6063 12.7546Z" fill="#262925" stroke="#191A18"/>
<path d="M50.4004 15.5C50.9264 15.5001 51.7271 15.7877 52.4102 16.2666C52.7443 16.5009 53.0253 16.7646 53.2188 17.0312C53.4135 17.2997 53.5 17.5433 53.5 17.75C53.5 18.1466 53.1598 18.5811 52.4629 18.9512C51.7958 19.3054 50.9757 19.4999 50.4004 19.5C49.3701 19.5 48.5 18.624 48.5 17.5C48.5 16.376 49.3701 15.5 50.4004 15.5Z" fill="#A78268" stroke="#76563F"/>
<path fill-rule="evenodd" clip-rule="evenodd" d="M65.1063 24.2546C67.7922 20.763 68.4116 17.6621 67.816 15.0012C64.9826 17.3345 57.4063 21.6546 50.6063 19.2546C46.9713 17.9717 44.0317 19.5844 41.879 22C40.0092 24.0982 38.7331 26.8022 38.1108 28.7405C39.8161 33.6877 41.448 38.2423 48.1063 34.7546C52.1555 32.6336 54.1226 32.5203 55.5849 32.436C57.9145 32.3018 58.9627 32.2414 65.1063 24.2546Z" fill="#E37526"/>
<path d="M56.6063 4.75463C52.4396 1.9213 43.2063 -2.04537 39.6063 4.75463C35.1063 13.2546 28.6063 16.7546 34.1063 21.2546C36.1186 22.9011 37.1269 25.8861 38.1108 28.7405M56.6063 4.75463C62.773 6.9213 73.1063 13.8546 65.1063 24.2546M56.6063 4.75463C60.7026 6.19388 66.6375 9.73641 67.816 15.0012M65.1063 24.2546C67.7922 20.763 68.4116 17.6621 67.816 15.0012M65.1063 24.2546C58.9627 32.2414 57.9145 32.3018 55.5849 32.436C54.1226 32.5203 52.1555 32.6336 48.1063 34.7546C41.448 38.2423 39.8161 33.6877 38.1108 28.7405M67.816 15.0012C64.9826 17.3345 57.4063 21.6546 50.6063 19.2546C46.9713 17.9717 44.0317 19.5844 41.879 22C40.0092 24.0982 38.7331 26.8022 38.1108 28.7405M38.1063 28.7546C38.1078 28.7499 38.1093 28.7452 38.1108 28.7405" stroke="#AF5E24" stroke-width="0.5" stroke-linecap="round" stroke-linejoin="round"/>
<path d="M73.1334 74.6144C71.7959 67.0374 61.7905 67.9765 56.9551 69.3932C52.6147 69.5048 45.8787 71.0534 43.1402 75.7018C41.7561 78.0512 41.3932 81.1924 42.8769 85.3402C48.401 100.783 47.5271 92.0949 55.8305 100.554C61.0958 105.918 64.0477 102.085 67.1899 97.9003C69.0029 95.4861 70.8793 92.9549 73.3 92.0061C79.9163 89.4128 74.8054 84.0856 73.1334 74.6144Z" fill="#EE8E48"/>
<path d="M43.1402 75.7018C45.12 78.7926 51.0033 85.2307 58.2117 85.0352C65.4202 84.8396 67.2007 93.5403 67.1899 97.9151M56.9551 69.3932C61.7905 67.9765 71.7959 67.0374 73.1334 74.6144C74.8054 84.0856 79.9163 89.4128 73.3 92.0061C66.6838 94.5994 64.1338 109.013 55.8305 100.554C47.5271 92.0949 48.401 100.783 42.8769 85.3402C38.4577 72.9858 50.421 69.5612 56.9551 69.3932Z" stroke="#AF5E24" stroke-width="0.5" stroke-linecap="round" stroke-linejoin="round"/>
<path d="M61.1597 79.1565C59.9707 78.7728 58.0836 78.83 56.3714 79.3228C55.523 79.5671 54.7462 79.9109 54.1411 80.3352C53.5339 80.761 53.1301 81.2454 52.9624 81.765C52.6318 82.7894 53.2208 84.0288 54.4137 85.2174C55.5776 86.3771 57.1613 87.3232 58.3956 87.7215C60.7608 88.4848 63.2969 87.1863 64.0602 84.8211C64.8235 82.4559 63.5249 79.9198 61.1597 79.1565Z" fill="#262925" stroke="#191A18"/>
<path d="M59.5608 81.5252C59.0602 81.3638 58.2099 81.3915 57.4128 81.6375C57.0228 81.7579 56.6744 81.9226 56.4084 82.1169C56.1406 82.3126 55.9835 82.5178 55.92 82.7145C55.7982 83.0919 55.9885 83.6099 56.5381 84.1762C57.0641 84.7181 57.7848 85.1551 58.3323 85.3319C59.3128 85.6483 60.4099 85.0819 60.7551 84.0122C61.1003 82.9426 60.5413 81.8417 59.5608 81.5252Z" fill="#A78268" stroke="#76563F"/>
<path fill-rule="evenodd" clip-rule="evenodd" d="M42.8769 85.3402C41.3932 81.1924 41.7561 78.0512 43.1402 75.7018C45.12 78.7926 51.0033 85.2307 58.2117 85.0352C62.0651 84.9307 64.3674 87.3683 65.6741 90.3283C66.8091 92.8993 67.1931 95.8645 67.1899 97.9003C64.0477 102.085 61.0958 105.918 55.8305 100.554C52.6284 97.2918 50.7911 96.5798 49.4254 96.0505C47.2496 95.2072 46.2707 94.8278 42.8769 85.3402Z" fill="#E37526"/>
<path d="M56.9551 69.3932C61.7905 67.9765 71.7959 67.0374 73.1334 74.6144C74.8054 84.0856 79.9163 89.4128 73.3 92.0061C70.8793 92.9549 69.0029 95.4861 67.1899 97.9003M56.9551 69.3932C50.421 69.5612 38.4577 72.9858 42.8769 85.3402M56.9551 69.3932C52.6147 69.5048 45.8787 71.0534 43.1402 75.7018M42.8769 85.3402C41.3932 81.1924 41.7561 78.0512 43.1402 75.7018M42.8769 85.3402C46.2707 94.8278 47.2496 95.2072 49.4254 96.0505C50.7911 96.5798 52.6284 97.2918 55.8305 100.554C61.0958 105.918 64.0477 102.085 67.1899 97.9003M43.1402 75.7018C45.12 78.7926 51.0033 85.2307 58.2117 85.0352C62.0651 84.9307 64.3674 87.3683 65.6741 90.3283C66.8091 92.8993 67.1931 95.8645 67.1899 97.9003M67.1899 97.9151C67.1899 97.9102 67.1899 97.9053 67.1899 97.9003" stroke="#AF5E24" stroke-width="0.5" stroke-linecap="round" stroke-linejoin="round"/>
<path d="M92.0416 31.8605C95.7361 25.1114 104.913 29.2066 109.04 32.0978C113.116 33.5941 119.001 37.2191 120.105 42.4999C120.664 45.1688 120.001 48.2608 117.267 51.7146C107.086 64.5737 110.698 56.6233 100.122 61.9762C93.4155 65.3706 91.8474 60.7936 90.2114 55.8231C89.2674 52.9553 88.3009 49.9564 86.3117 48.2821C80.8751 43.7057 87.4233 40.2968 92.0416 31.8605Z" fill="#EE8E48"/>
<path d="M120.105 42.4999C117.24 44.7934 109.604 49.0073 102.838 46.5126C96.0722 44.0179 91.598 51.6895 90.2067 55.8372M109.04 32.0978C104.913 29.2066 95.7361 25.1114 92.0416 31.8605C87.4233 40.2968 80.8751 43.7057 86.3117 48.2821C91.7484 52.8584 89.5462 67.3291 100.122 61.9762C110.698 56.6233 107.086 64.5737 117.267 51.7146C125.411 41.4273 115.176 34.3503 109.04 32.0978Z" stroke="#AF5E24" stroke-width="0.5" stroke-linecap="round" stroke-linejoin="round"/>
<path d="M101.929 39.9993C103.178 40.0168 104.948 40.6755 106.412 41.691C107.137 42.1942 107.763 42.7687 108.2 43.3645C108.639 43.9625 108.866 44.5507 108.858 45.0966C108.843 46.1729 107.888 47.1583 106.378 47.902C104.904 48.6277 103.1 49.0166 101.803 48.9984C99.3182 48.9637 97.3319 46.9211 97.3665 44.4361C97.4012 41.951 99.4439 39.9646 101.929 39.9993Z" fill="#262925" stroke="#191A18"/>
<path d="M102.685 42.7555C103.21 42.763 104.007 43.0617 104.683 43.5501C105.014 43.7891 105.292 44.0567 105.481 44.326C105.672 44.5971 105.755 44.8419 105.752 45.0486C105.747 45.4451 105.401 45.8748 104.699 46.2351C104.027 46.58 103.204 46.7631 102.629 46.7551C101.599 46.7407 100.741 45.8527 100.756 44.7288C100.772 43.6049 101.654 42.7411 102.685 42.7555Z" fill="#A78268" stroke="#76563F"/>
<path fill-rule="evenodd" clip-rule="evenodd" d="M117.267 51.7146C120.001 48.2608 120.664 45.1688 120.105 42.4999C117.24 44.7934 109.604 49.0073 102.838 46.5126C99.2213 45.179 96.2594 46.7505 94.0732 49.1359C92.1743 51.2078 90.8606 53.8936 90.2114 55.8231C91.8474 60.7936 93.4155 65.3706 100.122 61.9762C104.2 59.9119 106.169 59.8261 107.632 59.7622C109.963 59.6605 111.012 59.6148 117.267 51.7146Z" fill="#E37526"/>
<path d="M109.04 32.0978C104.913 29.2066 95.7361 25.1114 92.0416 31.8605C87.4233 40.2968 80.8751 43.7057 86.3117 48.2821C88.3009 49.9564 89.2674 52.9553 90.2114 55.8231M109.04 32.0978C115.176 34.3503 125.411 41.4273 117.267 51.7146M109.04 32.0978C113.116 33.5941 119.001 37.2191 120.105 42.4999M117.267 51.7146C120.001 48.2608 120.664 45.1688 120.105 42.4999M117.267 51.7146C111.012 59.6148 109.963 59.6605 107.632 59.7622C106.169 59.8261 104.2 59.9119 100.122 61.9762C93.4155 65.3706 91.8474 60.7936 90.2114 55.8231M120.105 42.4999C117.24 44.7934 109.604 49.0073 102.838 46.5126C99.2213 45.179 96.2594 46.7505 94.0732 49.1359C92.1743 51.2078 90.8606 53.8936 90.2114 55.8231M90.2067 55.8372C90.2082 55.8325 90.2098 55.8278 90.2114 55.8231" stroke="#AF5E24" stroke-width="0.5" stroke-linecap="round" stroke-linejoin="round"/>
<path d="M161.18 36.5549C159.265 29.103 149.361 30.8075 144.648 32.5912C140.329 33.0357 133.732 35.0968 131.359 39.9418C130.159 42.3905 130.038 45.5503 131.836 49.5719C138.529 64.5452 136.991 55.9496 145.919 63.7462C151.581 68.6902 154.23 64.6416 157.042 60.2284C158.664 57.6821 160.34 55.0144 162.681 53.8825C169.079 50.7889 163.574 45.8699 161.18 36.5549Z" fill="#EE8E48"/>
<path d="M131.359 39.9418C133.57 42.8714 139.93 48.8389 147.102 48.0905C154.274 47.3422 156.718 55.8805 157.043 60.2432M144.648 32.5912C149.361 30.8075 159.265 29.103 161.18 36.5549C163.574 45.8699 169.079 50.7889 162.681 53.8825C156.284 56.9761 154.848 71.5428 145.919 63.7462C136.991 55.9496 138.529 64.5452 131.836 49.5719C126.481 37.5933 138.147 33.2604 144.648 32.5912Z" stroke="#AF5E24" stroke-width="0.5" stroke-linecap="round" stroke-linejoin="round"/>
<path d="M149.59 42.0028C148.375 41.7115 146.498 41.9134 144.829 42.5362C144.002 42.8449 143.254 43.2473 142.683 43.7169C142.11 44.188 141.745 44.702 141.617 45.2329C141.366 46.2797 142.049 47.4702 143.329 48.5637C144.579 49.6306 146.231 50.4523 147.492 50.7547C149.909 51.3342 152.338 49.8448 152.917 47.428C153.496 45.0112 152.007 42.5823 149.59 42.0028Z" fill="#262925" stroke="#191A18"/>
<path d="M148.178 44.4873C147.666 44.3648 146.821 44.4577 146.045 44.7642C145.665 44.9142 145.331 45.1051 145.08 45.3193C144.828 45.5349 144.687 45.7516 144.639 45.9526C144.547 46.3383 144.776 46.8401 145.368 47.3625C145.934 47.8625 146.686 48.2429 147.245 48.3771C148.247 48.6173 149.298 47.9683 149.56 46.8753C149.822 45.7823 149.18 44.7276 148.178 44.4873Z" fill="#A78268" stroke="#76563F"/>
<path fill-rule="evenodd" clip-rule="evenodd" d="M131.836 49.5719C130.038 45.5503 130.159 42.3905 131.359 39.9418C133.57 42.8714 139.93 48.8389 147.102 48.0905C150.936 47.6905 153.419 49.9441 154.949 52.7951C156.278 55.2714 156.888 58.1984 157.042 60.2284C154.23 64.6416 151.581 68.6902 145.919 63.7462C142.476 60.7396 140.59 60.1707 139.188 59.7478C136.953 59.0741 135.948 58.771 131.836 49.5719Z" fill="#E37526"/>
<path d="M144.648 32.5912C149.361 30.8075 159.265 29.103 161.18 36.5549C163.574 45.8699 169.079 50.7889 162.681 53.8825C160.34 55.0144 158.664 57.6821 157.042 60.2284M144.648 32.5912C138.147 33.2604 126.481 37.5933 131.836 49.5719M144.648 32.5912C140.329 33.0357 133.732 35.0968 131.359 39.9418M131.836 49.5719C130.038 45.5503 130.159 42.3905 131.359 39.9418M131.836 49.5719C135.948 58.771 136.953 59.0741 139.188 59.7478C140.59 60.1707 142.476 60.7396 145.919 63.7462C151.581 68.6902 154.23 64.6416 157.042 60.2284M131.359 39.9418C133.57 42.8714 139.93 48.8389 147.102 48.0905C150.936 47.6905 153.419 49.9441 154.949 52.7951C156.278 55.2714 156.888 58.1984 157.042 60.2284M157.043 60.2432C157.042 60.2383 157.042 60.2333 157.042 60.2284" stroke="#AF5E24" stroke-width="0.5" stroke-linecap="round" stroke-linejoin="round"/>
<path d="M136.101 61.244C141.591 55.8535 149.19 62.43 152.303 66.3921C155.771 69.0043 160.354 74.1778 159.883 79.5522C159.645 82.2686 158.116 85.0363 154.499 87.5506C141.031 96.9118 146.79 90.3474 135.117 92.4094C127.715 93.7169 127.539 88.882 127.412 83.6507C127.339 80.6324 127.282 77.4821 125.863 75.3036C121.984 69.3493 129.238 67.9821 136.101 61.244Z" fill="#EE8E48"/>
<path d="M159.883 79.5522C156.476 80.918 147.948 82.7408 142.194 78.3943C136.44 74.0477 129.936 80.0955 127.404 83.6628M152.303 66.3921C149.19 62.43 141.591 55.8535 136.101 61.244C129.238 67.9821 121.984 69.3493 125.863 75.3036C129.742 81.2579 123.445 94.4713 135.117 92.4094C146.79 90.3474 141.031 96.9118 154.499 87.5506C165.272 80.0616 157.524 70.3245 152.303 66.3921Z" stroke="#AF5E24" stroke-width="0.5" stroke-linecap="round" stroke-linejoin="round"/>
<path d="M143.209 71.8967C144.4 72.2751 145.903 73.4178 147.01 74.8136C147.559 75.5053 147.991 76.2364 148.237 76.9333C148.484 77.6326 148.531 78.2615 148.366 78.7818C148.04 79.8077 146.841 80.4744 145.179 80.7489C143.558 81.0168 141.72 80.8669 140.484 80.4741C138.115 79.7215 136.805 77.1912 137.558 74.8226C138.31 72.4541 140.84 71.1441 143.209 71.8967Z" fill="#262925" stroke="#191A18"/>
<path d="M143.134 74.7536C143.636 74.913 144.312 75.4295 144.818 76.0928C145.065 76.4174 145.253 76.7538 145.357 77.0665C145.461 77.3813 145.47 77.6396 145.407 77.8366C145.287 78.2146 144.831 78.5256 144.055 78.6673C143.312 78.8029 142.471 78.7399 141.923 78.5658C140.941 78.2538 140.377 77.1554 140.718 76.0842C141.058 75.013 142.153 74.4416 143.134 74.7536Z" fill="#A78268" stroke="#76563F"/>
<path fill-rule="evenodd" clip-rule="evenodd" d="M154.499 87.5506C158.116 85.0363 159.645 82.2686 159.883 79.5522C156.476 80.918 147.948 82.7408 142.194 78.3943C139.118 76.0708 135.828 76.7175 133.045 78.3678C130.627 79.8012 128.592 81.9918 127.412 83.6507C127.539 88.882 127.715 93.7169 135.117 92.4094C139.618 91.6142 141.528 92.1019 142.947 92.4644C145.208 93.0419 146.225 93.3018 154.499 87.5506Z" fill="#E37526"/>
<path d="M152.303 66.3921C149.19 62.43 141.591 55.8535 136.101 61.244C129.238 67.9821 121.984 69.3493 125.863 75.3036C127.282 77.4821 127.339 80.6324 127.412 83.6507M152.303 66.3921C157.524 70.3245 165.272 80.0616 154.499 87.5506M152.303 66.3921C155.771 69.0043 160.354 74.1778 159.883 79.5522M154.499 87.5506C158.116 85.0363 159.645 82.2686 159.883 79.5522M154.499 87.5506C146.225 93.3018 145.208 93.0419 142.947 92.4644C141.528 92.1019 139.618 91.6142 135.117 92.4094C127.715 93.7169 127.539 88.882 127.412 83.6507M159.883 79.5522C156.476 80.918 147.948 82.7408 142.194 78.3943C139.118 76.0708 135.828 76.7175 133.045 78.3678C130.627 79.8012 128.592 81.9918 127.412 83.6507M127.404 83.6628C127.407 83.6587 127.409 83.6547 127.412 83.6507" stroke="#AF5E24" stroke-width="0.5" stroke-linecap="round" stroke-linejoin="round"/>
<path d="M16.2911 100.683L71.8881 184.461L145.694 119.805C145.694 119.805 120.588 131.34 113.343 115.025C106.099 98.7092 95.6025 94.3077 80.9927 110.244C66.3829 126.18 61.3447 128.153 48.6419 105.463C35.9391 82.7735 16.2911 100.683 16.2911 100.683Z" fill="#E0CEC1" stroke="#A78268" stroke-linecap="round" stroke-linejoin="round"/>
<path d="M131.218 149.745L73.2008 189.486L100.683 236.759C99.645 236.009 98.6271 235.343 97.629 234.755C81.0025 224.954 69.8878 236.477 65.5669 231.791C60.9866 226.824 56.4063 221.856 48.0091 229.307C42.5541 234.148 36.7768 231.651 33.3981 229.307C31.5759 228.043 30.4513 226.824 30.4513 226.824L73.2008 189.486L24.3442 133.186C24.3442 133.186 38.0851 148.089 51.0626 137.326C64.0402 126.563 70.1472 129.874 77.7811 141.465C85.4149 153.056 94.3408 156.623 104.499 145.605C114.658 134.587 131.218 149.745 131.218 149.745Z" fill="#E0CEC1"/>
<path d="M73.2008 189.486L131.218 149.745C131.218 149.745 114.658 134.587 104.499 145.605C94.3408 156.623 85.4149 153.056 77.7811 141.465C70.1472 129.874 64.0402 126.563 51.0626 137.326C38.0851 148.089 24.3442 133.186 24.3442 133.186L73.2008 189.486ZM73.2008 189.486L30.4513 226.824C30.4513 226.824 31.5759 228.043 33.3981 229.307C36.7768 231.651 42.5541 234.148 48.0091 229.307C56.4063 221.856 60.9866 226.824 65.5669 231.791C69.8878 236.477 81.0025 224.954 97.629 234.755C98.6271 235.343 99.645 236.009 100.683 236.759L73.2008 189.486Z" stroke="#A78268" stroke-linecap="round" stroke-linejoin="round"/>
<path d="M48.0091 229.307C56.4063 221.856 60.9866 226.824 65.5669 231.791C69.8878 236.477 81.0024 224.954 97.629 234.755V243.382C97.629 243.382 88.4684 243.382 84.2945 239.627C77.7395 233.728 73.2007 233.447 62.5133 238.415C51.826 243.382 51.826 233.447 43.4419 237.84C37.6231 240.889 27.3977 233.447 27.3977 233.447L33.3981 229.307C36.7768 231.651 42.554 234.148 48.0091 229.307Z" fill="#E1B493"/>
<path d="M30.4512 226.824C30.4512 226.824 31.5758 228.043 33.3981 229.307M100.682 236.759C99.645 236.009 98.627 235.343 97.629 234.755M33.3981 229.307C36.7768 231.651 42.554 234.148 48.0091 229.307C56.4063 221.856 60.9866 226.824 65.5669 231.791C69.8878 236.477 81.0024 224.954 97.629 234.755M33.3981 229.307L27.3977 233.447C27.3977 233.447 37.6231 240.889 43.4419 237.84C51.826 233.447 51.826 243.382 62.5133 238.415C73.2007 233.447 77.7395 233.728 84.2945 239.627C88.4684 243.382 97.629 243.382 97.629 243.382V234.755" stroke="#A78268" stroke-linecap="round" stroke-linejoin="round"/>
<path d="M72.9756 185.776C76.0761 186.366 79.0205 187.739 78.2915 191.4C77.9734 192.998 76.4439 193.504 74.6611 193.472C72.3569 193.432 69.6296 192.494 68.5475 191.855C62.7891 188.453 69.8752 185.187 72.9756 185.776Z" fill="#E0CEC1"/>
<path d="M68.5475 191.855C62.7891 188.453 69.8752 185.187 72.9756 185.776C76.0761 186.366 79.0205 187.739 78.2915 191.4C77.9734 192.998 76.4439 193.504 74.6611 193.472M68.5475 191.855C62.0524 197.54 46.0502 207.878 34.0024 203.742M68.5475 191.855C69.6296 192.494 72.3569 193.432 74.6611 193.472M74.6611 193.472C75.8721 198.164 82.5461 208.818 99.5547 213.897M66.3195 187.538C62.3322 180.629 52.3204 167.345 44.1712 169.487C33.9847 172.164 28.2288 184.91 33.9872 188.312C39.7456 191.713 61.8914 193.617 66.3195 187.538ZM78.7214 189.896C85.069 184.951 99.4474 176.305 106.18 181.276C114.597 187.489 115.042 201.415 108.398 202.459C101.755 203.502 80.4941 197.154 78.7214 189.896Z" stroke="#5B371D" stroke-width="0.5" stroke-linecap="round" stroke-linejoin="round"/>
</svg>
