<svg width="170" height="249" viewBox="0 0 170 249" fill="none" xmlns="http://www.w3.org/2000/svg">
<path d="M84.4902 130.919L163.459 103.899L101.449 19L8 93.2092C24.9576 104.364 53.009 119.847 84.4902 130.919Z" fill="#B1A2C0" stroke="#42364E" stroke-linecap="round" stroke-linejoin="round"/>
<path d="M118.964 71.6571C143.419 77.6236 154.396 95.7884 157.077 105.733L84.5774 130.733C57.0774 121.233 42.5774 112.733 17.5774 98.9252C11.689 95.6731 52.2857 59.0612 76.0612 58.2325C80.1728 60.2214 94.5096 65.6906 118.964 71.6571Z" fill="#758672"/>
<path d="M27 83.0903L56.5 162.09M16.5 73.0903L60 157.09M51 92.0903L60 175.09M47.5 59.0903L62.583 167.59M63 170.59L62.583 167.59M79 117.59L62.583 167.59M87 57.0903L63.48 155.09M63 157.09L63.48 155.09M80 44.5903L63.48 155.09M118.5 104.09L68 167.59M123.5 87.5903L66.5 165.09M151.5 83.0903L74 167.59M122 53.5903L74 157.09" stroke="#8BB185" stroke-width="0.5" stroke-linecap="round" stroke-linejoin="round"/>
<path d="M22.0197 76.3582C22.0197 78.1079 24.4123 80.0774 25.6087 81.3791C25.8401 81.565 26.4033 81.8254 26.805 81.3791C28.0014 80.0774 30.394 78.4597 30.394 76.3582C30.394 75.2424 28.0014 73.0109 26.2068 76.3582C24.4123 73.0109 22.0197 75.2424 22.0197 76.3582Z" fill="#8F4FC2" stroke="#583276" stroke-width="0.1" stroke-linecap="round" stroke-linejoin="round"/>
<path d="M22.3632 79.606C22.9405 80.6907 25.0736 81.3544 26.2447 81.8828C26.4495 81.9442 26.8845 81.9744 26.9863 81.6042C27.2984 80.5187 28.2479 78.9587 27.5545 77.656C27.1864 76.9644 24.9669 76.1382 24.9589 78.631C22.742 76.9739 21.9951 78.9144 22.3632 79.606Z" fill="#AC68E1" stroke="#583276" stroke-width="0.1" stroke-linecap="round" stroke-linejoin="round"/>
<path d="M20.1044 85.0023C22.1872 85.0023 24.5315 82.9923 26.081 81.9872C26.3024 81.7928 26.6123 81.3197 26.081 80.9822C24.5315 79.9772 22.6059 77.9671 20.1044 77.9671C18.7762 77.9671 16.12 79.9772 20.1044 81.4847C16.12 82.9923 18.7762 85.0023 20.1044 85.0023Z" fill="#8F4FC2" stroke="#583276" stroke-width="0.1" stroke-linecap="round" stroke-linejoin="round"/>
<path d="M23.9705 85.5368C25.2617 85.0518 26.0517 83.2599 26.6807 82.2761C26.7538 82.104 26.7898 81.7385 26.3491 81.6531C25.0569 81.3908 23.2 80.5932 21.6493 81.1757C20.826 81.485 19.8425 83.3495 22.8099 83.3563C20.8374 85.2186 23.1472 85.8461 23.9705 85.5368Z" fill="#AC68E1" stroke="#583276" stroke-width="0.1" stroke-linecap="round" stroke-linejoin="round"/>
<path d="M22.0197 86.8225C22.0197 85.0727 24.4123 83.1033 25.6087 81.8016C25.8401 81.6156 26.4033 81.3553 26.805 81.8016C28.0014 83.1033 30.394 84.721 30.394 86.8225C30.394 87.9382 28.0014 90.1697 26.2068 86.8225C24.4123 90.1697 22.0197 87.9382 22.0197 86.8225Z" fill="#8F4FC2" stroke="#583276" stroke-width="0.1" stroke-linecap="round" stroke-linejoin="round"/>
<path d="M25.8391 86.1366C25.2617 85.052 26.0952 83.274 26.4073 82.1884C26.4894 82.0193 26.7526 81.7267 27.1489 81.9099C28.32 82.4382 30.337 82.8839 31.0304 84.1866C31.3985 84.8783 30.6516 86.8187 28.4347 85.1616C28.4267 87.6545 26.2072 86.8283 25.8391 86.1366Z" fill="#AC68E1" stroke="#583276" stroke-width="0.1" stroke-linecap="round" stroke-linejoin="round"/>
<path d="M32.8956 85.0024C30.8128 85.0024 28.4685 82.9924 26.919 81.9874C26.6976 81.793 26.3877 81.3198 26.919 80.9823C28.4685 79.9773 30.3941 77.9673 32.8956 77.9673C34.2238 77.9673 36.88 79.9773 32.8956 81.4849C36.88 82.9924 34.2238 85.0024 32.8956 85.0024Z" fill="#8F4FC2" stroke="#583276" stroke-width="0.1" stroke-linecap="round" stroke-linejoin="round"/>
<path d="M31.7442 82.617C30.453 83.102 28.3366 82.4018 27.0444 82.1396C26.843 82.0707 26.4948 81.8495 26.7128 81.5166C27.3417 80.5328 27.8722 78.8383 29.423 78.2558C30.2463 77.9466 32.5561 78.5741 30.5836 80.4364C33.5509 80.4431 32.5675 82.3077 31.7442 82.617Z" fill="#AC68E1" stroke="#583276" stroke-width="0.1" stroke-linecap="round" stroke-linejoin="round"/>
<path d="M26.7128 81.5164C26.4948 81.8493 26.843 82.0705 27.0444 82.1394C27.4634 82.2245 27.969 82.3555 28.505 82.4773C27.9399 82.1314 26.9131 81.2328 27.3272 80.4057C27.1077 80.8091 26.9153 81.1996 26.7128 81.5164Z" fill="#F5CF6C" stroke="#F5CF6C" stroke-width="0.1" stroke-linecap="round" stroke-linejoin="round"/>
<path d="M26.3491 81.6531C26.7898 81.7386 26.7538 82.1041 26.6807 82.2761C26.4768 82.5951 26.2559 82.9991 26.0065 83.4159C26.0765 82.8314 25.964 81.5894 24.9541 81.2972C25.4583 81.4287 25.933 81.5687 26.3491 81.6531Z" fill="#F5CF6C" stroke="#F5CF6C" stroke-width="0.1" stroke-linecap="round" stroke-linejoin="round"/>
<path d="M27.1088 81.9248C26.7186 81.7394 26.464 82.0287 26.3855 82.1965C26.2902 82.5462 26.1421 82.9681 26.0051 83.4154C26.4031 82.9458 27.4412 82.095 28.4093 82.4491C27.9371 82.2617 27.48 82.0972 27.1088 81.9248Z" fill="#F5CF6C" stroke="#F5CF6C" stroke-width="0.1" stroke-linecap="round" stroke-linejoin="round"/>
<path d="M26.9344 81.6237C26.8502 81.9873 26.4398 81.9478 26.2451 81.8826C25.8823 81.705 25.4239 81.511 24.9504 81.293C25.6071 81.3664 26.9956 81.3057 27.2965 80.4749C27.1624 80.8901 27.018 81.2805 26.9344 81.6237Z" fill="#F5CF6C" stroke="#F5CF6C" stroke-width="0.1" stroke-linecap="round" stroke-linejoin="round"/>
<ellipse cx="26.7094" cy="81.9069" rx="0.418719" ry="0.351759" fill="#55794F"/>
<path d="M49.0922 51.1619C47.855 52.3992 48.1543 55.4837 48.0798 57.2501C48.1119 57.5452 48.3261 58.1275 48.9257 58.096C50.6921 58.0215 53.5279 58.5695 55.0138 57.0835C55.8028 56.2946 55.6888 53.0248 52.053 54.1227C53.151 50.4869 49.8812 50.373 49.0922 51.1619Z" fill="#8F4FC2" stroke="#583276" stroke-width="0.1" stroke-linecap="round" stroke-linejoin="round"/>
<path d="M47.0386 53.7015C46.6798 54.8767 47.7188 56.8543 48.1733 58.0561C48.2747 58.2443 48.5609 58.5733 48.8947 58.3835C49.8829 57.8366 51.6574 57.4049 52.0883 55.9935C52.317 55.2441 51.3318 53.0905 49.5634 54.8475C49.1676 52.1082 47.2673 52.9521 47.0386 53.7015Z" fill="#AC68E1" stroke="#583276" stroke-width="0.1" stroke-linecap="round" stroke-linejoin="round"/>
<path d="M41.6256 55.92C43.0984 57.3928 46.1774 57.6292 47.9837 58.0142C48.2777 58.0333 48.8314 57.9178 48.6944 57.3035C48.3094 55.4972 48.3691 52.7143 46.6002 50.9454C45.6611 50.0063 42.3615 49.5493 44.1129 53.4327C40.2295 51.6813 40.6865 54.9809 41.6256 55.92Z" fill="#8F4FC2" stroke="#583276" stroke-width="0.1" stroke-linecap="round" stroke-linejoin="round"/>
<path d="M43.9814 59.0318C45.2373 59.6018 47.0631 58.8934 48.2035 58.6424C48.3768 58.5724 48.6607 58.3394 48.4096 57.9674C47.6813 56.8683 46.9323 54.9912 45.4239 54.3066C44.623 53.9431 42.6091 54.5662 44.7026 56.6692C41.991 56.5912 43.1806 58.6683 43.9814 59.0318Z" fill="#AC68E1" stroke="#583276" stroke-width="0.1" stroke-linecap="round" stroke-linejoin="round"/>
<path d="M41.6929 58.5613C42.9302 57.3241 46.0146 57.6234 47.781 57.5489C48.0762 57.581 48.6585 57.7952 48.627 58.3948C48.5525 60.1612 49.1005 62.9969 47.6145 64.4829C46.8255 65.2719 43.5557 65.1579 44.6537 61.5221C41.0179 62.6201 40.904 59.3503 41.6929 58.5613Z" fill="#8F4FC2" stroke="#583276" stroke-width="0.1" stroke-linecap="round" stroke-linejoin="round"/>
<path d="M44.8786 60.7771C45.2374 59.6019 47.0839 58.934 48.0722 58.3871C48.2499 58.3255 48.6429 58.3048 48.7936 58.7145C49.2481 59.9162 50.3592 61.6576 49.9283 63.069C49.6995 63.8184 47.7992 64.6624 47.4035 61.9231C45.6351 63.6801 44.6498 61.5265 44.8786 60.7771Z" fill="#AC68E1" stroke="#583276" stroke-width="0.1" stroke-linecap="round" stroke-linejoin="round"/>
<path d="M50.6703 64.9649C49.1976 63.4921 48.9612 60.4131 48.5762 58.6067C48.5571 58.3128 48.6726 57.759 49.2868 57.8961C51.0932 58.2811 53.8761 58.2214 55.6449 59.9902C56.5841 60.9294 57.041 64.229 53.1576 62.4775C54.9091 66.361 51.6095 65.904 50.6703 64.9649Z" fill="#8F4FC2" stroke="#583276" stroke-width="0.1" stroke-linecap="round" stroke-linejoin="round"/>
<path d="M51.543 62.4639C50.287 61.8938 49.2855 59.9022 48.5573 58.8031C48.4636 58.6119 48.3738 58.2093 48.7633 58.128C49.9037 57.8771 51.477 57.0541 52.9854 57.7387C53.7863 58.1022 54.9759 60.1792 52.2642 60.1013C54.3577 62.2043 52.3438 62.8273 51.543 62.4639Z" fill="#AC68E1" stroke="#583276" stroke-width="0.1" stroke-linecap="round" stroke-linejoin="round"/>
<path d="M48.7633 58.1281C48.3738 58.2093 48.4636 58.612 48.5573 58.8031C48.7934 59.1595 49.0583 59.6097 49.3512 60.0748C49.1961 59.4306 49.1055 58.0692 49.9832 57.7771C49.5427 57.9071 49.1306 58.0473 48.7633 58.1281Z" fill="#F5CF6C" stroke="#F5CF6C" stroke-width="0.1" stroke-linecap="round" stroke-linejoin="round"/>
<path d="M48.4096 57.9675C48.6607 58.3395 48.3768 58.5725 48.2035 58.6425C47.8337 58.7238 47.3919 58.8533 46.9209 58.9717C47.3836 58.6079 48.1823 57.6501 47.6748 56.7293C47.9383 57.1789 48.175 57.6135 48.4096 57.9675Z" fill="#F5CF6C" stroke="#F5CF6C" stroke-width="0.1" stroke-linecap="round" stroke-linejoin="round"/>
<path d="M48.7546 58.6968C48.6099 58.2898 48.2253 58.3143 48.051 58.3774C47.7364 58.5574 47.3334 58.7509 46.9202 58.9703C47.5337 58.9197 48.8693 59.0522 49.3035 59.9871C49.1021 59.5207 48.8952 59.0812 48.7546 58.6968Z" fill="#F5CF6C" stroke="#F5CF6C" stroke-width="0.1" stroke-linecap="round" stroke-linejoin="round"/>
<path d="M48.8442 58.3606C48.5275 58.5582 48.2653 58.2401 48.1737 58.0563C48.0428 57.6742 47.8559 57.2129 47.6752 56.7239C48.0876 57.2402 49.1124 58.179 49.9125 57.8044C49.5242 58.0031 49.1461 58.1771 48.8442 58.3606Z" fill="#F5CF6C" stroke="#F5CF6C" stroke-width="0.1" stroke-linecap="round" stroke-linejoin="round"/>
<ellipse cx="48.4848" cy="58.4017" rx="0.418719" ry="0.351759" transform="rotate(45 48.4848 58.4017)" fill="#55794F"/>
<path d="M52.613 83.6827C51.3758 84.9199 51.675 88.0044 51.6005 89.7708C51.6327 90.0659 51.8468 90.6483 52.4465 90.6167C54.2128 90.5422 57.0486 91.0902 58.5346 89.6043C59.3235 88.8153 59.2096 85.5455 55.5738 86.6435C56.6717 83.0077 53.402 82.8937 52.613 83.6827Z" fill="#8F4FC2" stroke="#583276" stroke-width="0.1" stroke-linecap="round" stroke-linejoin="round"/>
<path d="M50.5593 86.2223C50.2006 87.3975 51.2395 89.3751 51.694 90.5768C51.7954 90.765 52.0817 91.094 52.4154 90.9042C53.4037 90.3574 55.1781 89.9257 55.609 88.5142C55.8378 87.7648 54.8525 85.6112 53.0842 87.3683C52.6884 84.629 50.7881 85.4729 50.5593 86.2223Z" fill="#AC68E1" stroke="#583276" stroke-width="0.1" stroke-linecap="round" stroke-linejoin="round"/>
<path d="M45.1464 88.4408C46.6191 89.9136 49.6981 90.1499 51.5045 90.5349C51.7985 90.554 52.3522 90.4386 52.2151 89.8243C51.8301 88.018 51.8898 85.235 50.121 83.4662C49.1818 82.527 45.8822 82.0701 47.6337 85.9535C43.7503 84.202 44.2072 87.5016 45.1464 88.4408Z" fill="#8F4FC2" stroke="#583276" stroke-width="0.1" stroke-linecap="round" stroke-linejoin="round"/>
<path d="M47.5022 91.5525C48.7581 92.1225 50.5838 91.4141 51.7242 91.1632C51.8976 91.0932 52.1815 90.8602 51.9303 90.4881C51.202 89.389 50.453 87.512 48.9446 86.8274C48.1437 86.4639 46.1299 87.0869 48.2234 89.1899C45.5117 89.112 46.7013 91.189 47.5022 91.5525Z" fill="#AC68E1" stroke="#583276" stroke-width="0.1" stroke-linecap="round" stroke-linejoin="round"/>
<path d="M45.2137 91.0821C46.4509 89.8448 49.5354 90.1441 51.3018 90.0696C51.5969 90.1017 52.1793 90.3159 52.1477 90.9155C52.0732 92.6819 52.6212 95.5177 51.1352 97.0037C50.3463 97.7926 47.0765 97.6787 48.1745 94.0429C44.5387 95.1408 44.4247 91.871 45.2137 91.0821Z" fill="#8F4FC2" stroke="#583276" stroke-width="0.1" stroke-linecap="round" stroke-linejoin="round"/>
<path d="M48.3994 93.2979C48.7581 92.1227 50.6047 91.4547 51.593 90.9079C51.7706 90.8463 52.1636 90.8256 52.3143 91.2353C52.7688 92.437 53.8799 94.1783 53.4491 95.5898C53.2203 96.3392 51.32 97.1831 50.9242 94.4438C49.1558 96.2009 48.1706 94.0472 48.3994 93.2979Z" fill="#AC68E1" stroke="#583276" stroke-width="0.1" stroke-linecap="round" stroke-linejoin="round"/>
<path d="M54.1911 97.4856C52.7183 96.0128 52.4819 92.9338 52.0969 91.1275C52.0779 90.8335 52.1933 90.2798 52.8076 90.4168C54.6139 90.8018 57.3969 90.7421 59.1657 92.511C60.1048 93.4501 60.5618 96.7497 56.6784 94.9983C58.4298 98.8817 55.1302 98.4247 54.1911 97.4856Z" fill="#8F4FC2" stroke="#583276" stroke-width="0.1" stroke-linecap="round" stroke-linejoin="round"/>
<path d="M55.0637 94.9846C53.8078 94.4146 52.8063 92.4229 52.078 91.3238C51.9844 91.1327 51.8945 90.7301 52.2841 90.6488C53.4245 90.3979 54.9977 89.5748 56.5061 90.2595C57.307 90.623 58.4966 92.7 55.7849 92.622C57.8784 94.725 55.8646 95.3481 55.0637 94.9846Z" fill="#AC68E1" stroke="#583276" stroke-width="0.1" stroke-linecap="round" stroke-linejoin="round"/>
<path d="M52.2841 90.6488C51.8945 90.7301 51.9844 91.1327 52.078 91.3239C52.3142 91.6802 52.579 92.1304 52.8719 92.5956C52.7169 91.9514 52.6262 90.5899 53.5039 90.2979C53.0635 90.4279 52.6513 90.568 52.2841 90.6488Z" fill="#F5CF6C" stroke="#F5CF6C" stroke-width="0.1" stroke-linecap="round" stroke-linejoin="round"/>
<path d="M51.9303 90.4882C52.1815 90.8603 51.8976 91.0932 51.7243 91.1632C51.3545 91.2446 50.9127 91.374 50.4416 91.4924C50.9044 91.1286 51.703 90.1708 51.1956 89.2501C51.4591 89.6996 51.6958 90.1342 51.9303 90.4882Z" fill="#F5CF6C" stroke="#F5CF6C" stroke-width="0.1" stroke-linecap="round" stroke-linejoin="round"/>
<path d="M52.2753 91.2175C52.1306 90.8105 51.746 90.8351 51.5718 90.8982C51.2571 91.0781 50.8541 91.2717 50.4409 91.4911C51.0545 91.4405 52.3901 91.5729 52.8243 92.5079C52.6228 92.0414 52.416 91.6019 52.2753 91.2175Z" fill="#F5CF6C" stroke="#F5CF6C" stroke-width="0.1" stroke-linecap="round" stroke-linejoin="round"/>
<path d="M52.3649 90.8814C52.0483 91.0789 51.786 90.7608 51.6945 90.5771C51.5636 90.1949 51.3766 89.7336 51.196 89.2446C51.6083 89.7609 52.6331 90.6998 53.4333 90.3251C53.0449 90.5238 52.6668 90.6978 52.3649 90.8814Z" fill="#F5CF6C" stroke="#F5CF6C" stroke-width="0.1" stroke-linecap="round" stroke-linejoin="round"/>
<ellipse cx="52.0056" cy="90.9225" rx="0.418719" ry="0.351759" transform="rotate(45 52.0056 90.9225)" fill="#55794F"/>
<path d="M80.613 108.683C79.3758 109.92 79.675 113.004 79.6005 114.771C79.6327 115.066 79.8468 115.648 80.4465 115.617C82.2128 115.542 85.0486 116.09 86.5346 114.604C87.3235 113.815 87.2096 110.546 83.5738 111.643C84.6717 108.008 81.402 107.894 80.613 108.683Z" fill="#8F4FC2" stroke="#583276" stroke-width="0.1" stroke-linecap="round" stroke-linejoin="round"/>
<path d="M78.5593 111.222C78.2006 112.397 79.2395 114.375 79.694 115.577C79.7954 115.765 80.0817 116.094 80.4154 115.904C81.4037 115.357 83.1781 114.926 83.609 113.514C83.8378 112.765 82.8525 110.611 81.0842 112.368C80.6884 109.629 78.7881 110.473 78.5593 111.222Z" fill="#AC68E1" stroke="#583276" stroke-width="0.1" stroke-linecap="round" stroke-linejoin="round"/>
<path d="M73.1464 113.441C74.6191 114.914 77.6981 115.15 79.5045 115.535C79.7985 115.554 80.3522 115.439 80.2151 114.824C79.8301 113.018 79.8898 110.235 78.121 108.466C77.1818 107.527 73.8822 107.07 75.6337 110.953C71.7503 109.202 72.2072 112.502 73.1464 113.441Z" fill="#8F4FC2" stroke="#583276" stroke-width="0.1" stroke-linecap="round" stroke-linejoin="round"/>
<path d="M75.5022 116.553C76.7581 117.123 78.5838 116.414 79.7242 116.163C79.8976 116.093 80.1815 115.86 79.9303 115.488C79.202 114.389 78.453 112.512 76.9446 111.827C76.1437 111.464 74.1299 112.087 76.2234 114.19C73.5117 114.112 74.7013 116.189 75.5022 116.553Z" fill="#AC68E1" stroke="#583276" stroke-width="0.1" stroke-linecap="round" stroke-linejoin="round"/>
<path d="M73.2137 116.082C74.4509 114.845 77.5354 115.144 79.3018 115.07C79.5969 115.102 80.1793 115.316 80.1477 115.916C80.0732 117.682 80.6212 120.518 79.1352 122.004C78.3463 122.793 75.0765 122.679 76.1745 119.043C72.5387 120.141 72.4247 116.871 73.2137 116.082Z" fill="#8F4FC2" stroke="#583276" stroke-width="0.1" stroke-linecap="round" stroke-linejoin="round"/>
<path d="M76.3994 118.298C76.7581 117.123 78.6047 116.455 79.593 115.908C79.7706 115.846 80.1636 115.826 80.3143 116.235C80.7688 117.437 81.8799 119.178 81.4491 120.59C81.2203 121.339 79.32 122.183 78.9242 119.444C77.1558 121.201 76.1706 119.047 76.3994 118.298Z" fill="#AC68E1" stroke="#583276" stroke-width="0.1" stroke-linecap="round" stroke-linejoin="round"/>
<path d="M82.1911 122.486C80.7183 121.013 80.4819 117.934 80.0969 116.127C80.0779 115.834 80.1933 115.28 80.8076 115.417C82.6139 115.802 85.3969 115.742 87.1657 117.511C88.1048 118.45 88.5618 121.75 84.6784 119.998C86.4298 123.882 83.1302 123.425 82.1911 122.486Z" fill="#8F4FC2" stroke="#583276" stroke-width="0.1" stroke-linecap="round" stroke-linejoin="round"/>
<path d="M83.0637 119.985C81.8078 119.415 80.8063 117.423 80.078 116.324C79.9844 116.133 79.8945 115.73 80.2841 115.649C81.4245 115.398 82.9977 114.575 84.5061 115.259C85.307 115.623 86.4966 117.7 83.7849 117.622C85.8784 119.725 83.8646 120.348 83.0637 119.985Z" fill="#AC68E1" stroke="#583276" stroke-width="0.1" stroke-linecap="round" stroke-linejoin="round"/>
<path d="M80.2841 115.649C79.8945 115.73 79.9844 116.133 80.078 116.324C80.3142 116.68 80.579 117.13 80.8719 117.596C80.7169 116.951 80.6262 115.59 81.5039 115.298C81.0635 115.428 80.6513 115.568 80.2841 115.649Z" fill="#F5CF6C" stroke="#F5CF6C" stroke-width="0.1" stroke-linecap="round" stroke-linejoin="round"/>
<path d="M79.9303 115.488C80.1815 115.86 79.8976 116.093 79.7243 116.163C79.3545 116.245 78.9127 116.374 78.4416 116.492C78.9044 116.129 79.703 115.171 79.1956 114.25C79.4591 114.7 79.6958 115.134 79.9303 115.488Z" fill="#F5CF6C" stroke="#F5CF6C" stroke-width="0.1" stroke-linecap="round" stroke-linejoin="round"/>
<path d="M80.2753 116.218C80.1306 115.811 79.746 115.835 79.5718 115.898C79.2571 116.078 78.8541 116.272 78.4409 116.491C79.0545 116.44 80.3901 116.573 80.8243 117.508C80.6228 117.041 80.416 116.602 80.2753 116.218Z" fill="#F5CF6C" stroke="#F5CF6C" stroke-width="0.1" stroke-linecap="round" stroke-linejoin="round"/>
<path d="M80.3649 115.881C80.0483 116.079 79.786 115.761 79.6945 115.577C79.5636 115.195 79.3766 114.734 79.196 114.245C79.6083 114.761 80.6331 115.7 81.4333 115.325C81.0449 115.524 80.6668 115.698 80.3649 115.881Z" fill="#F5CF6C" stroke="#F5CF6C" stroke-width="0.1" stroke-linecap="round" stroke-linejoin="round"/>
<ellipse cx="80.0056" cy="115.922" rx="0.418719" ry="0.351759" transform="rotate(45 80.0056 115.922)" fill="#55794F"/>
<path d="M125.613 79.6827C124.376 80.9199 124.675 84.0044 124.601 85.7708C124.633 86.0659 124.847 86.6483 125.446 86.6167C127.213 86.5422 130.049 87.0902 131.535 85.6043C132.324 84.8153 132.21 81.5455 128.574 82.6435C129.672 79.0077 126.402 78.8937 125.613 79.6827Z" fill="#8F4FC2" stroke="#583276" stroke-width="0.1" stroke-linecap="round" stroke-linejoin="round"/>
<path d="M123.559 82.2223C123.201 83.3975 124.24 85.3751 124.694 86.5768C124.795 86.765 125.082 87.094 125.415 86.9042C126.404 86.3574 128.178 85.9257 128.609 84.5142C128.838 83.7648 127.853 81.6112 126.084 83.3683C125.688 80.629 123.788 81.4729 123.559 82.2223Z" fill="#AC68E1" stroke="#583276" stroke-width="0.1" stroke-linecap="round" stroke-linejoin="round"/>
<path d="M118.146 84.4408C119.619 85.9136 122.698 86.1499 124.504 86.5349C124.798 86.554 125.352 86.4386 125.215 85.8243C124.83 84.018 124.89 81.235 123.121 79.4662C122.182 78.527 118.882 78.0701 120.634 81.9535C116.75 80.202 117.207 83.5016 118.146 84.4408Z" fill="#8F4FC2" stroke="#583276" stroke-width="0.1" stroke-linecap="round" stroke-linejoin="round"/>
<path d="M120.502 87.5525C121.758 88.1225 123.584 87.4141 124.724 87.1632C124.898 87.0932 125.181 86.8602 124.93 86.4881C124.202 85.389 123.453 83.512 121.945 82.8274C121.144 82.4639 119.13 83.0869 121.223 85.1899C118.512 85.112 119.701 87.189 120.502 87.5525Z" fill="#AC68E1" stroke="#583276" stroke-width="0.1" stroke-linecap="round" stroke-linejoin="round"/>
<path d="M118.214 87.0821C119.451 85.8448 122.535 86.1441 124.302 86.0696C124.597 86.1017 125.179 86.3159 125.148 86.9155C125.073 88.6819 125.621 91.5177 124.135 93.0037C123.346 93.7926 120.076 93.6787 121.174 90.0429C117.539 91.1408 117.425 87.871 118.214 87.0821Z" fill="#8F4FC2" stroke="#583276" stroke-width="0.1" stroke-linecap="round" stroke-linejoin="round"/>
<path d="M121.399 89.2979C121.758 88.1227 123.605 87.4547 124.593 86.9079C124.771 86.8463 125.164 86.8256 125.314 87.2353C125.769 88.437 126.88 90.1783 126.449 91.5898C126.22 92.3392 124.32 93.1831 123.924 90.4438C122.156 92.2009 121.171 90.0472 121.399 89.2979Z" fill="#AC68E1" stroke="#583276" stroke-width="0.1" stroke-linecap="round" stroke-linejoin="round"/>
<path d="M127.191 93.4856C125.718 92.0128 125.482 88.9338 125.097 87.1275C125.078 86.8335 125.193 86.2798 125.808 86.4168C127.614 86.8018 130.397 86.7421 132.166 88.511C133.105 89.4501 133.562 92.7497 129.678 90.9983C131.43 94.8817 128.13 94.4247 127.191 93.4856Z" fill="#8F4FC2" stroke="#583276" stroke-width="0.1" stroke-linecap="round" stroke-linejoin="round"/>
<path d="M128.064 90.9846C126.808 90.4146 125.806 88.4229 125.078 87.3238C124.984 87.1327 124.895 86.7301 125.284 86.6488C126.424 86.3979 127.998 85.5748 129.506 86.2595C130.307 86.623 131.497 88.7 128.785 88.622C130.878 90.725 128.865 91.3481 128.064 90.9846Z" fill="#AC68E1" stroke="#583276" stroke-width="0.1" stroke-linecap="round" stroke-linejoin="round"/>
<path d="M125.284 86.6488C124.895 86.7301 124.984 87.1327 125.078 87.3239C125.314 87.6802 125.579 88.1304 125.872 88.5956C125.717 87.9514 125.626 86.5899 126.504 86.2979C126.063 86.4279 125.651 86.568 125.284 86.6488Z" fill="#F5CF6C" stroke="#F5CF6C" stroke-width="0.1" stroke-linecap="round" stroke-linejoin="round"/>
<path d="M124.93 86.4882C125.181 86.8603 124.898 87.0932 124.724 87.1632C124.355 87.2446 123.913 87.374 123.442 87.4924C123.904 87.1286 124.703 86.1708 124.196 85.2501C124.459 85.6996 124.696 86.1342 124.93 86.4882Z" fill="#F5CF6C" stroke="#F5CF6C" stroke-width="0.1" stroke-linecap="round" stroke-linejoin="round"/>
<path d="M125.275 87.2175C125.131 86.8105 124.746 86.8351 124.572 86.8982C124.257 87.0781 123.854 87.2717 123.441 87.4911C124.054 87.4405 125.39 87.5729 125.824 88.5079C125.623 88.0414 125.416 87.6019 125.275 87.2175Z" fill="#F5CF6C" stroke="#F5CF6C" stroke-width="0.1" stroke-linecap="round" stroke-linejoin="round"/>
<path d="M125.365 86.8814C125.048 87.0789 124.786 86.7608 124.694 86.5771C124.564 86.1949 124.377 85.7336 124.196 85.2446C124.608 85.7609 125.633 86.6998 126.433 86.3251C126.045 86.5238 125.667 86.6978 125.365 86.8814Z" fill="#F5CF6C" stroke="#F5CF6C" stroke-width="0.1" stroke-linecap="round" stroke-linejoin="round"/>
<ellipse cx="125.006" cy="86.9225" rx="0.418719" ry="0.351759" transform="rotate(45 125.006 86.9225)" fill="#55794F"/>
<path d="M79.5068 36.5408C78.632 38.0561 79.7194 40.958 80.1046 42.6835C80.212 42.9603 80.5696 43.4673 81.1406 43.2817C82.8276 42.7525 85.7085 42.5479 86.7593 40.728C87.3172 39.7617 86.3608 36.6328 83.1331 38.6344C83.2526 34.8383 80.0647 35.5745 79.5068 36.5408Z" fill="#8F4FC2" stroke="#583276" stroke-width="0.1" stroke-linecap="round" stroke-linejoin="round"/>
<path d="M78.1804 39.5254C78.1381 40.7534 79.6535 42.3947 80.4035 43.4379C80.5502 43.5934 80.9118 43.8371 81.1851 43.5674C81.9981 42.7834 83.6004 41.9072 83.6513 40.4323C83.6783 39.6492 82.1692 37.824 80.9159 39.9788C79.8246 37.4353 78.2074 38.7423 78.1804 39.5254Z" fill="#AC68E1" stroke="#583276" stroke-width="0.1" stroke-linecap="round" stroke-linejoin="round"/>
<path d="M73.5261 43.0693C75.3299 44.1107 78.3652 43.5421 80.2096 43.4465C80.4985 43.3888 81.0034 43.134 80.7121 42.5761C79.8727 40.931 79.2101 38.2274 77.0437 36.9766C75.8935 36.3126 72.588 36.7252 75.2849 40.023C71.0805 39.3363 72.3759 42.4052 73.5261 43.0693Z" fill="#8F4FC2" stroke="#583276" stroke-width="0.1" stroke-linecap="round" stroke-linejoin="round"/>
<path d="M76.607 45.4653C77.9677 45.6909 79.5479 44.534 80.5845 43.9965C80.7338 43.884 80.9477 43.5855 80.6088 43.2911C79.6209 42.418 78.4115 40.7987 76.7774 40.5278C75.9097 40.384 74.1257 41.5071 76.6922 42.9966C74.0527 43.6231 75.7394 45.3215 76.607 45.4653Z" fill="#AC68E1" stroke="#583276" stroke-width="0.1" stroke-linecap="round" stroke-linejoin="round"/>
<path d="M74.2747 45.6031C75.1496 44.0878 78.2064 43.5786 79.8933 43.0494C80.1867 43.0041 80.8047 43.0602 80.9294 43.6476C81.3146 45.3731 82.5779 47.9704 81.5271 49.7903C80.9693 50.7566 77.7814 51.4928 77.9009 47.6967C74.6732 49.6983 73.7168 46.5694 74.2747 45.6031Z" fill="#8F4FC2" stroke="#583276" stroke-width="0.1" stroke-linecap="round" stroke-linejoin="round"/>
<path d="M77.9254 46.9189C77.9677 45.6909 79.5785 44.5678 80.3916 43.7838C80.5472 43.6784 80.9215 43.5566 81.1731 43.9134C81.9231 44.9565 83.4471 46.3509 83.3962 47.8258C83.3692 48.6089 81.7521 49.9159 80.6608 47.3724C79.4074 49.5272 77.8984 47.702 77.9254 46.9189Z" fill="#AC68E1" stroke="#583276" stroke-width="0.1" stroke-linecap="round" stroke-linejoin="round"/>
<path d="M84.6036 49.4649C82.7998 48.4235 81.7746 45.5106 80.9352 43.8654C80.8407 43.5864 80.8089 43.0217 81.4377 42.9951C83.2821 42.8994 85.9548 42.1215 88.1212 43.3723C89.2714 44.0363 90.5668 47.1052 86.3624 46.4186C89.0592 49.7164 85.7538 50.129 84.6036 49.4649Z" fill="#8F4FC2" stroke="#583276" stroke-width="0.1" stroke-linecap="round" stroke-linejoin="round"/>
<path d="M84.7992 46.8234C83.4385 46.5978 81.9557 44.9332 80.9677 44.0601C80.8278 43.8997 80.6368 43.534 80.9921 43.3547C82.0287 42.8172 83.3353 41.615 84.9695 41.8859C85.8372 42.0297 87.5238 43.7281 84.8844 44.3546C87.4508 45.8442 85.6668 46.9672 84.7992 46.8234Z" fill="#AC68E1" stroke="#583276" stroke-width="0.1" stroke-linecap="round" stroke-linejoin="round"/>
<path d="M80.9921 43.3546C80.6369 43.5339 80.8279 43.8996 80.9678 44.06C81.2881 44.3431 81.6604 44.7094 82.0638 45.0829C81.7473 44.5008 81.3073 43.2092 82.0795 42.6999C81.6878 42.9395 81.3259 43.1815 80.9921 43.3546Z" fill="#F5CF6C" stroke="#F5CF6C" stroke-width="0.1" stroke-linecap="round" stroke-linejoin="round"/>
<path d="M80.6088 43.2912C80.9477 43.5855 80.7338 43.8841 80.5845 43.9965C80.2484 44.1708 79.8551 44.4102 79.4308 44.6465C79.7836 44.1753 80.3072 43.0435 79.5787 42.2854C79.9495 42.6514 80.2907 43.01 80.6088 43.2912Z" fill="#F5CF6C" stroke="#F5CF6C" stroke-width="0.1" stroke-linecap="round" stroke-linejoin="round"/>
<path d="M81.1308 43.9064C80.8857 43.5507 80.5205 43.6739 80.3686 43.78C80.1112 44.0353 79.7721 44.3265 79.4297 44.6454C80.0093 44.4377 81.3337 44.22 81.995 45.0106C81.6797 44.6123 81.3661 44.2413 81.1308 43.9064Z" fill="#F5CF6C" stroke="#F5CF6C" stroke-width="0.1" stroke-linecap="round" stroke-linejoin="round"/>
<path d="M81.1303 43.5583C80.8756 43.8311 80.5399 43.5917 80.4039 43.4379C80.1786 43.1027 79.8787 42.7055 79.5776 42.2799C80.1095 42.6719 81.3424 43.3135 82.0183 42.7445C81.6946 43.0369 81.3744 43.3029 81.1303 43.5583Z" fill="#F5CF6C" stroke="#F5CF6C" stroke-width="0.1" stroke-linecap="round" stroke-linejoin="round"/>
<ellipse cx="80.7939" cy="43.6911" rx="0.418719" ry="0.351759" transform="rotate(30 80.7939 43.6911)" fill="#55794F"/>
<path d="M151.097 75.1311C150.222 76.6464 151.31 79.5484 151.695 81.2738C151.802 81.5506 152.16 82.0577 152.731 81.872C154.418 81.3429 157.299 81.1382 158.35 79.3183C158.907 78.352 157.951 75.2232 154.723 77.2247C154.843 73.4286 151.655 74.1648 151.097 75.1311Z" fill="#8F4FC2" stroke="#583276" stroke-width="0.1" stroke-linecap="round" stroke-linejoin="round"/>
<path d="M149.771 78.1157C149.728 79.3437 151.244 80.9851 151.994 82.0282C152.141 82.1838 152.502 82.4275 152.775 82.1577C153.588 81.3737 155.191 80.4975 155.242 79.0226C155.269 78.2396 153.76 76.4143 152.506 78.5692C151.415 76.0257 149.798 77.3327 149.771 78.1157Z" fill="#AC68E1" stroke="#583276" stroke-width="0.1" stroke-linecap="round" stroke-linejoin="round"/>
<path d="M145.116 81.6596C146.92 82.701 149.955 82.1324 151.8 82.0368C152.089 81.9791 152.594 81.7243 152.302 81.1664C151.463 79.5213 150.8 76.8177 148.634 75.567C147.484 74.9029 144.178 75.3155 146.875 78.6133C142.671 77.9266 143.966 80.9955 145.116 81.6596Z" fill="#8F4FC2" stroke="#583276" stroke-width="0.1" stroke-linecap="round" stroke-linejoin="round"/>
<path d="M148.197 84.0556C149.558 84.2812 151.138 83.1244 152.175 82.5868C152.324 82.4744 152.538 82.1758 152.199 81.8815C151.211 81.0083 150.002 79.3891 148.368 79.1182C147.5 78.9743 145.716 80.0974 148.283 81.5869C145.643 82.2135 147.33 83.9118 148.197 84.0556Z" fill="#AC68E1" stroke="#583276" stroke-width="0.1" stroke-linecap="round" stroke-linejoin="round"/>
<path d="M145.865 84.1935C146.74 82.6782 149.797 82.1689 151.484 81.6398C151.777 81.5944 152.395 81.6506 152.52 82.2379C152.905 83.9634 154.168 86.5607 153.117 88.3807C152.56 89.3469 149.372 90.0831 149.491 86.2871C146.264 88.2886 145.307 85.1597 145.865 84.1935Z" fill="#8F4FC2" stroke="#583276" stroke-width="0.1" stroke-linecap="round" stroke-linejoin="round"/>
<path d="M149.516 85.5093C149.558 84.2813 151.169 83.1582 151.982 82.3741C152.138 82.2687 152.512 82.147 152.763 82.5037C153.513 83.5468 155.037 84.9413 154.987 86.4162C154.96 87.1992 153.342 88.5062 152.251 85.9627C150.998 88.1176 149.489 86.2923 149.516 85.5093Z" fill="#AC68E1" stroke="#583276" stroke-width="0.1" stroke-linecap="round" stroke-linejoin="round"/>
<path d="M156.194 88.0552C154.39 87.0138 153.365 84.1009 152.526 82.4558C152.431 82.1767 152.399 81.612 153.028 81.5854C154.872 81.4898 157.545 80.7118 159.712 81.9626C160.862 82.6267 162.157 85.6956 157.953 85.0089C160.65 88.3067 157.344 88.7193 156.194 88.0552Z" fill="#8F4FC2" stroke="#583276" stroke-width="0.1" stroke-linecap="round" stroke-linejoin="round"/>
<path d="M156.39 85.4137C155.029 85.1882 153.546 83.5236 152.558 82.6504C152.418 82.49 152.227 82.1244 152.582 81.9451C153.619 81.4075 154.926 80.2053 156.56 80.4762C157.427 80.6201 159.114 82.3184 156.475 82.945C159.041 84.4345 157.257 85.5575 156.39 85.4137Z" fill="#AC68E1" stroke="#583276" stroke-width="0.1" stroke-linecap="round" stroke-linejoin="round"/>
<path d="M152.582 81.945C152.227 82.1243 152.418 82.4899 152.558 82.6503C152.878 82.9334 153.251 83.2997 153.654 83.6732C153.338 83.0911 152.898 81.7995 153.67 81.2902C153.278 81.5298 152.916 81.7719 152.582 81.945Z" fill="#F5CF6C" stroke="#F5CF6C" stroke-width="0.1" stroke-linecap="round" stroke-linejoin="round"/>
<path d="M152.199 81.8815C152.538 82.1759 152.324 82.4744 152.175 82.5869C151.839 82.7611 151.445 83.0005 151.021 83.2368C151.374 82.7656 151.897 81.6338 151.169 80.8757C151.54 81.2417 151.881 81.6003 152.199 81.8815Z" fill="#F5CF6C" stroke="#F5CF6C" stroke-width="0.1" stroke-linecap="round" stroke-linejoin="round"/>
<path d="M152.721 82.4967C152.476 82.141 152.111 82.2643 151.959 82.3703C151.702 82.6256 151.362 82.9168 151.02 83.2357C151.6 83.028 152.924 82.8103 153.585 83.601C153.27 83.2026 152.956 82.8316 152.721 82.4967Z" fill="#F5CF6C" stroke="#F5CF6C" stroke-width="0.1" stroke-linecap="round" stroke-linejoin="round"/>
<path d="M152.721 82.1487C152.466 82.4215 152.13 82.182 151.994 82.0282C151.769 81.693 151.469 81.2958 151.168 80.8702C151.7 81.2622 152.933 81.9038 153.609 81.3348C153.285 81.6273 152.965 81.8932 152.721 82.1487Z" fill="#F5CF6C" stroke="#F5CF6C" stroke-width="0.1" stroke-linecap="round" stroke-linejoin="round"/>
<ellipse cx="152.384" cy="82.2814" rx="0.418719" ry="0.351759" transform="rotate(30 152.384 82.2814)" fill="#55794F"/>
<path d="M79.365 53.6116C80.2399 55.1269 83.2968 55.6361 84.9837 56.1653C85.277 56.2106 85.895 56.1545 86.0197 55.5671C86.4049 53.8416 87.6682 51.2443 86.6175 49.4244C86.0596 48.4581 82.8717 47.7219 82.9913 51.518C79.7635 49.5164 78.8072 52.6453 79.365 53.6116Z" fill="#8F4FC2" stroke="#583276" stroke-width="0.1" stroke-linecap="round" stroke-linejoin="round"/>
<path d="M81.2865 56.2525C82.3288 56.9032 84.508 56.4115 85.7864 56.2835C85.9944 56.2343 86.3863 56.0429 86.2893 55.6714C86.0169 54.5753 86.0592 52.7496 84.8073 51.9681C84.1427 51.5532 81.8075 51.9474 83.0469 54.1103C80.2985 53.7836 80.6219 55.8376 81.2865 56.2525Z" fill="#AC68E1" stroke="#583276" stroke-width="0.1" stroke-linecap="round" stroke-linejoin="round"/>
<path d="M82.0285 62.0552C83.8322 61.0138 84.8575 58.1009 85.6969 56.4558C85.7914 56.1767 85.8232 55.612 85.1944 55.5854C83.3499 55.4898 80.6773 54.7118 78.5109 55.9626C77.3607 56.6267 76.0653 59.6956 80.2697 59.0089C77.5728 62.3067 80.8783 62.7193 82.0285 62.0552Z" fill="#8F4FC2" stroke="#583276" stroke-width="0.1" stroke-linecap="round" stroke-linejoin="round"/>
<path d="M85.6439 60.5851C86.5196 59.5195 86.3078 57.5726 86.3606 56.4061C86.3379 56.2206 86.1863 55.8861 85.7619 56.0324C84.5118 56.4514 82.5048 56.6891 81.4531 57.9689C80.8947 58.6484 80.9753 60.7549 83.5485 59.277C82.7714 61.8761 85.0855 61.2646 85.6439 60.5851Z" fill="#AC68E1" stroke="#583276" stroke-width="0.1" stroke-linecap="round" stroke-linejoin="round"/>
<path d="M84.5972 62.6738C83.7223 61.1585 84.8097 58.2566 85.1949 56.5311C85.3023 56.2543 85.6599 55.7473 86.231 55.9329C87.9179 56.4621 90.7989 56.6667 91.8496 58.4866C92.4075 59.4529 91.4511 62.5818 88.2234 60.5802C88.3429 64.3763 85.1551 63.6401 84.5972 62.6738Z" fill="#8F4FC2" stroke="#583276" stroke-width="0.1" stroke-linecap="round" stroke-linejoin="round"/>
<path d="M87.5619 60.1702C86.5196 59.5195 86.3524 57.563 86.0799 56.4669C86.0665 56.2793 86.1482 55.8943 86.5829 55.8548C87.8613 55.7268 89.8309 55.1043 91.0827 55.8858C91.7474 56.3007 92.0707 58.3547 89.3223 58.028C90.5618 60.1909 88.2266 60.5851 87.5619 60.1702Z" fill="#AC68E1" stroke="#583276" stroke-width="0.1" stroke-linecap="round" stroke-linejoin="round"/>
<path d="M93.106 55.6596C91.3023 56.701 88.267 56.1324 86.4225 56.0368C86.1336 55.9791 85.6287 55.7243 85.92 55.1664C86.7594 53.5213 87.422 50.8177 89.5884 49.567C90.7386 48.9029 94.0441 49.3155 91.3472 52.6133C95.5516 51.9266 94.2562 54.9955 93.106 55.6596Z" fill="#8F4FC2" stroke="#583276" stroke-width="0.1" stroke-linecap="round" stroke-linejoin="round"/>
<path d="M90.9161 54.1695C90.0404 55.2351 87.8574 55.687 86.6073 56.106C86.3984 56.147 85.9863 56.1296 86.0086 55.7323C86.0614 54.5658 85.6736 52.8331 86.7253 51.5533C87.2837 50.8738 89.5978 50.2623 88.8207 52.8614C91.3939 51.3835 91.4745 53.49 90.9161 54.1695Z" fill="#AC68E1" stroke="#583276" stroke-width="0.1" stroke-linecap="round" stroke-linejoin="round"/>
<path d="M86.0086 55.7322C85.9863 56.1295 86.3984 56.1469 86.6073 56.1059C87.0126 55.9701 87.516 55.8308 88.0411 55.6682C87.3787 55.6512 86.0402 55.3865 85.9853 54.4631C85.9969 54.9222 86.0256 55.3565 86.0086 55.7322Z" fill="#F5CF6C" stroke="#F5CF6C" stroke-width="0.1" stroke-linecap="round" stroke-linejoin="round"/>
<path d="M85.7619 56.0323C86.1863 55.886 86.3379 56.2205 86.3606 56.4061C86.3435 56.7843 86.3542 57.2446 86.3466 57.7302C86.115 57.1891 85.3966 56.1697 84.3759 56.4216C84.8783 56.2834 85.3593 56.1673 85.7619 56.0323Z" fill="#F5CF6C" stroke="#F5CF6C" stroke-width="0.1" stroke-linecap="round" stroke-linejoin="round"/>
<path d="M86.5557 55.8877C86.1251 55.9222 86.0493 56.3001 86.0652 56.4847C86.1575 56.8352 86.2401 57.2745 86.3452 57.7305C86.455 57.1247 86.9287 55.8689 87.9441 55.6915C87.4415 55.7653 86.9634 55.8514 86.5557 55.8877Z" fill="#F5CF6C" stroke="#F5CF6C" stroke-width="0.1" stroke-linecap="round" stroke-linejoin="round"/>
<path d="M86.2541 55.7143C86.363 56.0713 85.9878 56.2423 85.7866 56.2831C85.3836 56.3106 84.8897 56.3718 84.3706 56.4198C84.976 56.1551 86.1481 55.4082 85.9933 54.5383C86.0847 54.9649 86.1549 55.3752 86.2541 55.7143Z" fill="#F5CF6C" stroke="#F5CF6C" stroke-width="0.1" stroke-linecap="round" stroke-linejoin="round"/>
<ellipse cx="86.2008" cy="56.072" rx="0.418719" ry="0.351759" transform="rotate(-30 86.2008 56.072)" fill="#55794F"/>
<path d="M114.365 49.6116C115.24 51.1269 118.297 51.6361 119.984 52.1653C120.277 52.2106 120.895 52.1545 121.02 51.5671C121.405 49.8416 122.668 47.2443 121.617 45.4244C121.06 44.4581 117.872 43.7219 117.991 47.518C114.764 45.5164 113.807 48.6453 114.365 49.6116Z" fill="#8F4FC2" stroke="#583276" stroke-width="0.1" stroke-linecap="round" stroke-linejoin="round"/>
<path d="M116.287 52.2525C117.329 52.9032 119.508 52.4115 120.786 52.2835C120.994 52.2343 121.386 52.0429 121.289 51.6714C121.017 50.5753 121.059 48.7496 119.807 47.9681C119.143 47.5532 116.807 47.9474 118.047 50.1103C115.299 49.7836 115.622 51.8376 116.287 52.2525Z" fill="#AC68E1" stroke="#583276" stroke-width="0.1" stroke-linecap="round" stroke-linejoin="round"/>
<path d="M117.028 58.0552C118.832 57.0138 119.857 54.1009 120.697 52.4558C120.791 52.1767 120.823 51.612 120.194 51.5854C118.35 51.4898 115.677 50.7118 113.511 51.9626C112.361 52.6267 111.065 55.6956 115.27 55.0089C112.573 58.3067 115.878 58.7193 117.028 58.0552Z" fill="#8F4FC2" stroke="#583276" stroke-width="0.1" stroke-linecap="round" stroke-linejoin="round"/>
<path d="M120.644 56.5851C121.52 55.5195 121.308 53.5726 121.361 52.4061C121.338 52.2206 121.186 51.8861 120.762 52.0324C119.512 52.4514 117.505 52.6891 116.453 53.9689C115.895 54.6484 115.975 56.7549 118.549 55.277C117.771 57.8761 120.086 57.2646 120.644 56.5851Z" fill="#AC68E1" stroke="#583276" stroke-width="0.1" stroke-linecap="round" stroke-linejoin="round"/>
<path d="M119.597 58.6738C118.722 57.1585 119.81 54.2566 120.195 52.5311C120.302 52.2543 120.66 51.7473 121.231 51.9329C122.918 52.4621 125.799 52.6667 126.85 54.4866C127.407 55.4529 126.451 58.5818 123.223 56.5802C123.343 60.3763 120.155 59.6401 119.597 58.6738Z" fill="#8F4FC2" stroke="#583276" stroke-width="0.1" stroke-linecap="round" stroke-linejoin="round"/>
<path d="M122.562 56.1702C121.52 55.5195 121.352 53.563 121.08 52.4669C121.066 52.2793 121.148 51.8943 121.583 51.8548C122.861 51.7268 124.831 51.1043 126.083 51.8858C126.747 52.3007 127.071 54.3547 124.322 54.028C125.562 56.1909 123.227 56.5851 122.562 56.1702Z" fill="#AC68E1" stroke="#583276" stroke-width="0.1" stroke-linecap="round" stroke-linejoin="round"/>
<path d="M128.106 51.6596C126.302 52.701 123.267 52.1324 121.423 52.0368C121.134 51.9791 120.629 51.7243 120.92 51.1664C121.759 49.5213 122.422 46.8177 124.588 45.567C125.739 44.9029 129.044 45.3155 126.347 48.6133C130.552 47.9266 129.256 50.9955 128.106 51.6596Z" fill="#8F4FC2" stroke="#583276" stroke-width="0.1" stroke-linecap="round" stroke-linejoin="round"/>
<path d="M125.916 50.1695C125.04 51.2351 122.857 51.687 121.607 52.106C121.398 52.147 120.986 52.1296 121.009 51.7323C121.061 50.5658 120.674 48.8331 121.725 47.5533C122.284 46.8738 124.598 46.2623 123.821 48.8614C126.394 47.3835 126.474 49.49 125.916 50.1695Z" fill="#AC68E1" stroke="#583276" stroke-width="0.1" stroke-linecap="round" stroke-linejoin="round"/>
<path d="M121.009 51.7322C120.986 52.1295 121.398 52.1469 121.607 52.1059C122.013 51.9701 122.516 51.8308 123.041 51.6682C122.379 51.6512 121.04 51.3865 120.985 50.4631C120.997 50.9222 121.026 51.3565 121.009 51.7322Z" fill="#F5CF6C" stroke="#F5CF6C" stroke-width="0.1" stroke-linecap="round" stroke-linejoin="round"/>
<path d="M120.762 52.0323C121.186 51.886 121.338 52.2205 121.361 52.4061C121.344 52.7843 121.354 53.2446 121.347 53.7302C121.115 53.1891 120.397 52.1697 119.376 52.4216C119.878 52.2834 120.359 52.1673 120.762 52.0323Z" fill="#F5CF6C" stroke="#F5CF6C" stroke-width="0.1" stroke-linecap="round" stroke-linejoin="round"/>
<path d="M121.556 51.8877C121.125 51.9222 121.049 52.3001 121.065 52.4847C121.158 52.8352 121.24 53.2745 121.345 53.7305C121.455 53.1247 121.929 51.8689 122.944 51.6915C122.441 51.7653 121.963 51.8514 121.556 51.8877Z" fill="#F5CF6C" stroke="#F5CF6C" stroke-width="0.1" stroke-linecap="round" stroke-linejoin="round"/>
<path d="M121.254 51.7143C121.363 52.0713 120.988 52.2423 120.787 52.2831C120.384 52.3106 119.89 52.3718 119.371 52.4198C119.976 52.1551 121.148 51.4082 120.993 50.5383C121.085 50.9649 121.155 51.3752 121.254 51.7143Z" fill="#F5CF6C" stroke="#F5CF6C" stroke-width="0.1" stroke-linecap="round" stroke-linejoin="round"/>
<ellipse cx="121.201" cy="52.072" rx="0.418719" ry="0.351759" transform="rotate(-30 121.201 52.072)" fill="#55794F"/>
<path d="M10.9504 67.4267C11.2777 69.1455 13.9967 70.6325 15.4154 71.6874C15.6776 71.8268 16.2796 71.9771 16.5907 71.4635C17.5223 69.961 19.57 67.9242 19.1768 65.8598C18.9681 64.7637 16.2001 63.0193 15.0636 66.6432C12.6745 63.6909 10.7416 66.3307 10.9504 67.4267Z" fill="#8F4FC2" stroke="#583276" stroke-width="0.1" stroke-linecap="round" stroke-linejoin="round"/>
<path d="M11.8955 70.553C12.6656 71.5105 14.8852 71.7634 16.1345 72.0633C16.3471 72.0852 16.7802 72.0335 16.8109 71.6508C16.9144 70.5261 17.5552 68.816 16.6303 67.6661C16.1393 67.0555 13.8044 66.6592 14.2629 69.1095C11.7752 67.8965 11.4045 69.9424 11.8955 70.553Z" fill="#AC68E1" stroke="#583276" stroke-width="0.1" stroke-linecap="round" stroke-linejoin="round"/>
<path d="M10.6863 76.2765C12.7323 75.8868 14.6592 73.4736 15.9933 72.1964C16.1743 71.964 16.3902 71.4412 15.8052 71.2091C14.095 70.5118 11.8273 68.8976 9.36996 69.3656C8.06527 69.6141 5.83199 72.0857 10.0281 72.8211C6.39614 75.0475 9.38162 76.525 10.6863 76.2765Z" fill="#8F4FC2" stroke="#583276" stroke-width="0.1" stroke-linecap="round" stroke-linejoin="round"/>
<path d="M14.5842 76.0783C15.7618 75.3602 16.2026 73.4521 16.6364 72.368C16.676 72.1853 16.6429 71.8195 16.194 71.818C14.8757 71.8022 12.9023 71.3661 11.488 72.2285C10.737 72.6863 10.1199 74.702 13.0361 74.1534C11.4468 76.3519 13.8333 76.5361 14.5842 76.0783Z" fill="#AC68E1" stroke="#583276" stroke-width="0.1" stroke-linecap="round" stroke-linejoin="round"/>
<path d="M12.9083 77.7061C12.5809 75.9873 14.5628 73.6049 15.4945 72.1024C15.687 71.8764 16.1916 71.5153 16.6697 71.8785C18.0885 72.9334 20.7416 74.0748 21.1348 76.1392C21.3435 77.2352 19.4107 79.875 17.0215 76.9226C15.885 80.5466 13.1171 78.8022 12.9083 77.7061Z" fill="#8F4FC2" stroke="#583276" stroke-width="0.1" stroke-linecap="round" stroke-linejoin="round"/>
<path d="M16.5319 76.3177C15.7618 75.3603 16.2479 73.4577 16.3514 72.333C16.4004 72.1514 16.6042 71.8148 17.0278 71.9205C18.2771 72.2204 20.3418 72.2808 21.2667 73.4308C21.7577 74.0414 21.3871 76.0873 18.8993 74.8743C19.3579 77.3246 17.023 76.9283 16.5319 76.3177Z" fill="#AC68E1" stroke="#583276" stroke-width="0.1" stroke-linecap="round" stroke-linejoin="round"/>
<path d="M23.2516 73.8833C21.2056 74.273 18.5266 72.7371 16.8164 72.0397C16.5625 71.8902 16.1696 71.4833 16.6283 71.0524C17.9624 69.7752 19.4779 67.4404 21.9353 66.9723C23.24 66.7238 26.2254 68.2014 22.5934 70.4278C26.7896 71.1632 24.5563 73.6347 23.2516 73.8833Z" fill="#8F4FC2" stroke="#583276" stroke-width="0.1" stroke-linecap="round" stroke-linejoin="round"/>
<path d="M21.6742 71.7554C20.4966 72.4734 18.2865 72.1816 16.9681 72.1658C16.7574 72.1357 16.3739 71.9836 16.5258 71.6158C16.9595 70.5317 17.1636 68.7679 18.5779 67.9056C19.3289 67.4477 21.7153 67.6319 20.1261 69.8305C23.0423 69.2819 22.4251 71.2975 21.6742 71.7554Z" fill="#AC68E1" stroke="#583276" stroke-width="0.1" stroke-linecap="round" stroke-linejoin="round"/>
<path d="M16.5258 71.6157C16.3739 71.9835 16.7574 72.1356 16.9681 72.1657C17.3955 72.1708 17.9168 72.2049 18.4661 72.2242C17.8462 71.9902 16.6694 71.2996 16.9214 70.4096C16.7813 70.8469 16.6654 71.2666 16.5258 71.6157Z" fill="#F5CF6C" stroke="#F5CF6C" stroke-width="0.1" stroke-linecap="round" stroke-linejoin="round"/>
<path d="M16.1941 71.818C16.643 71.8196 16.676 72.1853 16.6364 72.368C16.4958 72.7195 16.3544 73.1577 16.1874 73.6138C16.1468 73.0265 15.8038 71.8275 14.7571 71.7294C15.277 71.7643 15.7695 71.8129 16.1941 71.818Z" fill="#F5CF6C" stroke="#F5CF6C" stroke-width="0.1" stroke-linecap="round" stroke-linejoin="round"/>
<path d="M16.9912 71.9428C16.5732 71.8336 16.3772 72.1654 16.3315 72.345C16.3033 72.7064 16.2368 73.1484 16.1859 73.6135C16.489 73.0777 17.3496 72.0477 18.3669 72.2144C17.8679 72.1187 17.3881 72.0426 16.9912 71.9428Z" fill="#F5CF6C" stroke="#F5CF6C" stroke-width="0.1" stroke-linecap="round" stroke-linejoin="round"/>
<path d="M16.7635 71.6797C16.7488 72.0526 16.3383 72.0906 16.1348 72.063C15.7452 71.9563 15.2586 71.8515 14.7527 71.726C15.4115 71.6753 16.7641 71.3558 16.9042 70.4834C16.8502 70.9163 16.7814 71.3268 16.7635 71.6797Z" fill="#F5CF6C" stroke="#F5CF6C" stroke-width="0.1" stroke-linecap="round" stroke-linejoin="round"/>
<ellipse cx="16.5954" cy="71.9999" rx="0.418719" ry="0.351759" transform="rotate(-10.7841 16.5954 71.9999)" fill="#55794F"/>
<path d="M112.279 97.7558C112.607 99.4746 115.326 100.962 116.745 102.016C117.007 102.156 117.609 102.306 117.92 101.793C118.851 100.29 120.899 98.2533 120.506 96.1889C120.297 95.0928 117.529 93.3484 116.393 96.9723C114.004 94.02 112.071 96.6598 112.279 97.7558Z" fill="#8F4FC2" stroke="#583276" stroke-width="0.1" stroke-linecap="round" stroke-linejoin="round"/>
<path d="M113.225 100.882C113.995 101.84 116.214 102.092 117.464 102.392C117.676 102.414 118.109 102.363 118.14 101.98C118.243 100.855 118.884 99.1451 117.959 97.9952C117.468 97.3846 115.133 96.9883 115.592 99.4386C113.104 98.2256 112.734 100.272 113.225 100.882Z" fill="#AC68E1" stroke="#583276" stroke-width="0.1" stroke-linecap="round" stroke-linejoin="round"/>
<path d="M112.015 106.606C114.061 106.216 115.988 103.803 117.322 102.526C117.503 102.293 117.719 101.77 117.134 101.538C115.424 100.841 113.156 99.2267 110.699 99.6947C109.394 99.9432 107.161 102.415 111.357 103.15C107.725 105.377 110.711 106.854 112.015 106.606Z" fill="#8F4FC2" stroke="#583276" stroke-width="0.1" stroke-linecap="round" stroke-linejoin="round"/>
<path d="M115.913 106.407C117.091 105.689 117.532 103.781 117.965 102.697C118.005 102.514 117.972 102.149 117.523 102.147C116.205 102.131 114.231 101.695 112.817 102.558C112.066 103.015 111.449 105.031 114.365 104.482C112.776 106.681 115.162 106.865 115.913 106.407Z" fill="#AC68E1" stroke="#583276" stroke-width="0.1" stroke-linecap="round" stroke-linejoin="round"/>
<path d="M114.237 108.035C113.91 106.316 115.892 103.934 116.824 102.431C117.016 102.205 117.521 101.844 117.999 102.208C119.418 103.262 122.071 104.404 122.464 106.468C122.673 107.564 120.74 110.204 118.351 107.252C117.214 110.876 114.446 109.131 114.237 108.035Z" fill="#8F4FC2" stroke="#583276" stroke-width="0.1" stroke-linecap="round" stroke-linejoin="round"/>
<path d="M117.861 106.647C117.091 105.689 117.577 103.787 117.68 102.662C117.729 102.481 117.933 102.144 118.357 102.25C119.606 102.55 121.671 102.61 122.596 103.76C123.087 104.37 122.716 106.416 120.228 105.203C120.687 107.654 118.352 107.257 117.861 106.647Z" fill="#AC68E1" stroke="#583276" stroke-width="0.1" stroke-linecap="round" stroke-linejoin="round"/>
<path d="M124.581 104.212C122.535 104.602 119.856 103.066 118.145 102.369C117.892 102.219 117.499 101.812 117.957 101.382C119.292 100.104 120.807 97.7695 123.264 97.3014C124.569 97.0529 127.555 98.5305 123.923 100.757C128.119 101.492 125.885 103.964 124.581 104.212Z" fill="#8F4FC2" stroke="#583276" stroke-width="0.1" stroke-linecap="round" stroke-linejoin="round"/>
<path d="M123.003 102.084C121.826 102.802 119.616 102.511 118.297 102.495C118.086 102.465 117.703 102.313 117.855 101.945C118.289 100.861 118.493 99.097 119.907 98.2347C120.658 97.7768 123.044 97.961 121.455 100.16C124.371 99.611 123.754 101.627 123.003 102.084Z" fill="#AC68E1" stroke="#583276" stroke-width="0.1" stroke-linecap="round" stroke-linejoin="round"/>
<path d="M117.855 101.945C117.703 102.313 118.086 102.465 118.297 102.495C118.725 102.5 119.246 102.534 119.795 102.553C119.175 102.319 117.999 101.629 118.251 100.739C118.11 101.176 117.995 101.596 117.855 101.945Z" fill="#F5CF6C" stroke="#F5CF6C" stroke-width="0.1" stroke-linecap="round" stroke-linejoin="round"/>
<path d="M117.523 102.147C117.972 102.149 118.005 102.514 117.965 102.697C117.825 103.049 117.683 103.487 117.516 103.943C117.476 103.356 117.133 102.157 116.086 102.059C116.606 102.093 117.099 102.142 117.523 102.147Z" fill="#F5CF6C" stroke="#F5CF6C" stroke-width="0.1" stroke-linecap="round" stroke-linejoin="round"/>
<path d="M118.32 102.272C117.902 102.163 117.706 102.495 117.661 102.674C117.632 103.035 117.566 103.478 117.515 103.943C117.818 103.407 118.679 102.377 119.696 102.543C119.197 102.448 118.717 102.372 118.32 102.272Z" fill="#F5CF6C" stroke="#F5CF6C" stroke-width="0.1" stroke-linecap="round" stroke-linejoin="round"/>
<path d="M118.093 102.009C118.078 102.382 117.667 102.42 117.464 102.392C117.074 102.285 116.588 102.181 116.082 102.055C116.741 102.004 118.093 101.685 118.233 100.813C118.179 101.245 118.111 101.656 118.093 102.009Z" fill="#F5CF6C" stroke="#F5CF6C" stroke-width="0.1" stroke-linecap="round" stroke-linejoin="round"/>
<ellipse cx="117.925" cy="102.329" rx="0.418719" ry="0.351759" transform="rotate(-10.7841 117.925 102.329)" fill="#55794F"/>
<path d="M25 61L53.5 169.5M73.5 79.5L60 177.5M137 70L75 185.5M109.5 38L79.5 169.5M66.5 36L75 166M93 96.5L67.5 185.5" stroke="#55794F" stroke-linecap="round" stroke-linejoin="round"/>
<path d="M29.097 45.5216C27.7119 43.065 26.2114 44.498 25.6343 45.5216C24.2492 47.9781 25.0572 53.7102 25.6343 56.2691H29.097C29.6742 53.7102 30.4821 47.9781 29.097 45.5216Z" fill="#DEC585" stroke="#76563F" stroke-width="0.5" stroke-linecap="round" stroke-linejoin="round"/>
<path d="M15.0518 49.4088C12.1136 48.5403 12.1952 50.4945 12.6033 51.5802C13.5827 54.1857 18.7246 57.7322 21.1731 59.1798L23.6216 57.0085C21.9893 54.8371 17.99 50.2774 15.0518 49.4088Z" fill="#DEC585" stroke="#76563F" stroke-width="0.5" stroke-linecap="round" stroke-linejoin="round"/>
<path d="M8.21984 60.9647C5.44966 62.193 7.0656 63.5236 8.21984 64.0354C10.99 65.2637 17.4538 64.5472 20.3394 64.0354L20.3394 60.9647C17.4538 60.4529 10.99 59.7364 8.21984 60.9647Z" fill="#DEC585" stroke="#76563F" stroke-width="0.5" stroke-linecap="round" stroke-linejoin="round"/>
<path d="M12.6033 73.4199C11.6238 76.0255 13.8275 75.9531 15.0518 75.5912C17.99 74.7227 21.9892 70.1629 23.6216 67.9916L21.1731 65.8203C18.7246 67.2678 13.5827 70.8143 12.6033 73.4199Z" fill="#DEC585" stroke="#76563F" stroke-width="0.5" stroke-linecap="round" stroke-linejoin="round"/>
<path d="M29.097 79.4784C27.7119 81.935 26.2114 80.502 25.6343 79.4784C24.2492 77.0219 25.0572 71.2898 25.6343 68.7309H29.097C29.6742 71.2898 30.4821 77.0219 29.097 79.4784Z" fill="#DEC585" stroke="#76563F" stroke-width="0.5" stroke-linecap="round" stroke-linejoin="round"/>
<path d="M42.1282 73.4199C43.1076 76.0255 40.9039 75.9531 39.6796 75.5912C36.7414 74.7227 32.7422 70.1629 31.1098 67.9916L33.5583 65.8203C36.0069 67.2678 41.1488 70.8143 42.1282 73.4199Z" fill="#DEC585" stroke="#76563F" stroke-width="0.5" stroke-linecap="round" stroke-linejoin="round"/>
<path d="M46.5116 60.9647C49.2818 62.193 47.6659 63.5236 46.5116 64.0354C43.7415 65.2637 37.2777 64.5472 34.3921 64.0354L34.3921 60.9647C37.2777 60.4529 43.7415 59.7364 46.5116 60.9647Z" fill="#DEC585" stroke="#76563F" stroke-width="0.5" stroke-linecap="round" stroke-linejoin="round"/>
<path d="M39.6796 49.4088C42.6178 48.5403 42.5362 50.4945 42.1281 51.5802C41.1487 54.1857 36.0068 57.7322 33.5583 59.1798L31.1098 57.0085C32.7421 54.8371 36.7414 50.2774 39.6796 49.4088Z" fill="#DEC585" stroke="#76563F" stroke-width="0.5" stroke-linecap="round" stroke-linejoin="round"/>
<path d="M21.4208 46.0154C19.1878 44.0702 18.4205 45.8503 18.3159 46.9835C18.065 49.7032 21.1019 54.9198 22.6518 57.1881L25.7567 56.22C25.2418 53.629 23.6538 47.9607 21.4208 46.0154Z" fill="#E8CD88" stroke="#76563F" stroke-width="0.5" stroke-linecap="round" stroke-linejoin="round"/>
<path d="M9.77416 53.9263C6.68885 53.9231 7.57936 55.7051 8.41028 56.5965C10.4045 58.7357 16.6489 60.6122 19.5218 61.283L20.8856 58.6128C18.4674 57.052 12.8595 53.9294 9.77416 53.9263Z" fill="#E8CD88" stroke="#76563F" stroke-width="0.5" stroke-linecap="round" stroke-linejoin="round"/>
<path d="M7.92252 66.7243C5.86199 68.7329 7.9198 69.5729 9.20627 69.7419C12.2938 70.1474 18.0003 67.573 20.4676 66.2351L19.1839 63.2175C16.2887 63.5495 9.98305 64.7157 7.92252 66.7243Z" fill="#E8CD88" stroke="#76563F" stroke-width="0.5" stroke-linecap="round" stroke-linejoin="round"/>
<path d="M16.848 77.1512C17.0329 79.9056 19.1138 79.2192 20.1311 78.5317C22.5727 76.8816 24.4395 71.421 25.0677 68.8969L21.7846 67.5165C20.062 69.5804 16.6631 74.3968 16.848 77.1512Z" fill="#E8CD88" stroke="#76563F" stroke-width="0.5" stroke-linecap="round" stroke-linejoin="round"/>
<path d="M34.6841 78.0165C34.4331 80.7362 32.5096 79.795 31.5791 78.9845C29.3461 77.0393 27.7582 71.3709 27.2433 68.7799L30.3482 67.8119C31.898 70.0802 34.935 75.2968 34.6841 78.0165Z" fill="#E8CD88" stroke="#76563F" stroke-width="0.5" stroke-linecap="round" stroke-linejoin="round"/>
<path d="M44.5897 68.4034C46.5839 70.5427 44.5114 71.0749 43.2258 71.0736C40.1405 71.0704 34.5326 67.9479 32.1144 66.387L33.4782 63.7168C36.3511 64.3876 42.5955 66.2641 44.5897 68.4034Z" fill="#E8CD88" stroke="#76563F" stroke-width="0.5" stroke-linecap="round" stroke-linejoin="round"/>
<path d="M43.7938 55.258C46.8813 55.6635 45.9361 57.4387 45.0775 58.2756C43.017 60.2842 36.7114 61.4504 33.8161 61.7824L32.5324 58.7648C34.9997 57.4269 40.7062 54.8525 43.7938 55.258Z" fill="#E8CD88" stroke="#76563F" stroke-width="0.5" stroke-linecap="round" stroke-linejoin="round"/>
<path d="M32.8688 46.4683C35.3104 44.8182 36.0749 46.701 36.1519 47.8487C36.3368 50.6031 32.9379 55.4195 31.2154 57.4834L27.9323 56.103C28.5605 53.5789 30.4272 48.1183 32.8688 46.4683Z" fill="#E8CD88" stroke="#76563F" stroke-width="0.5" stroke-linecap="round" stroke-linejoin="round"/>
<path d="M26.7745 54.8556C31.4463 54.8558 35.1807 58.2082 35.1807 62.2823C35.1807 66.3566 31.4463 69.7089 26.7745 69.7091C22.1024 69.7091 18.3672 66.3567 18.3672 62.2823C18.3673 58.208 22.1025 54.8556 26.7745 54.8556Z" fill="#76563F" stroke="#76563F" stroke-width="0.5"/>
<path d="M26.8002 56.7919C30.2152 56.7919 32.9308 59.2405 32.931 62.2001C32.931 65.1598 30.2153 67.6093 26.8002 67.6093C23.3851 67.6092 20.6693 65.1598 20.6693 62.2001C20.6696 59.2406 23.3853 56.792 26.8002 56.7919Z" fill="#A78268" stroke="#76563F" stroke-width="0.5"/>
<path d="M66.985 61.4615C64.6573 59.8694 63.944 61.8178 63.8784 62.991C63.7209 65.8068 66.9777 70.5924 68.6257 72.6332L71.7323 71.1037C71.1198 68.553 69.3128 63.0536 66.985 61.4615Z" fill="#DEC585" stroke="#76563F" stroke-width="0.5" stroke-linecap="round" stroke-linejoin="round"/>
<path d="M56.1013 71.1528C53.0816 71.6715 54.018 73.3886 54.8637 74.1824C56.8933 76.0874 63.0729 76.9979 65.909 77.215L67.1466 74.1855C64.723 72.9585 59.121 70.6342 56.1013 71.1528Z" fill="#DEC585" stroke="#76563F" stroke-width="0.5" stroke-linecap="round" stroke-linejoin="round"/>
<path d="M55.0763 84.538C53.1336 86.8636 55.1711 87.3436 56.4327 87.293C59.4605 87.1713 64.943 83.6733 67.3058 81.9396L65.9494 79.1847C63.1345 80.0001 57.019 82.2124 55.0763 84.538Z" fill="#DEC585" stroke="#76563F" stroke-width="0.5" stroke-linecap="round" stroke-linejoin="round"/>
<path d="M64.5106 93.7762C64.7828 96.5464 66.7279 95.5081 67.6664 94.6426C69.9188 92.5656 71.4926 86.7082 71.9979 84.0392L68.8422 83.1727C67.2849 85.5529 64.2383 91.0059 64.5106 93.7762Z" fill="#DEC585" stroke="#76563F" stroke-width="0.5" stroke-linecap="round" stroke-linejoin="round"/>
<path d="M81.9842 91.9261C81.8267 94.7419 79.8475 94.119 78.8776 93.4557C76.5499 91.8635 74.7429 86.3641 74.1303 83.8134L77.2369 82.2839C78.885 84.3248 82.1418 89.1104 81.9842 91.9261Z" fill="#DEC585" stroke="#76563F" stroke-width="0.5" stroke-linecap="round" stroke-linejoin="round"/>
<path d="M90.999 80.7346C93.0286 82.6396 91.0196 83.5481 89.7614 83.7642C86.7417 84.2828 81.1397 81.9585 78.7161 80.7315L79.9537 77.702C82.7898 77.9191 88.9694 78.8296 90.999 80.7346Z" fill="#DEC585" stroke="#76563F" stroke-width="0.5" stroke-linecap="round" stroke-linejoin="round"/>
<path d="M89.43 67.624C92.4579 67.5024 91.5959 69.41 90.7864 70.3789C88.8437 72.7045 82.7282 74.9168 79.9133 75.7323L78.5569 72.9774C80.9197 71.2436 86.4022 67.7457 89.43 67.624Z" fill="#DEC585" stroke="#76563F" stroke-width="0.5" stroke-linecap="round" stroke-linejoin="round"/>
<path d="M78.1963 60.2744C80.4487 58.1973 81.2386 59.9866 81.3521 61.1409C81.6243 63.9111 78.5778 69.3641 77.0205 71.7443L73.8647 70.8779C74.37 68.2088 75.9439 62.3515 78.1963 60.2744Z" fill="#DEC585" stroke="#76563F" stroke-width="0.5" stroke-linecap="round" stroke-linejoin="round"/>
<path d="M60.3164 65.2954C57.4538 64.5365 57.5516 66.4725 57.9584 67.5353C58.9346 70.0862 63.9635 73.4248 66.3559 74.7752L68.7138 72.5353C67.1074 70.4381 63.179 66.0542 60.3164 65.2954Z" fill="#E8CD88" stroke="#76563F" stroke-width="0.5" stroke-linecap="round" stroke-linejoin="round"/>
<path d="M53.3619 77.5371C50.5925 78.8971 52.1785 80.1024 53.3177 80.5351C56.0518 81.5735 62.4828 80.4987 65.3566 79.8316L65.4007 76.8336C62.5417 76.5014 56.1313 76.1771 53.3619 77.5371Z" fill="#E8CD88" stroke="#76563F" stroke-width="0.5" stroke-linecap="round" stroke-linejoin="round"/>
<path d="M57.3537 89.8367C56.3923 92.5489 58.6095 92.3936 59.8383 91.977C62.7874 90.9769 66.7699 86.1467 68.3925 83.8565L65.9079 81.7163C63.457 83.293 58.315 87.1245 57.3537 89.8367Z" fill="#E8CD88" stroke="#76563F" stroke-width="0.5" stroke-linecap="round" stroke-linejoin="round"/>
<path d="M69.967 95.2488C71.3495 97.6383 72.9131 96.1033 73.5222 95.0371C74.9838 92.4783 74.2466 86.7547 73.6952 84.2127L70.14 84.4245C69.5063 87.037 68.5844 92.8594 69.967 95.2488Z" fill="#E8CD88" stroke="#76563F" stroke-width="0.5" stroke-linecap="round" stroke-linejoin="round"/>
<path d="M86.3509 88.1466C87.3271 90.6975 85.1856 90.7028 83.9929 90.3866C81.1303 89.6278 77.2018 85.2438 75.5954 83.1467L77.9534 80.9067C80.3458 82.2572 85.3746 85.5958 86.3509 88.1466Z" fill="#E8CD88" stroke="#76563F" stroke-width="0.5" stroke-linecap="round" stroke-linejoin="round"/>
<path d="M90.9915 75.1468C93.7256 76.1852 92.1013 77.5781 90.9474 78.1448C88.178 79.5048 81.7676 79.1805 78.9085 78.8483L78.9527 75.8503C81.8265 75.1831 88.2575 74.1084 90.9915 75.1468Z" fill="#E8CD88" stroke="#76563F" stroke-width="0.5" stroke-linecap="round" stroke-linejoin="round"/>
<path d="M84.471 63.7049C87.4201 62.7049 87.3562 64.715 86.9557 65.8451C85.9943 68.5573 80.8523 72.3888 78.4014 73.9655L75.9168 71.8253C77.5394 69.5352 81.5219 64.7049 84.471 63.7049Z" fill="#E8CD88" stroke="#76563F" stroke-width="0.5" stroke-linecap="round" stroke-linejoin="round"/>
<path d="M70.7871 60.6449C72.2487 58.086 73.7663 59.4375 74.3423 60.4331C75.7248 62.8226 74.8029 68.645 74.1692 71.2575L70.614 71.4692C70.0627 68.9273 69.3254 63.2037 70.7871 60.6449Z" fill="#E8CD88" stroke="#76563F" stroke-width="0.5" stroke-linecap="round" stroke-linejoin="round"/>
<path d="M69.0243 70.8615C73.2157 68.798 78.0469 70.1561 79.8465 73.8113C81.6461 77.4665 79.7766 82.1236 75.5853 84.1874C71.3937 86.2511 66.5619 84.8933 64.7622 81.238C62.9625 77.5827 64.8328 72.9252 69.0243 70.8615Z" fill="#76563F" stroke="#76563F" stroke-width="0.5"/>
<path d="M69.9026 72.5872C72.9664 71.0787 76.4843 72.0761 77.7918 74.7311C79.0992 77.3864 77.7447 80.7835 74.6808 82.2921C71.6169 83.8005 68.0985 82.8026 66.7911 80.1473C65.4841 77.492 66.8389 74.0957 69.9026 72.5872Z" fill="#A78268" stroke="#76563F" stroke-width="0.5"/>
<path d="M85.9853 78.4617C83.6575 76.8696 82.9443 78.818 82.8786 79.9913C82.7211 82.807 85.9779 87.5926 87.626 89.6335L90.7326 88.104C90.12 85.5533 88.313 80.0539 85.9853 78.4617Z" fill="#DEC585" stroke="#76563F" stroke-width="0.5" stroke-linecap="round" stroke-linejoin="round"/>
<path d="M75.1015 88.1531C72.0818 88.6717 73.0182 90.3889 73.8639 91.1826C75.8935 93.0876 82.0731 93.9981 84.9093 94.2153L86.1468 91.1857C83.7233 89.9587 78.1212 87.6344 75.1015 88.1531Z" fill="#DEC585" stroke="#76563F" stroke-width="0.5" stroke-linecap="round" stroke-linejoin="round"/>
<path d="M74.0765 101.538C72.1338 103.864 74.1713 104.344 75.4329 104.293C78.4608 104.172 83.9433 100.674 86.306 98.9398L84.9497 96.1849C82.1348 97.0004 76.0193 99.2127 74.0765 101.538Z" fill="#DEC585" stroke="#76563F" stroke-width="0.5" stroke-linecap="round" stroke-linejoin="round"/>
<path d="M83.5108 110.776C83.783 113.547 85.7281 112.508 86.6666 111.643C88.919 109.566 90.4928 103.708 90.9982 101.039L87.8424 100.173C86.2851 102.553 83.2386 108.006 83.5108 110.776Z" fill="#DEC585" stroke="#76563F" stroke-width="0.5" stroke-linecap="round" stroke-linejoin="round"/>
<path d="M100.984 108.926C100.827 111.742 98.8478 111.119 97.8779 110.456C95.5501 108.864 93.7431 103.364 93.1306 100.814L96.2372 99.2842C97.8852 101.325 101.142 106.111 100.984 108.926Z" fill="#DEC585" stroke="#76563F" stroke-width="0.5" stroke-linecap="round" stroke-linejoin="round"/>
<path d="M109.999 97.7349C112.029 99.6399 110.02 100.548 108.762 100.764C105.742 101.283 100.14 98.9587 97.7163 97.7318L98.9539 94.7022C101.79 94.9193 107.97 95.8299 109.999 97.7349Z" fill="#DEC585" stroke="#76563F" stroke-width="0.5" stroke-linecap="round" stroke-linejoin="round"/>
<path d="M108.43 84.6243C111.458 84.5026 110.596 86.4102 109.787 87.3792C107.844 89.7048 101.728 91.9171 98.9135 92.7325L97.5571 89.9776C99.9199 88.2439 105.402 84.7459 108.43 84.6243Z" fill="#DEC585" stroke="#76563F" stroke-width="0.5" stroke-linecap="round" stroke-linejoin="round"/>
<path d="M97.1965 77.2746C99.4489 75.1976 100.239 76.9868 100.352 78.1411C100.625 80.9114 97.578 86.3644 96.0207 88.7446L92.8649 87.8781C93.3703 85.2091 94.9441 79.3517 97.1965 77.2746Z" fill="#DEC585" stroke="#76563F" stroke-width="0.5" stroke-linecap="round" stroke-linejoin="round"/>
<path d="M79.3166 82.2956C76.454 81.5368 76.5519 83.4727 76.9586 84.5356C77.9349 87.0864 82.9637 90.425 85.3561 91.7755L87.7141 89.5355C86.1077 87.4384 82.1792 83.0544 79.3166 82.2956Z" fill="#E8CD88" stroke="#76563F" stroke-width="0.5" stroke-linecap="round" stroke-linejoin="round"/>
<path d="M72.3621 94.5373C69.5927 95.8973 71.1788 97.1027 72.318 97.5353C75.052 98.5737 81.4831 97.499 84.3568 96.8318L84.401 93.8338C81.5419 93.5016 75.1315 93.1773 72.3621 94.5373Z" fill="#E8CD88" stroke="#76563F" stroke-width="0.5" stroke-linecap="round" stroke-linejoin="round"/>
<path d="M76.3539 106.837C75.3925 109.549 77.6098 109.394 78.8385 108.977C81.7877 107.977 85.7701 103.147 87.3928 100.857L84.9081 98.7165C82.4573 100.293 77.3153 104.125 76.3539 106.837Z" fill="#E8CD88" stroke="#76563F" stroke-width="0.5" stroke-linecap="round" stroke-linejoin="round"/>
<path d="M88.9672 112.249C90.3497 114.639 91.9134 113.104 92.5224 112.037C93.9841 109.479 93.2468 103.755 92.6955 101.213L89.1403 101.425C88.5065 104.037 87.5847 109.86 88.9672 112.249Z" fill="#E8CD88" stroke="#76563F" stroke-width="0.5" stroke-linecap="round" stroke-linejoin="round"/>
<path d="M105.351 105.147C106.327 107.698 104.186 107.703 102.993 107.387C100.13 106.628 96.2021 102.244 94.5957 100.147L96.9537 97.907C99.346 99.2574 104.375 102.596 105.351 105.147Z" fill="#E8CD88" stroke="#76563F" stroke-width="0.5" stroke-linecap="round" stroke-linejoin="round"/>
<path d="M109.992 92.147C112.726 93.1854 111.102 94.5784 109.948 95.145C107.178 96.505 100.768 96.1807 97.9088 95.8485L97.9529 92.8505C100.827 92.1834 107.258 91.1086 109.992 92.147Z" fill="#E8CD88" stroke="#76563F" stroke-width="0.5" stroke-linecap="round" stroke-linejoin="round"/>
<path d="M103.471 80.7051C106.42 79.7051 106.356 81.7153 105.956 82.8454C104.995 85.5576 99.8525 89.3891 97.4017 90.9658L94.917 88.8256C96.5396 86.5354 100.522 81.7051 103.471 80.7051Z" fill="#E8CD88" stroke="#76563F" stroke-width="0.5" stroke-linecap="round" stroke-linejoin="round"/>
<path d="M89.7873 77.6451C91.249 75.0863 92.7665 76.4378 93.3426 77.4334C94.7251 79.8228 93.8032 85.6452 93.1694 88.2578L89.6142 88.4695C89.0629 85.9275 88.3257 80.2039 89.7873 77.6451Z" fill="#E8CD88" stroke="#76563F" stroke-width="0.5" stroke-linecap="round" stroke-linejoin="round"/>
<path d="M88.0245 87.8617C92.216 85.7983 97.0471 87.1563 98.8467 90.8115C100.646 94.4667 98.7768 99.1238 94.5855 101.188C90.394 103.251 85.5621 101.894 83.7624 98.2382C81.9628 94.583 83.833 89.9254 88.0245 87.8617Z" fill="#76563F" stroke="#76563F" stroke-width="0.5"/>
<path d="M88.9028 89.5874C91.9666 88.079 95.4845 89.0763 96.792 91.7313C98.0994 94.3867 96.7449 97.7838 93.681 99.2923C90.6171 100.801 87.0987 99.8028 85.7914 97.1475C84.4844 94.4923 85.8392 91.0959 88.9028 89.5874Z" fill="#A78268" stroke="#76563F" stroke-width="0.5"/>
<path d="M129.985 52.4616C127.658 50.8695 126.944 52.8179 126.879 53.9912C126.721 56.8069 129.978 61.5925 131.626 63.6334L134.733 62.1038C134.12 59.5531 132.313 54.0537 129.985 52.4616Z" fill="#DEC585" stroke="#76563F" stroke-width="0.5" stroke-linecap="round" stroke-linejoin="round"/>
<path d="M119.102 62.1529C116.082 62.6716 117.018 64.3888 117.864 65.1825C119.894 67.0875 126.073 67.998 128.909 68.2152L130.147 65.1856C127.723 63.9586 122.121 61.6343 119.102 62.1529Z" fill="#DEC585" stroke="#76563F" stroke-width="0.5" stroke-linecap="round" stroke-linejoin="round"/>
<path d="M118.077 75.5382C116.134 77.8638 118.171 78.3438 119.433 78.2931C122.461 78.1714 127.943 74.6735 130.306 72.9397L128.95 70.1848C126.135 71.0002 120.019 73.2126 118.077 75.5382Z" fill="#DEC585" stroke="#76563F" stroke-width="0.5" stroke-linecap="round" stroke-linejoin="round"/>
<path d="M127.511 84.7763C127.783 87.5465 129.728 86.5082 130.667 85.6428C132.919 83.5657 134.493 77.7083 134.998 75.0393L131.842 74.1728C130.285 76.553 127.239 82.0061 127.511 84.7763Z" fill="#DEC585" stroke="#76563F" stroke-width="0.5" stroke-linecap="round" stroke-linejoin="round"/>
<path d="M144.984 82.9263C144.827 85.742 142.848 85.1192 141.878 84.4558C139.55 82.8637 137.743 77.3643 137.131 74.8136L140.237 73.284C141.885 75.3249 145.142 80.1105 144.984 82.9263Z" fill="#DEC585" stroke="#76563F" stroke-width="0.5" stroke-linecap="round" stroke-linejoin="round"/>
<path d="M153.999 71.7348C156.029 73.6398 154.02 74.5482 152.762 74.7643C149.742 75.283 144.14 72.9586 141.716 71.7316L142.954 68.7021C145.79 68.9192 151.97 69.8297 153.999 71.7348Z" fill="#DEC585" stroke="#76563F" stroke-width="0.5" stroke-linecap="round" stroke-linejoin="round"/>
<path d="M152.43 58.6242C155.458 58.5025 154.596 60.4101 153.787 61.3791C151.844 63.7047 145.728 65.917 142.914 66.7324L141.557 63.9775C143.92 62.2438 149.402 58.7458 152.43 58.6242Z" fill="#DEC585" stroke="#76563F" stroke-width="0.5" stroke-linecap="round" stroke-linejoin="round"/>
<path d="M141.197 51.2745C143.449 49.1975 144.239 50.9867 144.352 52.141C144.625 54.9112 141.578 60.3642 140.021 62.7445L136.865 61.878C137.37 59.2089 138.944 53.3516 141.197 51.2745Z" fill="#DEC585" stroke="#76563F" stroke-width="0.5" stroke-linecap="round" stroke-linejoin="round"/>
<path d="M123.317 56.2955C120.454 55.5366 120.552 57.4726 120.959 58.5355C121.935 61.0863 126.964 64.4249 129.356 65.7753L131.714 63.5354C130.108 61.4383 126.179 57.0543 123.317 56.2955Z" fill="#E8CD88" stroke="#76563F" stroke-width="0.5" stroke-linecap="round" stroke-linejoin="round"/>
<path d="M116.362 68.5372C113.593 69.8972 115.179 71.1025 116.318 71.5352C119.052 72.5736 125.483 71.4989 128.357 70.8317L128.401 67.8337C125.542 67.5015 119.132 67.1772 116.362 68.5372Z" fill="#E8CD88" stroke="#76563F" stroke-width="0.5" stroke-linecap="round" stroke-linejoin="round"/>
<path d="M120.354 80.8368C119.393 83.549 121.61 83.3937 122.839 82.9771C125.788 81.9771 129.77 77.1468 131.393 74.8566L128.908 72.7164C126.457 74.2931 121.315 78.1247 120.354 80.8368Z" fill="#E8CD88" stroke="#76563F" stroke-width="0.5" stroke-linecap="round" stroke-linejoin="round"/>
<path d="M132.967 86.249C134.35 88.6384 135.913 87.1034 136.522 86.0372C137.984 83.4784 137.247 77.7548 136.695 75.2128L133.14 75.4246C132.507 78.0371 131.585 83.8595 132.967 86.249Z" fill="#E8CD88" stroke="#76563F" stroke-width="0.5" stroke-linecap="round" stroke-linejoin="round"/>
<path d="M149.351 79.1467C150.327 81.6976 148.186 81.7029 146.993 81.3867C144.13 80.6279 140.202 76.2439 138.596 74.1468L140.954 71.9068C143.346 73.2573 148.375 76.5959 149.351 79.1467Z" fill="#E8CD88" stroke="#76563F" stroke-width="0.5" stroke-linecap="round" stroke-linejoin="round"/>
<path d="M153.992 66.1469C156.726 67.1853 155.102 68.5782 153.948 69.1449C151.178 70.5049 144.768 70.1806 141.909 69.8484L141.953 66.8504C144.827 66.1832 151.258 65.1085 153.992 66.1469Z" fill="#E8CD88" stroke="#76563F" stroke-width="0.5" stroke-linecap="round" stroke-linejoin="round"/>
<path d="M147.471 54.705C150.42 53.705 150.356 55.7152 149.956 56.8452C148.995 59.5574 143.852 63.3889 141.402 64.9657L138.917 62.8254C140.54 60.5353 144.522 55.705 147.471 54.705Z" fill="#E8CD88" stroke="#76563F" stroke-width="0.5" stroke-linecap="round" stroke-linejoin="round"/>
<path d="M133.787 51.645C135.249 49.0861 136.767 50.4376 137.343 51.4333C138.725 53.8227 137.803 59.6451 137.169 62.2576L133.614 62.4694C133.063 59.9274 132.326 54.2038 133.787 51.645Z" fill="#E8CD88" stroke="#76563F" stroke-width="0.5" stroke-linecap="round" stroke-linejoin="round"/>
<path d="M132.025 61.8616C136.216 59.7981 141.047 61.1562 142.847 64.8114C144.646 68.4666 142.777 73.1237 138.586 75.1875C134.394 77.2512 129.562 75.8934 127.762 72.2381C125.963 68.5828 127.833 63.9253 132.025 61.8616Z" fill="#76563F" stroke="#76563F" stroke-width="0.5"/>
<path d="M132.903 63.5873C135.967 62.0789 139.485 63.0762 140.792 65.7312C142.099 68.3866 140.745 71.7837 137.681 73.2922C134.617 74.8006 131.099 73.8027 129.791 71.1474C128.484 68.4921 129.839 65.0958 132.903 63.5873Z" fill="#A78268" stroke="#76563F" stroke-width="0.5"/>
<path d="M97.7133 23.2005C95.023 22.3545 94.9075 24.4261 95.1861 25.5677C95.8545 28.3075 100.363 31.9386 102.533 33.4116L105.061 31.0444C103.732 28.7823 100.404 24.0465 97.7133 23.2005Z" fill="#DEC585" stroke="#76563F" stroke-width="0.5" stroke-linecap="round" stroke-linejoin="round"/>
<path d="M90.1199 35.6392C87.3818 37.014 88.7773 38.3844 89.8173 38.8978C92.3134 40.1299 98.4906 39.2031 101.267 38.5857L101.57 35.3272C98.8941 34.8584 92.8581 34.2645 90.1199 35.6392Z" fill="#DEC585" stroke="#76563F" stroke-width="0.5" stroke-linecap="round" stroke-linejoin="round"/>
<path d="M93.0336 48.7437C91.8515 51.5339 93.9406 51.4003 95.1328 50.9848C97.9943 49.9875 102.222 45.0457 103.978 42.6995L101.879 40.4584C99.423 42.0576 94.2157 45.9534 93.0336 48.7437Z" fill="#DEC585" stroke="#76563F" stroke-width="0.5" stroke-linecap="round" stroke-linejoin="round"/>
<path d="M104.748 54.8373C105.814 57.4085 107.373 55.8492 108.019 54.7482C109.57 52.1056 109.371 46.0438 109.078 43.3431L105.807 43.4323C105.009 46.1626 103.681 52.2661 104.748 54.8373Z" fill="#DEC585" stroke="#76563F" stroke-width="0.5" stroke-linecap="round" stroke-linejoin="round"/>
<path d="M120.927 47.9834C121.595 50.7232 119.521 50.7031 118.4 50.3506C115.71 49.5046 112.381 44.7688 111.053 42.5067L113.58 40.1395C115.75 41.6126 120.259 45.2437 120.927 47.9834Z" fill="#DEC585" stroke="#76563F" stroke-width="0.5" stroke-linecap="round" stroke-linejoin="round"/>
<path d="M126.296 34.6533C128.792 35.8854 127.134 37.339 125.993 37.9119C123.255 39.2866 117.219 38.6927 114.543 38.2239L114.846 34.9653C117.623 34.3479 123.8 33.4212 126.296 34.6533Z" fill="#DEC585" stroke="#76563F" stroke-width="0.5" stroke-linecap="round" stroke-linejoin="round"/>
<path d="M120.98 22.5664C123.842 21.5691 123.572 23.6449 123.079 24.8075C121.897 27.5977 116.69 31.4936 114.234 33.0927L112.135 30.8516C113.891 28.5054 118.119 23.5637 120.98 22.5664Z" fill="#DEC585" stroke="#76563F" stroke-width="0.5" stroke-linecap="round" stroke-linejoin="round"/>
<path d="M108.094 18.8031C109.645 16.1606 110.921 17.6426 111.366 18.714C112.432 21.2852 111.104 27.3886 110.306 30.119L107.035 30.2081C106.742 27.5075 106.543 21.4456 108.094 18.8031Z" fill="#DEC585" stroke="#76563F" stroke-width="0.5" stroke-linecap="round" stroke-linejoin="round"/>
<path d="M92.4485 28.8087C89.489 28.9155 90.1458 30.7393 90.8442 31.6378C92.5204 33.7943 98.303 35.5253 100.985 36.1213L102.589 33.2922C100.442 31.7532 95.4081 28.7018 92.4485 28.8087Z" fill="#E8CD88" stroke="#76563F" stroke-width="0.5" stroke-linecap="round" stroke-linejoin="round"/>
<path d="M89.3565 42.5443C87.1026 44.6512 88.9707 45.3429 90.1865 45.4254C93.1044 45.6235 98.9445 42.7241 101.5 41.2497L100.67 38.3686C97.8379 38.8826 91.6104 40.4374 89.3565 42.5443Z" fill="#E8CD88" stroke="#76563F" stroke-width="0.5" stroke-linecap="round" stroke-linejoin="round"/>
<path d="M96.754 53.1504C96.6233 56.025 98.6995 55.2313 99.7539 54.4752C102.284 52.6604 104.689 46.8804 105.575 44.2173L102.576 42.8925C100.69 45.1141 96.8848 50.2758 96.754 53.1504Z" fill="#E8CD88" stroke="#76563F" stroke-width="0.5" stroke-linecap="round" stroke-linejoin="round"/>
<path d="M110.396 54.6587C112.414 56.5425 113.464 54.619 113.736 53.4217C114.39 50.5483 112.019 45.2868 110.752 43.0153L107.413 44.2522C107.566 46.9361 108.378 52.7748 110.396 54.6587Z" fill="#E8CD88" stroke="#76563F" stroke-width="0.5" stroke-linecap="round" stroke-linejoin="round"/>
<path d="M124.005 43.097C125.681 45.2535 123.634 45.8816 122.401 45.9261C119.441 46.033 114.407 42.9816 112.26 41.4426L113.865 38.6135C116.546 39.2095 122.329 40.9406 124.005 43.097Z" fill="#E8CD88" stroke="#76563F" stroke-width="0.5" stroke-linecap="round" stroke-linejoin="round"/>
<path d="M124.663 29.3093C127.581 29.5073 126.432 31.3126 125.493 32.1905C123.239 34.2974 117.012 35.8521 114.18 36.3661L113.35 33.485C115.905 32.0106 121.745 29.1113 124.663 29.3093Z" fill="#E8CD88" stroke="#76563F" stroke-width="0.5" stroke-linecap="round" stroke-linejoin="round"/>
<path d="M115.096 20.2595C117.626 18.4448 118.15 20.3866 118.095 21.5843C117.965 24.4589 114.16 29.6206 112.274 31.8422L109.274 30.5175C110.16 27.8543 112.565 22.0743 115.096 20.2595Z" fill="#E8CD88" stroke="#76563F" stroke-width="0.5" stroke-linecap="round" stroke-linejoin="round"/>
<path d="M101.113 21.3131C101.767 18.4397 103.612 19.2912 104.453 20.0762C106.471 21.96 107.283 27.7988 107.437 30.4827L104.097 31.7196C102.83 29.448 100.459 24.1865 101.113 21.3131Z" fill="#E8CD88" stroke="#76563F" stroke-width="0.5" stroke-linecap="round" stroke-linejoin="round"/>
<path d="M102.399 31.6006C105.809 28.407 110.826 28.3007 113.611 31.2742C116.397 34.2477 115.963 39.2473 112.553 42.4412C109.144 45.6351 104.126 45.7419 101.34 42.7683C98.5551 39.7947 98.9893 34.7945 102.399 31.6006Z" fill="#76563F" stroke="#76563F" stroke-width="0.5"/>
<path d="M103.742 32.9961C106.234 30.6616 109.89 30.5922 111.913 32.752C113.937 34.9121 113.629 38.5563 111.137 40.891C108.644 43.2256 104.988 43.2945 102.964 41.1344C100.941 38.9743 101.249 35.3307 103.742 32.9961Z" fill="#A78268" stroke="#76563F" stroke-width="0.5"/>
<path d="M50.6737 23.9187C47.855 23.828 48.3013 25.8542 48.8768 26.8787C50.258 29.3375 55.5772 31.6212 58.0641 32.4557L59.8609 29.4957C57.973 27.6745 53.4923 24.0094 50.6737 23.9187Z" fill="#DEC585" stroke="#76563F" stroke-width="0.5" stroke-linecap="round" stroke-linejoin="round"/>
<path d="M46.7083 37.942C44.4412 40.003 46.154 40.9473 47.2938 41.1618C50.0294 41.6767 55.7292 39.1216 58.2372 37.7797L57.6517 34.5599C54.9485 34.8285 48.9754 35.8811 46.7083 37.942Z" fill="#DEC585" stroke="#76563F" stroke-width="0.5" stroke-linecap="round" stroke-linejoin="round"/>
<path d="M53.0413 49.7787C52.6538 52.7841 54.6298 52.0933 55.6663 51.3722C58.1537 49.6415 60.8954 43.7443 61.9553 41.0121L59.3303 39.4186C57.3955 41.6197 53.4288 46.7733 53.0413 49.7787Z" fill="#DEC585" stroke="#76563F" stroke-width="0.5" stroke-linecap="round" stroke-linejoin="round"/>
<path d="M65.9631 52.4948C67.6822 54.6841 68.7638 52.7628 69.0897 51.5285C69.872 48.5661 68.0494 42.7813 67.0403 40.2592L63.9137 41.2255C63.8805 44.0698 64.244 50.3055 65.9631 52.4948Z" fill="#DEC585" stroke="#76563F" stroke-width="0.5" stroke-linecap="round" stroke-linejoin="round"/>
<path d="M79.7009 41.5393C81.0821 43.9981 79.0785 44.5371 77.9041 44.4993C75.0854 44.4086 70.6048 40.7435 68.7168 38.9223L70.5137 35.9623C73.0006 36.7968 78.3197 39.0805 79.7009 41.5393Z" fill="#DEC585" stroke="#76563F" stroke-width="0.5" stroke-linecap="round" stroke-linejoin="round"/>
<path d="M81.2839 27.2562C84.0195 27.771 82.8141 29.6172 81.8695 30.476C79.6023 32.537 73.6292 33.5895 70.9261 33.8581L70.3406 30.6383C72.8485 29.2964 78.5484 26.7413 81.2839 27.2562Z" fill="#DEC585" stroke="#76563F" stroke-width="0.5" stroke-linecap="round" stroke-linejoin="round"/>
<path d="M72.9115 17.0459C75.3989 15.3152 75.6979 17.3871 75.5364 18.6393C75.1489 21.6447 71.1823 26.7983 69.2474 28.9994L66.6225 27.406C67.6824 24.6737 70.424 18.7765 72.9115 17.0459Z" fill="#DEC585" stroke="#76563F" stroke-width="0.5" stroke-linecap="round" stroke-linejoin="round"/>
<path d="M59.488 16.8895C60.2702 13.9271 61.8984 15.0109 62.6147 15.9231C64.3338 18.1124 64.6972 24.3482 64.664 27.1924L61.5374 28.1587C60.5283 25.6366 58.7057 19.8518 59.488 16.8895Z" fill="#DEC585" stroke="#76563F" stroke-width="0.5" stroke-linecap="round" stroke-linejoin="round"/>
<path d="M47.1126 30.7368C44.291 31.6362 45.4145 33.2159 46.3289 33.8933C48.5236 35.5191 54.5588 35.6299 57.302 35.4822L58.0857 32.3257C55.6036 31.4213 49.9342 29.8374 47.1126 30.7368Z" fill="#E8CD88" stroke="#76563F" stroke-width="0.5" stroke-linecap="round" stroke-linejoin="round"/>
<path d="M47.8314 44.7978C46.2277 47.4335 48.2131 47.597 49.4062 47.3492C52.2698 46.7546 57.1141 42.3905 59.1783 40.2827L57.6035 37.7313C55.0144 38.9885 49.4351 42.162 47.8314 44.7978Z" fill="#E8CD88" stroke="#76563F" stroke-width="0.5" stroke-linecap="round" stroke-linejoin="round"/>
<path d="M57.8105 53.0216C58.4583 55.8253 60.2443 54.5022 61.0562 53.4902C63.005 51.0613 63.7656 44.8473 63.9022 42.0439L60.6565 41.5754C59.438 44.2226 57.1628 50.218 57.8105 53.0216Z" fill="#E8CD88" stroke="#76563F" stroke-width="0.5" stroke-linecap="round" stroke-linejoin="round"/>
<path d="M71.3553 50.8025C73.8058 52.0738 74.2988 49.9388 74.239 48.7124C74.0955 45.769 70.3963 41.3397 68.5646 39.4929L65.681 41.5831C66.5514 44.1265 68.9049 49.5313 71.3553 50.8025Z" fill="#E8CD88" stroke="#76563F" stroke-width="0.5" stroke-linecap="round" stroke-linejoin="round"/>
<path d="M81.3503 36.0048C83.545 37.6306 81.7423 38.7865 80.5667 39.1613C77.7451 40.0607 72.0756 38.4768 69.5936 37.5724L70.3773 34.4159C73.1205 34.2681 79.1557 34.379 81.3503 36.0048Z" fill="#E8CD88" stroke="#76563F" stroke-width="0.5" stroke-linecap="round" stroke-linejoin="round"/>
<path d="M78.273 22.5488C81.1366 21.9542 80.516 24.002 79.8478 25.1003C78.2441 27.7361 72.6649 30.9095 70.0757 32.1667L68.5009 29.6153C70.5652 27.5075 75.4095 23.1434 78.273 22.5488Z" fill="#E8CD88" stroke="#76563F" stroke-width="0.5" stroke-linecap="round" stroke-linejoin="round"/>
<path d="M66.623 16.4079C68.5718 13.979 69.5988 15.7082 69.8687 16.8764C70.5165 19.6801 68.2413 25.6754 67.0227 28.3226L63.777 27.8541C63.9137 25.0507 64.6742 18.8368 66.623 16.4079Z" fill="#E8CD88" stroke="#76563F" stroke-width="0.5" stroke-linecap="round" stroke-linejoin="round"/>
<path d="M53.4402 21.1858C53.2967 18.2424 55.3029 18.566 56.3239 19.0956C58.7743 20.3669 61.1278 25.7717 61.9982 28.3151L59.1146 30.4053C57.2829 28.5585 53.5837 24.1292 53.4402 21.1858Z" fill="#E8CD88" stroke="#76563F" stroke-width="0.5" stroke-linecap="round" stroke-linejoin="round"/>
<path d="M57.4475 30.7476C59.8719 26.7541 64.6754 25.3014 68.1582 27.4156C71.6409 29.5297 72.5688 34.4616 70.1446 38.4553C67.7203 42.4491 62.9163 43.9024 59.4334 41.7882C55.9506 39.6739 55.0231 34.7414 57.4475 30.7476Z" fill="#76563F" stroke="#76563F" stroke-width="0.5"/>
<path d="M59.1159 31.7304C60.888 28.8112 64.3903 27.7604 66.9204 29.2959C69.4504 30.8318 70.1351 34.4243 68.3629 37.3437C66.5907 40.2629 63.0876 41.3134 60.5576 39.7776C58.0279 38.2416 57.344 34.6496 59.1159 31.7304Z" fill="#A78268" stroke="#76563F" stroke-width="0.5"/>
<path d="M168.93 101.289L163.788 103.048L84.8197 130.068C105.523 137.349 127.71 142.722 149.201 143.7C161.991 124.514 168.93 107.685 168.93 101.289Z" fill="#B1A2C0" stroke="#42364E" stroke-linecap="round" stroke-linejoin="round"/>
<path d="M2.65112 88.4985C28.8274 106.953 96.172 143.861 156.14 143.861L66.9021 195.763L99.0275 240.744C61.9048 257.353 33.5868 243.051 24.0681 233.824L66.9021 195.763L34.7766 142.131L2.65112 88.4985Z" fill="#805CA5"/>
<path d="M66.9021 195.763L156.14 143.861C96.172 143.861 28.8274 106.953 2.65112 88.4985L34.7766 142.131L66.9021 195.763ZM66.9021 195.763L24.0681 233.824C33.5868 243.051 61.9048 257.353 99.0275 240.744L66.9021 195.763Z" stroke="#42364E" stroke-linecap="round" stroke-linejoin="round"/>
<path d="M68.655 193.914C61.2798 191.501 45.1545 189.183 39.6544 199.215C34.1542 209.246 56.6964 199.861 68.655 193.914ZM68.655 193.914C76.1916 192.066 92.4461 190.976 97.1712 201.395C101.896 211.814 80.1292 200.749 68.655 193.914ZM68.655 193.914C62.214 205.355 46.6461 227.253 35.902 223.323M68.655 193.914C68.5686 204.634 71.0098 226.42 81.4655 227.808" stroke="#B1A2C0" stroke-width="0.1" stroke-linecap="round" stroke-linejoin="round"/>
<path d="M68.4596 194.35C61.4035 191.121 45.6422 187 39.0463 196.348C32.4503 205.695 55.9068 198.911 68.4596 194.35ZM68.4596 194.35C76.1565 193.364 92.4303 194.113 95.9507 204.998C99.4711 215.883 79.0901 202.435 68.4596 194.35ZM68.4596 194.35C60.7699 204.992 42.8325 224.996 32.5999 219.88M68.4596 194.35C67.1653 204.992 67.1348 226.915 77.3674 229.473" stroke="#42364E" stroke-width="0.5" stroke-linecap="round" stroke-linejoin="round"/>
</svg>
