<svg width="168" height="243" viewBox="0 0 168 243" fill="none" xmlns="http://www.w3.org/2000/svg">
<path d="M166.895 38.7803C166.895 38.7803 161.349 69.4558 152.309 89.7326C131.584 136.222 65.7352 187.164 65.7352 187.164C65.7352 187.164 18.851 126.412 12.3332 78.6039C9.33354 56.6017 12.3332 21.7426 12.3332 21.7426C66.4297 -0.0656567 137.914 24.0143 166.895 38.7803Z" fill="#BBAB71" stroke="#615B47" stroke-linecap="round" stroke-linejoin="round"/>
<path d="M57.2203 45.2326C25.6203 36.8326 20.0536 62.7326 21.2203 76.7326C27.0536 93.3993 41.1203 125.133 50.7203 118.733C62.7203 110.733 75.7203 113.733 107.72 118.733C139.72 123.733 125.22 95.2326 142.22 89.2326C159.22 83.2326 127.22 48.7326 107.72 54.7326C88.2203 60.7326 96.7203 55.7326 57.2203 45.2326Z" fill="#7E9256"/>
<path d="M22.1484 83.5L53.1484 167.5M38.1484 101L53.1484 156.5M61.1484 89L58.6484 167.5M85.1484 106.5L71.029 150.5M63.6484 173.5L71.029 150.5M101.648 117L67.6484 181.5M120.648 114.5L80.1484 171M142.148 85L91.6484 145M123.148 87L93.6484 156.5M116.648 80L90.1484 153.5M114.648 53L80.1484 150.5M96.1484 58.5L74.6484 153.5M90.1484 36.5L71.029 150.5M61.1484 42.5L67.6484 141.5M31.1484 65L56.6484 148M18.6484 58.5L47.1484 143" stroke="#829F7E" stroke-linecap="round" stroke-linejoin="round"/>
<path d="M22.1686 76.1355C21.6721 75.2992 21.1342 75.787 20.9273 76.1355C20.4307 76.9717 20.7204 78.9231 20.9273 79.7942H22.1686C22.3755 78.9231 22.6652 76.9717 22.1686 76.1355Z" fill="#FCF4E1" stroke="#76563F" stroke-width="0.1" stroke-linecap="round" stroke-linejoin="round"/>
<path d="M17.1335 77.4587C16.0802 77.1631 16.1095 77.8283 16.2558 78.1979C16.6069 79.0849 18.4502 80.2923 19.328 80.785L20.2057 80.0459C19.6206 79.3067 18.1869 77.7544 17.1335 77.4587Z" fill="#FCF4E1" stroke="#76563F" stroke-width="0.1" stroke-linecap="round" stroke-linejoin="round"/>
<path d="M14.6843 81.3927C13.6913 81.8109 14.2705 82.2638 14.6843 82.4381C15.6774 82.8562 17.9946 82.6123 19.0291 82.4381L19.0291 81.3927C17.9946 81.2185 15.6774 80.9746 14.6843 81.3927Z" fill="#FCF4E1" stroke="#76563F" stroke-width="0.1" stroke-linecap="round" stroke-linejoin="round"/>
<path d="M16.2557 85.6328C15.9046 86.5198 16.6946 86.4951 17.1335 86.3719C18.1868 86.0763 19.6205 84.524 20.2057 83.7848L19.3279 83.0456C18.4502 83.5384 16.6068 84.7457 16.2557 85.6328Z" fill="#FCF4E1" stroke="#76563F" stroke-width="0.1" stroke-linecap="round" stroke-linejoin="round"/>
<path d="M22.1686 87.6952C21.6721 88.5315 21.1342 88.0437 20.9273 87.6952C20.4307 86.8589 20.7204 84.9076 20.9273 84.0365H22.1686C22.3755 84.9076 22.6652 86.8589 22.1686 87.6952Z" fill="#FCF4E1" stroke="#76563F" stroke-width="0.1" stroke-linecap="round" stroke-linejoin="round"/>
<path d="M26.8401 85.6328C27.1913 86.5198 26.4013 86.4951 25.9624 86.3719C24.9091 86.0763 23.4754 84.524 22.8902 83.7848L23.7679 83.0456C24.6457 83.5384 26.489 84.7457 26.8401 85.6328Z" fill="#FCF4E1" stroke="#76563F" stroke-width="0.1" stroke-linecap="round" stroke-linejoin="round"/>
<path d="M28.4116 81.3927C29.4047 81.8109 28.8254 82.2638 28.4116 82.4381C27.4185 82.8562 25.1013 82.6123 24.0668 82.4381L24.0668 81.3927C25.1013 81.2185 27.4185 80.9746 28.4116 81.3927Z" fill="#FCF4E1" stroke="#76563F" stroke-width="0.1" stroke-linecap="round" stroke-linejoin="round"/>
<path d="M25.9624 77.4587C27.0157 77.1631 26.9864 77.8283 26.8401 78.1979C26.489 79.0849 24.6457 80.2923 23.7679 80.785L22.8902 80.0459C23.4754 79.3067 24.909 77.7544 25.9624 77.4587Z" fill="#FCF4E1" stroke="#76563F" stroke-width="0.1" stroke-linecap="round" stroke-linejoin="round"/>
<path d="M19.8035 76.3876C19.0054 75.7175 18.7441 76.3205 18.7132 76.7058C18.639 77.6304 19.7379 79.4167 20.2967 80.1942L21.387 79.8761C21.1917 78.9924 20.6015 77.0577 19.8035 76.3876Z" fill="#FFF9E9" stroke="#76563F" stroke-width="0.1" stroke-linecap="round" stroke-linejoin="round"/>
<path d="M15.6355 79.0805C14.5311 79.069 14.86 79.6717 15.1625 79.9745C15.8885 80.7011 18.1342 81.3536 19.1663 81.5891L19.6393 80.6951C18.7648 80.1617 16.7398 79.0919 15.6355 79.0805Z" fill="#FFF9E9" stroke="#76563F" stroke-width="0.1" stroke-linecap="round" stroke-linejoin="round"/>
<path d="M14.9895 83.4178C14.2619 84.1036 15.0038 84.4012 15.4657 84.4642C16.5743 84.6155 18.6054 83.7478 19.4823 83.2949L19.0061 82.2485C17.9704 82.3525 15.7171 82.7319 14.9895 83.4178Z" fill="#FFF9E9" stroke="#76563F" stroke-width="0.1" stroke-linecap="round" stroke-linejoin="round"/>
<path d="M18.1897 86.9755C18.2729 87.9144 19.0253 87.6877 19.3911 87.4569C20.269 86.9032 20.9159 85.0494 21.1296 84.1917L19.9282 83.7103C19.3141 84.4075 18.1066 86.0366 18.1897 86.9755Z" fill="#FFF9E9" stroke="#76563F" stroke-width="0.1" stroke-linecap="round" stroke-linejoin="round"/>
<path d="M24.5837 87.2942C24.5095 88.2188 23.8259 87.8916 23.4934 87.6124C22.6953 86.9423 22.1052 85.0076 21.9099 84.1239L23.0002 83.8058C23.5589 84.5833 24.6579 86.3696 24.5837 87.2942Z" fill="#FFF9E9" stroke="#76563F" stroke-width="0.1" stroke-linecap="round" stroke-linejoin="round"/>
<path d="M28.1344 84.0256C28.8603 84.7522 28.1215 84.9244 27.6614 84.9196C26.557 84.9081 24.5321 83.8384 23.6576 83.305L24.1306 82.411C25.1627 82.6464 27.4084 83.2989 28.1344 84.0256Z" fill="#FFF9E9" stroke="#76563F" stroke-width="0.1" stroke-linecap="round" stroke-linejoin="round"/>
<path d="M27.8311 79.5358C28.9397 79.6871 28.6105 80.2965 28.3073 80.5822C27.5797 81.2681 25.3264 81.6475 24.2907 81.7515L23.8145 80.705C24.6915 80.2522 26.7226 79.3845 27.8311 79.5358Z" fill="#FFF9E9" stroke="#76563F" stroke-width="0.1" stroke-linecap="round" stroke-linejoin="round"/>
<path d="M23.9058 76.5431C24.7837 75.9893 25.0725 76.6333 25.1071 77.0245C25.1903 77.9634 23.9828 79.5925 23.3686 80.2897L22.1673 79.8083C22.381 78.9507 23.0279 77.0969 23.9058 76.5431Z" fill="#FFF9E9" stroke="#76563F" stroke-width="0.1" stroke-linecap="round" stroke-linejoin="round"/>
<ellipse cx="21.5894" cy="81.9503" rx="2.48446" ry="2.09218" fill="#FCDC8A" stroke="#F5CF6C"/>
<path d="M17.2315 50.2692C16.5354 49.59 16.1421 50.2004 16.0324 50.5905C15.7692 51.5268 16.5541 53.3367 16.9794 54.1246L18.1784 53.8033C18.1528 52.9083 17.9275 50.9485 17.2315 50.2692Z" fill="#FCF4E1" stroke="#76563F" stroke-width="0.1" stroke-linecap="round" stroke-linejoin="round"/>
<path d="M12.7104 52.8507C11.6165 52.8377 11.8169 53.4727 12.0539 53.7918C12.6226 54.5577 14.7156 55.2468 15.691 55.4956L16.3475 54.5545C15.591 53.9919 13.8044 52.8636 12.7104 52.8507Z" fill="#FCF4E1" stroke="#76563F" stroke-width="0.1" stroke-linecap="round" stroke-linejoin="round"/>
<path d="M11.3629 57.2844C10.5118 57.9453 11.1886 58.2329 11.6334 58.2941C12.7009 58.441 14.876 57.6056 15.8301 57.1696L15.5596 56.1599C14.5153 56.2593 12.2139 56.6235 11.3629 57.2844Z" fill="#FCF4E1" stroke="#76563F" stroke-width="0.1" stroke-linecap="round" stroke-linejoin="round"/>
<path d="M13.9781 60.9733C13.8686 61.921 14.6253 61.6927 15.0173 61.4601C15.9582 60.9019 16.9413 59.0315 17.3152 58.166L16.2761 57.6792C15.5557 58.3824 14.0877 60.0257 13.9781 60.9733Z" fill="#FCF4E1" stroke="#76563F" stroke-width="0.1" stroke-linecap="round" stroke-linejoin="round"/>
<path d="M20.2234 61.4352C19.9602 62.3715 19.3143 62.0395 19.0243 61.7565C18.3282 61.0772 18.103 59.1174 18.0774 58.2224L19.2764 57.9011C19.7017 58.689 20.4865 60.4989 20.2234 61.4352Z" fill="#FCF4E1" stroke="#76563F" stroke-width="0.1" stroke-linecap="round" stroke-linejoin="round"/>
<path d="M24.2019 58.2338C24.7706 58.9997 24.0012 59.1804 23.5453 59.175C22.4514 59.162 20.6648 58.0337 19.9082 57.4712L20.5648 56.53C21.5402 56.7788 23.6332 57.4679 24.2019 58.2338Z" fill="#FCF4E1" stroke="#76563F" stroke-width="0.1" stroke-linecap="round" stroke-linejoin="round"/>
<path d="M24.6224 53.7316C25.6898 53.8784 25.2475 54.4659 24.8929 54.7413C24.0419 55.4022 21.7405 55.7663 20.6962 55.8658L20.4257 54.8561C21.3798 54.42 23.5549 53.5847 24.6224 53.7316Z" fill="#FCF4E1" stroke="#76563F" stroke-width="0.1" stroke-linecap="round" stroke-linejoin="round"/>
<path d="M21.2384 50.5656C22.1793 50.0073 22.3233 50.6575 22.2776 51.0524C22.168 52 20.7 53.6433 19.9797 54.3465L18.9405 53.8597C19.3144 52.9942 20.2975 51.1238 21.2384 50.5656Z" fill="#FCF4E1" stroke="#76563F" stroke-width="0.1" stroke-linecap="round" stroke-linejoin="round"/>
<path d="M15.0122 51.1249C14.0678 50.6842 13.9715 51.3343 14.0413 51.7144C14.209 52.6267 15.7328 54.0677 16.4738 54.6741L17.4446 54.0846C17.0272 53.2816 15.9565 51.5656 15.0122 51.1249Z" fill="#FFF9E9" stroke="#76563F" stroke-width="0.1" stroke-linecap="round" stroke-linejoin="round"/>
<path d="M11.6831 54.8047C10.6135 55.0795 11.0871 55.5765 11.4577 55.7907C12.347 56.3047 14.685 56.3537 15.7429 56.314L15.9684 55.3281C14.9857 55.0391 12.7528 54.53 11.6831 54.8047Z" fill="#FFF9E9" stroke="#76563F" stroke-width="0.1" stroke-linecap="round" stroke-linejoin="round"/>
<path d="M12.1818 59.1614C11.6565 60.0122 12.4501 60.1076 12.9126 60.0489C14.0225 59.9082 15.7598 58.5443 16.4897 57.8799L15.7589 56.9924C14.7854 57.3609 12.7071 58.3106 12.1818 59.1614Z" fill="#FFF9E9" stroke="#76563F" stroke-width="0.1" stroke-linecap="round" stroke-linejoin="round"/>
<path d="M16.1938 61.7697C16.5171 62.655 17.1851 62.2413 17.4788 61.9237C18.1834 61.1616 18.3285 59.2036 18.3129 58.3198L17.0279 58.1657C16.6151 58.9981 15.8704 60.8843 16.1938 61.7697Z" fill="#FFF9E9" stroke="#76563F" stroke-width="0.1" stroke-linecap="round" stroke-linejoin="round"/>
<path d="M22.4523 60.4226C22.62 61.3349 21.875 61.1957 21.4815 61.0121C20.5372 60.5714 19.4665 58.8553 19.0491 58.0524L20.0199 57.4629C20.7608 58.0693 22.2847 59.5103 22.4523 60.4226Z" fill="#FFF9E9" stroke="#76563F" stroke-width="0.1" stroke-linecap="round" stroke-linejoin="round"/>
<path d="M25.036 56.3463C25.9253 56.8603 25.2562 57.2178 24.8105 57.3323C23.7409 57.607 21.508 57.0979 20.5253 56.8089L20.7508 55.823C21.8087 55.7833 24.1467 55.8323 25.036 56.3463Z" fill="#FFF9E9" stroke="#76563F" stroke-width="0.1" stroke-linecap="round" stroke-linejoin="round"/>
<path d="M23.5811 52.088C24.6911 51.9473 24.5308 52.6211 24.3119 52.9755C23.7866 53.8263 21.7083 54.776 20.7348 55.1445L20.004 54.257C20.7339 53.5927 22.4711 52.2288 23.5811 52.088Z" fill="#FFF9E9" stroke="#76563F" stroke-width="0.1" stroke-linecap="round" stroke-linejoin="round"/>
<path d="M19.0149 50.2133C19.7196 49.4511 20.1652 49.9984 20.2999 50.3673C20.6232 51.2527 19.8785 53.1389 19.4657 53.9713L18.1807 53.8172C18.1652 52.9334 18.3102 50.9754 19.0149 50.2133Z" fill="#FFF9E9" stroke="#76563F" stroke-width="0.1" stroke-linecap="round" stroke-linejoin="round"/>
<ellipse cx="18.1769" cy="56.0358" rx="2.48446" ry="2.09218" transform="rotate(-15 18.1769 56.0358)" fill="#FCDC8A" stroke="#F5CF6C"/>
<path d="M33.2229 57.6561C32.9597 56.7198 32.3138 57.0518 32.0238 57.3349C31.3277 58.0141 31.1025 59.9739 31.0769 60.8689L32.2759 61.1902C32.7012 60.4023 33.486 58.5924 33.2229 57.6561Z" fill="#FCF4E1" stroke="#76563F" stroke-width="0.1" stroke-linecap="round" stroke-linejoin="round"/>
<path d="M28.0168 57.6311C27.0759 57.0729 26.932 57.7231 26.9777 58.1179C27.0872 59.0656 28.5553 60.7088 29.2756 61.412L30.3148 60.9252C29.9408 60.0598 28.9577 58.1893 28.0168 57.6311Z" fill="#FCF4E1" stroke="#76563F" stroke-width="0.1" stroke-linecap="round" stroke-linejoin="round"/>
<path d="M24.6329 60.7971C23.5654 60.944 24.0078 61.5315 24.3624 61.8069C25.2134 62.4678 27.5148 62.8319 28.5591 62.9313L28.8296 61.9216C27.8755 61.4856 25.7004 60.6503 24.6329 60.7971Z" fill="#FCF4E1" stroke="#76563F" stroke-width="0.1" stroke-linecap="round" stroke-linejoin="round"/>
<path d="M25.0534 65.2995C24.4846 66.0654 25.2541 66.2461 25.7099 66.2407C26.8039 66.2277 28.5905 65.0994 29.347 64.5369L28.6905 63.5957C27.7151 63.8445 25.6221 64.5336 25.0534 65.2995Z" fill="#FCF4E1" stroke="#76563F" stroke-width="0.1" stroke-linecap="round" stroke-linejoin="round"/>
<path d="M30.231 68.8221C29.5349 69.5014 29.1416 68.8909 29.0319 68.5008C28.7687 67.5645 29.5536 65.7546 29.9789 64.9667L31.1779 65.288C31.1523 66.183 30.927 68.1428 30.231 68.8221Z" fill="#FCF4E1" stroke="#76563F" stroke-width="0.1" stroke-linecap="round" stroke-linejoin="round"/>
<path d="M35.2771 68.0389C35.3867 68.9866 34.63 68.7583 34.2379 68.5257C33.297 67.9675 32.314 66.097 31.94 65.2316L32.9792 64.7448C33.6995 65.448 35.1675 67.0912 35.2771 68.0389Z" fill="#FCF4E1" stroke="#76563F" stroke-width="0.1" stroke-linecap="round" stroke-linejoin="round"/>
<path d="M37.8924 64.3499C38.7434 65.0109 38.0666 65.2985 37.6219 65.3597C36.5544 65.5065 34.3793 64.6712 33.4252 64.2352L33.6957 63.2254C34.74 63.3249 37.0414 63.689 37.8924 64.3499Z" fill="#FCF4E1" stroke="#76563F" stroke-width="0.1" stroke-linecap="round" stroke-linejoin="round"/>
<path d="M36.5448 59.9162C37.6388 59.9032 37.4383 60.5383 37.2014 60.8574C36.6327 61.6233 34.5397 62.3124 33.5643 62.5612L32.9077 61.62C33.6643 61.0575 35.4509 59.9292 36.5448 59.9162Z" fill="#FCF4E1" stroke="#76563F" stroke-width="0.1" stroke-linecap="round" stroke-linejoin="round"/>
<path d="M30.8731 57.2875C30.2756 56.4337 29.8671 56.9485 29.7375 57.3126C29.4266 58.1865 30.0258 60.1964 30.3642 61.092L31.4997 61.0669C31.5398 60.1628 31.4705 58.1413 30.8731 57.2875Z" fill="#FFF9E9" stroke="#76563F" stroke-width="0.1" stroke-linecap="round" stroke-linejoin="round"/>
<path d="M26.1501 58.8098C25.0864 58.5129 25.2481 59.1801 25.4619 59.5509C25.975 60.4407 27.9753 61.6522 28.9113 62.1467L29.5996 61.4056C28.893 60.664 27.2139 59.1067 26.1501 58.8098Z" fill="#FFF9E9" stroke="#76563F" stroke-width="0.1" stroke-linecap="round" stroke-linejoin="round"/>
<path d="M24.4036 62.8322C23.5233 63.3063 24.1629 63.7858 24.5927 63.9662C25.6244 64.3993 27.8108 64.0868 28.7751 63.8764L28.586 62.7423C27.5586 62.5747 25.2839 62.358 24.4036 62.8322Z" fill="#FFF9E9" stroke="#76563F" stroke-width="0.1" stroke-linecap="round" stroke-linejoin="round"/>
<path d="M26.5739 67.0969C26.4113 68.0254 27.1967 68.0011 27.6098 67.8729C28.6011 67.5652 29.7057 65.942 30.1341 65.1689L29.0983 64.3929C28.3246 64.9074 26.7366 66.1685 26.5739 67.0969Z" fill="#FFF9E9" stroke="#76563F" stroke-width="0.1" stroke-linecap="round" stroke-linejoin="round"/>
<path d="M32.6675 69.0597C32.3566 69.9336 31.781 69.4406 31.532 69.0848C30.9346 68.231 30.8653 66.2095 30.9053 65.3054L32.0408 65.2803C32.3793 66.1759 32.9785 68.1858 32.6675 69.0597Z" fill="#FFF9E9" stroke="#76563F" stroke-width="0.1" stroke-linecap="round" stroke-linejoin="round"/>
<path d="M36.9432 66.8214C37.4564 67.7112 36.6982 67.6862 36.255 67.5625C35.1912 67.2656 33.5121 65.7083 32.8055 64.9667L33.4938 64.2256C34.4298 64.7201 36.4301 65.9316 36.9432 66.8214Z" fill="#FFF9E9" stroke="#76563F" stroke-width="0.1" stroke-linecap="round" stroke-linejoin="round"/>
<path d="M37.8124 62.4061C38.844 62.8392 38.3683 63.3426 38.0015 63.5402C37.1212 64.0143 34.8464 63.7976 33.8191 63.63L33.63 62.496C34.5943 62.2856 36.7807 61.9731 37.8124 62.4061Z" fill="#FFF9E9" stroke="#76563F" stroke-width="0.1" stroke-linecap="round" stroke-linejoin="round"/>
<path d="M34.7953 58.4994C35.7866 58.1917 35.8989 58.8885 35.8311 59.2754C35.6684 60.2038 34.0804 61.4649 33.3067 61.9794L32.2709 61.2034C32.6993 60.4303 33.804 58.8071 34.7953 58.4994Z" fill="#FFF9E9" stroke="#76563F" stroke-width="0.1" stroke-linecap="round" stroke-linejoin="round"/>
<ellipse cx="31.1584" cy="63.1229" rx="2.48446" ry="2.09218" transform="rotate(15 31.1584 63.1229)" fill="#FCDC8A" stroke="#F5CF6C"/>
<path d="M118.223 45.6561C117.96 44.7198 117.314 45.0518 117.024 45.3349C116.328 46.0141 116.102 47.9739 116.077 48.8689L117.276 49.1902C117.701 48.4023 118.486 46.5924 118.223 45.6561Z" fill="#FCF4E1" stroke="#76563F" stroke-width="0.1" stroke-linecap="round" stroke-linejoin="round"/>
<path d="M113.017 45.6311C112.076 45.0729 111.932 45.7231 111.978 46.1179C112.087 47.0656 113.555 48.7088 114.276 49.412L115.315 48.9252C114.941 48.0598 113.958 46.1893 113.017 45.6311Z" fill="#FCF4E1" stroke="#76563F" stroke-width="0.1" stroke-linecap="round" stroke-linejoin="round"/>
<path d="M109.633 48.7971C108.565 48.944 109.008 49.5315 109.362 49.8069C110.213 50.4678 112.515 50.8319 113.559 50.9313L113.83 49.9216C112.876 49.4856 110.7 48.6503 109.633 48.7971Z" fill="#FCF4E1" stroke="#76563F" stroke-width="0.1" stroke-linecap="round" stroke-linejoin="round"/>
<path d="M110.053 53.2995C109.485 54.0654 110.254 54.2461 110.71 54.2407C111.804 54.2277 113.59 53.0994 114.347 52.5369L113.69 51.5957C112.715 51.8445 110.622 52.5336 110.053 53.2995Z" fill="#FCF4E1" stroke="#76563F" stroke-width="0.1" stroke-linecap="round" stroke-linejoin="round"/>
<path d="M115.231 56.8221C114.535 57.5014 114.142 56.8909 114.032 56.5008C113.769 55.5645 114.554 53.7546 114.979 52.9667L116.178 53.288C116.152 54.183 115.927 56.1428 115.231 56.8221Z" fill="#FCF4E1" stroke="#76563F" stroke-width="0.1" stroke-linecap="round" stroke-linejoin="round"/>
<path d="M120.277 56.0389C120.387 56.9866 119.63 56.7583 119.238 56.5257C118.297 55.9675 117.314 54.097 116.94 53.2316L117.979 52.7448C118.7 53.448 120.168 55.0912 120.277 56.0389Z" fill="#FCF4E1" stroke="#76563F" stroke-width="0.1" stroke-linecap="round" stroke-linejoin="round"/>
<path d="M122.892 52.3499C123.743 53.0109 123.067 53.2985 122.622 53.3597C121.554 53.5065 119.379 52.6712 118.425 52.2352L118.696 51.2254C119.74 51.3249 122.041 51.689 122.892 52.3499Z" fill="#FCF4E1" stroke="#76563F" stroke-width="0.1" stroke-linecap="round" stroke-linejoin="round"/>
<path d="M121.545 47.9162C122.639 47.9032 122.438 48.5383 122.201 48.8574C121.633 49.6233 119.54 50.3124 118.564 50.5612L117.908 49.62C118.664 49.0575 120.451 47.9292 121.545 47.9162Z" fill="#FCF4E1" stroke="#76563F" stroke-width="0.1" stroke-linecap="round" stroke-linejoin="round"/>
<path d="M115.873 45.2875C115.276 44.4337 114.867 44.9485 114.738 45.3126C114.427 46.1865 115.026 48.1964 115.364 49.092L116.5 49.0669C116.54 48.1628 116.47 46.1413 115.873 45.2875Z" fill="#FFF9E9" stroke="#76563F" stroke-width="0.1" stroke-linecap="round" stroke-linejoin="round"/>
<path d="M111.15 46.8098C110.086 46.5129 110.248 47.1801 110.462 47.5509C110.975 48.4407 112.975 49.6522 113.911 50.1467L114.6 49.4056C113.893 48.664 112.214 47.1067 111.15 46.8098Z" fill="#FFF9E9" stroke="#76563F" stroke-width="0.1" stroke-linecap="round" stroke-linejoin="round"/>
<path d="M109.404 50.8322C108.523 51.3063 109.163 51.7858 109.593 51.9662C110.624 52.3993 112.811 52.0868 113.775 51.8764L113.586 50.7423C112.559 50.5747 110.284 50.358 109.404 50.8322Z" fill="#FFF9E9" stroke="#76563F" stroke-width="0.1" stroke-linecap="round" stroke-linejoin="round"/>
<path d="M111.574 55.0969C111.411 56.0254 112.197 56.0011 112.61 55.8729C113.601 55.5652 114.706 53.942 115.134 53.1689L114.098 52.3929C113.325 52.9074 111.737 54.1685 111.574 55.0969Z" fill="#FFF9E9" stroke="#76563F" stroke-width="0.1" stroke-linecap="round" stroke-linejoin="round"/>
<path d="M117.668 57.0597C117.357 57.9336 116.781 57.4406 116.532 57.0848C115.935 56.231 115.865 54.2095 115.905 53.3054L117.041 53.2803C117.379 54.1759 117.978 56.1858 117.668 57.0597Z" fill="#FFF9E9" stroke="#76563F" stroke-width="0.1" stroke-linecap="round" stroke-linejoin="round"/>
<path d="M121.943 54.8214C122.456 55.7112 121.698 55.6862 121.255 55.5625C120.191 55.2656 118.512 53.7083 117.806 52.9667L118.494 52.2256C119.43 52.7201 121.43 53.9316 121.943 54.8214Z" fill="#FFF9E9" stroke="#76563F" stroke-width="0.1" stroke-linecap="round" stroke-linejoin="round"/>
<path d="M122.812 50.4061C123.844 50.8392 123.368 51.3426 123.002 51.5402C122.121 52.0143 119.846 51.7976 118.819 51.63L118.63 50.496C119.594 50.2856 121.781 49.9731 122.812 50.4061Z" fill="#FFF9E9" stroke="#76563F" stroke-width="0.1" stroke-linecap="round" stroke-linejoin="round"/>
<path d="M119.795 46.4994C120.787 46.1917 120.899 46.8885 120.831 47.2754C120.668 48.2038 119.08 49.4649 118.307 49.9794L117.271 49.2034C117.699 48.4303 118.804 46.8071 119.795 46.4994Z" fill="#FFF9E9" stroke="#76563F" stroke-width="0.1" stroke-linecap="round" stroke-linejoin="round"/>
<ellipse cx="116.158" cy="51.1229" rx="2.48446" ry="2.09218" transform="rotate(15 116.158 51.1229)" fill="#FCDC8A" stroke="#F5CF6C"/>
<path d="M62.2227 35.6561C61.9596 34.7198 61.3137 35.0518 61.0237 35.3349C60.3276 36.0141 60.1024 37.9739 60.0767 38.8689L61.2758 39.1902C61.7011 38.4023 62.4859 36.5924 62.2227 35.6561Z" fill="#FCF4E1" stroke="#76563F" stroke-width="0.1" stroke-linecap="round" stroke-linejoin="round"/>
<path d="M57.0167 35.6311C56.0758 35.0729 55.9319 35.7231 55.9775 36.1179C56.0871 37.0656 57.5552 38.7088 58.2755 39.412L59.3146 38.9252C58.9407 38.0598 57.9576 36.1893 57.0167 35.6311Z" fill="#FCF4E1" stroke="#76563F" stroke-width="0.1" stroke-linecap="round" stroke-linejoin="round"/>
<path d="M53.6328 38.7971C52.5653 38.944 53.0077 39.5315 53.3622 39.8069C54.2133 40.4678 56.5146 40.8319 57.5589 40.9313L57.8295 39.9216C56.8754 39.4856 54.7003 38.6503 53.6328 38.7971Z" fill="#FCF4E1" stroke="#76563F" stroke-width="0.1" stroke-linecap="round" stroke-linejoin="round"/>
<path d="M54.0532 43.2995C53.4845 44.0654 54.254 44.2461 54.7098 44.2407C55.8037 44.2277 57.5903 43.0994 58.3469 42.5369L57.6903 41.5957C56.7149 41.8445 54.622 42.5336 54.0532 43.2995Z" fill="#FCF4E1" stroke="#76563F" stroke-width="0.1" stroke-linecap="round" stroke-linejoin="round"/>
<path d="M59.2308 46.8221C58.5348 47.5014 58.1414 46.8909 58.0318 46.5008C57.7686 45.5645 58.5534 43.7546 58.9787 42.9667L60.1778 43.288C60.1522 44.183 59.9269 46.1428 59.2308 46.8221Z" fill="#FCF4E1" stroke="#76563F" stroke-width="0.1" stroke-linecap="round" stroke-linejoin="round"/>
<path d="M64.277 46.0389C64.3866 46.9866 63.6299 46.7583 63.2378 46.5257C62.2969 45.9675 61.3138 44.097 60.9399 43.2316L61.9791 42.7448C62.6994 43.448 64.1674 45.0912 64.277 46.0389Z" fill="#FCF4E1" stroke="#76563F" stroke-width="0.1" stroke-linecap="round" stroke-linejoin="round"/>
<path d="M66.8923 42.3499C67.7433 43.0109 67.0665 43.2985 66.6218 43.3597C65.5543 43.5065 63.3792 42.6712 62.4251 42.2352L62.6956 41.2254C63.7399 41.3249 66.0413 41.689 66.8923 42.3499Z" fill="#FCF4E1" stroke="#76563F" stroke-width="0.1" stroke-linecap="round" stroke-linejoin="round"/>
<path d="M65.5447 37.9162C66.6387 37.9032 66.4382 38.5383 66.2013 38.8574C65.6325 39.6233 63.5396 40.3124 62.5642 40.5612L61.9076 39.62C62.6642 39.0575 64.4508 37.9292 65.5447 37.9162Z" fill="#FCF4E1" stroke="#76563F" stroke-width="0.1" stroke-linecap="round" stroke-linejoin="round"/>
<path d="M59.8729 35.2875C59.2755 34.4337 58.867 34.9485 58.7374 35.3126C58.4264 36.1865 59.0256 38.1964 59.3641 39.092L60.4996 39.0669C60.5396 38.1628 60.4704 36.1413 59.8729 35.2875Z" fill="#FFF9E9" stroke="#76563F" stroke-width="0.1" stroke-linecap="round" stroke-linejoin="round"/>
<path d="M55.15 36.8098C54.0863 36.5129 54.2479 37.1801 54.4618 37.5509C54.9749 38.4407 56.9752 39.6522 57.9112 40.1467L58.5995 39.4056C57.8929 38.664 56.2137 37.1067 55.15 36.8098Z" fill="#FFF9E9" stroke="#76563F" stroke-width="0.1" stroke-linecap="round" stroke-linejoin="round"/>
<path d="M53.4035 40.8322C52.5231 41.3063 53.1628 41.7858 53.5926 41.9662C54.6242 42.3993 56.8107 42.0868 57.775 41.8764L57.5858 40.7423C56.5585 40.5747 54.2838 40.358 53.4035 40.8322Z" fill="#FFF9E9" stroke="#76563F" stroke-width="0.1" stroke-linecap="round" stroke-linejoin="round"/>
<path d="M55.5738 45.0969C55.4111 46.0254 56.1966 46.0011 56.6096 45.8729C57.601 45.5652 58.7056 43.942 59.134 43.1689L58.0982 42.3929C57.3245 42.9074 55.7365 44.1685 55.5738 45.0969Z" fill="#FFF9E9" stroke="#76563F" stroke-width="0.1" stroke-linecap="round" stroke-linejoin="round"/>
<path d="M61.6674 47.0597C61.3564 47.9336 60.7808 47.4406 60.5319 47.0848C59.9344 46.231 59.8652 44.2095 59.9052 43.3054L61.0407 43.2803C61.3792 44.1759 61.9784 46.1858 61.6674 47.0597Z" fill="#FFF9E9" stroke="#76563F" stroke-width="0.1" stroke-linecap="round" stroke-linejoin="round"/>
<path d="M65.9431 44.8214C66.4562 45.7112 65.6981 45.6862 65.2548 45.5625C64.1911 45.2656 62.512 43.7083 61.8054 42.9667L62.4936 42.2256C63.4296 42.7201 65.4299 43.9316 65.9431 44.8214Z" fill="#FFF9E9" stroke="#76563F" stroke-width="0.1" stroke-linecap="round" stroke-linejoin="round"/>
<path d="M66.8122 40.4061C67.8439 40.8392 67.3682 41.3426 67.0014 41.5402C66.1211 42.0143 63.8463 41.7976 62.819 41.63L62.6299 40.496C63.5941 40.2856 65.7806 39.9731 66.8122 40.4061Z" fill="#FFF9E9" stroke="#76563F" stroke-width="0.1" stroke-linecap="round" stroke-linejoin="round"/>
<path d="M63.7952 36.4994C64.7865 36.1917 64.8988 36.8885 64.831 37.2754C64.6683 38.2038 63.0803 39.4649 62.3066 39.9794L61.2708 39.2034C61.6992 38.4303 62.8039 36.8071 63.7952 36.4994Z" fill="#FFF9E9" stroke="#76563F" stroke-width="0.1" stroke-linecap="round" stroke-linejoin="round"/>
<ellipse cx="60.1582" cy="41.1229" rx="2.48446" ry="2.09218" transform="rotate(15 60.1582 41.1229)" fill="#FCDC8A" stroke="#F5CF6C"/>
<path d="M59.3799 81.4177C58.6838 80.7384 58.2905 81.3488 58.1809 81.739C57.9177 82.6753 58.7025 84.4851 59.1278 85.273L60.3269 84.9517C60.3012 84.0567 60.076 82.0969 59.3799 81.4177Z" fill="#FCF4E1" stroke="#76563F" stroke-width="0.1" stroke-linecap="round" stroke-linejoin="round"/>
<path d="M54.8589 83.9991C53.7649 83.9861 53.9654 84.6211 54.2023 84.9403C54.771 85.7062 56.864 86.3953 57.8394 86.6441L58.496 85.7029C57.7394 85.1404 55.9528 84.0121 54.8589 83.9991Z" fill="#FCF4E1" stroke="#76563F" stroke-width="0.1" stroke-linecap="round" stroke-linejoin="round"/>
<path d="M53.5113 88.4328C52.6603 89.0938 53.3371 89.3814 53.7819 89.4426C54.8493 89.5894 57.0244 88.7541 57.9786 88.3181L57.708 87.3083C56.6637 87.4078 54.3623 87.7719 53.5113 88.4328Z" fill="#FCF4E1" stroke="#76563F" stroke-width="0.1" stroke-linecap="round" stroke-linejoin="round"/>
<path d="M56.1266 92.1218C56.017 93.0694 56.7737 92.8412 57.1658 92.6086C58.1067 92.0504 59.0898 90.1799 59.4637 89.3145L58.4245 88.8277C57.7042 89.5309 56.2362 91.1741 56.1266 92.1218Z" fill="#FCF4E1" stroke="#76563F" stroke-width="0.1" stroke-linecap="round" stroke-linejoin="round"/>
<path d="M62.3718 92.5836C62.1086 93.5199 61.4628 93.1879 61.1727 92.9049C60.4767 92.2256 60.2514 90.2658 60.2258 89.3708L61.4249 89.0495C61.8502 89.8374 62.635 91.6473 62.3718 92.5836Z" fill="#FCF4E1" stroke="#76563F" stroke-width="0.1" stroke-linecap="round" stroke-linejoin="round"/>
<path d="M66.3503 89.3823C66.9191 90.1482 66.1496 90.3288 65.6938 90.3234C64.5998 90.3105 62.8132 89.1822 62.0567 88.6196L62.7132 87.6785C63.6886 87.9273 65.7816 88.6164 66.3503 89.3823Z" fill="#FCF4E1" stroke="#76563F" stroke-width="0.1" stroke-linecap="round" stroke-linejoin="round"/>
<path d="M66.7708 84.88C67.8383 85.0269 67.396 85.6144 67.0414 85.8897C66.1903 86.5507 63.889 86.9148 62.8447 87.0142L62.5741 86.0045C63.5282 85.5685 65.7033 84.7331 66.7708 84.88Z" fill="#FCF4E1" stroke="#76563F" stroke-width="0.1" stroke-linecap="round" stroke-linejoin="round"/>
<path d="M63.3869 81.714C64.3278 81.1558 64.4717 81.8059 64.426 82.2008C64.3165 83.1485 62.8484 84.7917 62.1281 85.4949L61.089 85.0081C61.4629 84.1427 62.446 82.2722 63.3869 81.714Z" fill="#FCF4E1" stroke="#76563F" stroke-width="0.1" stroke-linecap="round" stroke-linejoin="round"/>
<path d="M57.1606 82.2733C56.2163 81.8326 56.1199 82.4827 56.1898 82.8628C56.3574 83.7752 57.8813 85.2161 58.6222 85.8226L59.593 85.233C59.1757 84.4301 58.1049 82.714 57.1606 82.2733Z" fill="#FFF9E9" stroke="#76563F" stroke-width="0.1" stroke-linecap="round" stroke-linejoin="round"/>
<path d="M53.8316 85.9532C52.7619 86.2279 53.2356 86.7249 53.6061 86.9391C54.4954 87.4531 56.8335 87.5022 57.8913 87.4625L58.1168 86.4765C57.1341 86.1876 54.9013 85.6784 53.8316 85.9532Z" fill="#FFF9E9" stroke="#76563F" stroke-width="0.1" stroke-linecap="round" stroke-linejoin="round"/>
<path d="M54.3302 90.3098C53.8049 91.1606 54.5985 91.256 55.061 91.1974C56.171 91.0566 57.9083 89.6927 58.6382 89.0284L57.9073 88.1408C56.9338 88.5093 54.8555 89.459 54.3302 90.3098Z" fill="#FFF9E9" stroke="#76563F" stroke-width="0.1" stroke-linecap="round" stroke-linejoin="round"/>
<path d="M58.3422 92.9181C58.6655 93.8035 59.3336 93.3897 59.6272 93.0722C60.3318 92.31 60.4769 90.352 60.4613 89.4683L59.1763 89.3142C58.7636 90.1466 58.0188 92.0327 58.3422 92.9181Z" fill="#FFF9E9" stroke="#76563F" stroke-width="0.1" stroke-linecap="round" stroke-linejoin="round"/>
<path d="M64.6008 91.571C64.7684 92.4834 64.0234 92.3442 63.63 92.1606C62.6856 91.7199 61.6149 90.0038 61.1975 89.2008L62.1683 88.6113C62.9093 89.2177 64.4331 90.6587 64.6008 91.571Z" fill="#FFF9E9" stroke="#76563F" stroke-width="0.1" stroke-linecap="round" stroke-linejoin="round"/>
<path d="M67.1845 87.4948C68.0737 88.0088 67.4047 88.3662 66.959 88.4807C65.8893 88.7555 63.6564 88.2463 62.6737 87.9574L62.8992 86.9714C63.9571 86.9317 66.2952 86.9808 67.1845 87.4948Z" fill="#FFF9E9" stroke="#76563F" stroke-width="0.1" stroke-linecap="round" stroke-linejoin="round"/>
<path d="M65.7295 83.2364C66.8395 83.0957 66.6792 83.7695 66.4603 84.124C65.935 84.9748 63.8567 85.9245 62.8832 86.293L62.1524 85.4054C62.8823 84.7411 64.6196 83.3772 65.7295 83.2364Z" fill="#FFF9E9" stroke="#76563F" stroke-width="0.1" stroke-linecap="round" stroke-linejoin="round"/>
<path d="M61.1634 81.3617C61.868 80.5996 62.3136 81.1469 62.4484 81.5158C62.7717 82.4012 62.027 84.2873 61.6142 85.1197L60.3292 84.9656C60.3136 84.0819 60.4587 82.1238 61.1634 81.3617Z" fill="#FFF9E9" stroke="#76563F" stroke-width="0.1" stroke-linecap="round" stroke-linejoin="round"/>
<ellipse cx="60.3254" cy="87.1843" rx="2.48446" ry="2.09218" transform="rotate(-15 60.3254 87.1843)" fill="#FCDC8A" stroke="#F5CF6C"/>
<path d="M87.2229 99.6561C86.9597 98.7198 86.3138 99.0518 86.0238 99.3349C85.3277 100.014 85.1025 101.974 85.0769 102.869L86.2759 103.19C86.7012 102.402 87.486 100.592 87.2229 99.6561Z" fill="#FCF4E1" stroke="#76563F" stroke-width="0.1" stroke-linecap="round" stroke-linejoin="round"/>
<path d="M82.0168 99.6311C81.0759 99.0729 80.932 99.7231 80.9777 100.118C81.0872 101.066 82.5553 102.709 83.2756 103.412L84.3148 102.925C83.9408 102.06 82.9578 100.189 82.0168 99.6311Z" fill="#FCF4E1" stroke="#76563F" stroke-width="0.1" stroke-linecap="round" stroke-linejoin="round"/>
<path d="M78.6329 102.797C77.5655 102.944 78.0078 103.531 78.3624 103.807C79.2134 104.468 81.5148 104.832 82.5591 104.931L82.8296 103.922C81.8755 103.486 79.7004 102.65 78.6329 102.797Z" fill="#FCF4E1" stroke="#76563F" stroke-width="0.1" stroke-linecap="round" stroke-linejoin="round"/>
<path d="M79.0534 107.3C78.4846 108.065 79.2541 108.246 79.7099 108.241C80.8039 108.228 82.5905 107.099 83.347 106.537L82.6905 105.596C81.7151 105.844 79.6221 106.534 79.0534 107.3Z" fill="#FCF4E1" stroke="#76563F" stroke-width="0.1" stroke-linecap="round" stroke-linejoin="round"/>
<path d="M84.231 110.822C83.5349 111.501 83.1416 110.891 83.0319 110.501C82.7687 109.564 83.5535 107.755 83.9789 106.967L85.1779 107.288C85.1523 108.183 84.927 110.143 84.231 110.822Z" fill="#FCF4E1" stroke="#76563F" stroke-width="0.1" stroke-linecap="round" stroke-linejoin="round"/>
<path d="M89.2771 110.039C89.3867 110.987 88.63 110.758 88.2379 110.526C87.297 109.967 86.314 108.097 85.94 107.232L86.9792 106.745C87.6995 107.448 89.1676 109.091 89.2771 110.039Z" fill="#FCF4E1" stroke="#76563F" stroke-width="0.1" stroke-linecap="round" stroke-linejoin="round"/>
<path d="M91.8924 106.35C92.7435 107.011 92.0667 107.298 91.6219 107.36C90.5544 107.507 88.3793 106.671 87.4252 106.235L87.6957 105.225C88.74 105.325 91.0414 105.689 91.8924 106.35Z" fill="#FCF4E1" stroke="#76563F" stroke-width="0.1" stroke-linecap="round" stroke-linejoin="round"/>
<path d="M90.5448 101.916C91.6388 101.903 91.4384 102.538 91.2014 102.857C90.6327 103.623 88.5397 104.312 87.5643 104.561L86.9077 103.62C87.6643 103.057 89.4509 101.929 90.5448 101.916Z" fill="#FCF4E1" stroke="#76563F" stroke-width="0.1" stroke-linecap="round" stroke-linejoin="round"/>
<path d="M84.873 99.2875C84.2756 98.4337 83.8671 98.9485 83.7375 99.3126C83.4266 100.187 84.0258 102.196 84.3642 103.092L85.4997 103.067C85.5398 102.163 85.4705 100.141 84.873 99.2875Z" fill="#FFF9E9" stroke="#76563F" stroke-width="0.1" stroke-linecap="round" stroke-linejoin="round"/>
<path d="M80.1501 100.81C79.0864 100.513 79.2481 101.18 79.4619 101.551C79.975 102.441 81.9753 103.652 82.9113 104.147L83.5996 103.406C82.893 102.664 81.2139 101.107 80.1501 100.81Z" fill="#FFF9E9" stroke="#76563F" stroke-width="0.1" stroke-linecap="round" stroke-linejoin="round"/>
<path d="M78.4036 104.832C77.5233 105.306 78.1629 105.786 78.5927 105.966C79.6244 106.399 81.8108 106.087 82.7751 105.876L82.586 104.742C81.5586 104.575 79.2839 104.358 78.4036 104.832Z" fill="#FFF9E9" stroke="#76563F" stroke-width="0.1" stroke-linecap="round" stroke-linejoin="round"/>
<path d="M80.5739 109.097C80.4113 110.025 81.1967 110.001 81.6098 109.873C82.6011 109.565 83.7057 107.942 84.1341 107.169L83.0983 106.393C82.3246 106.907 80.7366 108.169 80.5739 109.097Z" fill="#FFF9E9" stroke="#76563F" stroke-width="0.1" stroke-linecap="round" stroke-linejoin="round"/>
<path d="M86.6675 111.06C86.3566 111.934 85.781 111.441 85.532 111.085C84.9346 110.231 84.8653 108.209 84.9053 107.305L86.0408 107.28C86.3793 108.176 86.9785 110.186 86.6675 111.06Z" fill="#FFF9E9" stroke="#76563F" stroke-width="0.1" stroke-linecap="round" stroke-linejoin="round"/>
<path d="M90.9432 108.821C91.4564 109.711 90.6982 109.686 90.255 109.563C89.1912 109.266 87.5121 107.708 86.8055 106.967L87.4937 106.226C88.4298 106.72 90.4301 107.932 90.9432 108.821Z" fill="#FFF9E9" stroke="#76563F" stroke-width="0.1" stroke-linecap="round" stroke-linejoin="round"/>
<path d="M91.8124 104.406C92.844 104.839 92.3683 105.343 92.0015 105.54C91.1212 106.014 88.8465 105.798 87.8191 105.63L87.63 104.496C88.5943 104.286 90.7807 103.973 91.8124 104.406Z" fill="#FFF9E9" stroke="#76563F" stroke-width="0.1" stroke-linecap="round" stroke-linejoin="round"/>
<path d="M88.7953 100.499C89.7866 100.192 89.8989 100.889 89.8311 101.275C89.6684 102.204 88.0804 103.465 87.3067 103.979L86.2709 103.203C86.6993 102.43 87.804 100.807 88.7953 100.499Z" fill="#FFF9E9" stroke="#76563F" stroke-width="0.1" stroke-linecap="round" stroke-linejoin="round"/>
<ellipse cx="85.1584" cy="105.123" rx="2.48446" ry="2.09218" transform="rotate(15 85.1584 105.123)" fill="#FCDC8A" stroke="#F5CF6C"/>
<path d="M85.2229 71.6561C84.9597 70.7198 84.3138 71.0518 84.0238 71.3349C83.3277 72.0141 83.1025 73.9739 83.0769 74.8689L84.2759 75.1902C84.7012 74.4023 85.486 72.5924 85.2229 71.6561Z" fill="#FCF4E1" stroke="#76563F" stroke-width="0.1" stroke-linecap="round" stroke-linejoin="round"/>
<path d="M80.0168 71.6311C79.0759 71.0729 78.932 71.7231 78.9777 72.1179C79.0872 73.0656 80.5553 74.7088 81.2756 75.412L82.3148 74.9252C81.9408 74.0598 80.9578 72.1893 80.0168 71.6311Z" fill="#FCF4E1" stroke="#76563F" stroke-width="0.1" stroke-linecap="round" stroke-linejoin="round"/>
<path d="M76.6329 74.7971C75.5655 74.944 76.0078 75.5315 76.3624 75.8069C77.2134 76.4678 79.5148 76.8319 80.5591 76.9313L80.8296 75.9216C79.8755 75.4856 77.7004 74.6503 76.6329 74.7971Z" fill="#FCF4E1" stroke="#76563F" stroke-width="0.1" stroke-linecap="round" stroke-linejoin="round"/>
<path d="M77.0534 79.2995C76.4846 80.0654 77.2541 80.2461 77.7099 80.2407C78.8039 80.2277 80.5905 79.0994 81.347 78.5369L80.6905 77.5957C79.7151 77.8445 77.6221 78.5336 77.0534 79.2995Z" fill="#FCF4E1" stroke="#76563F" stroke-width="0.1" stroke-linecap="round" stroke-linejoin="round"/>
<path d="M82.231 82.8221C81.5349 83.5014 81.1416 82.8909 81.0319 82.5008C80.7687 81.5645 81.5535 79.7546 81.9789 78.9667L83.1779 79.288C83.1523 80.183 82.927 82.1428 82.231 82.8221Z" fill="#FCF4E1" stroke="#76563F" stroke-width="0.1" stroke-linecap="round" stroke-linejoin="round"/>
<path d="M87.2771 82.0389C87.3867 82.9866 86.63 82.7583 86.2379 82.5257C85.297 81.9675 84.314 80.097 83.94 79.2316L84.9792 78.7448C85.6995 79.448 87.1676 81.0912 87.2771 82.0389Z" fill="#FCF4E1" stroke="#76563F" stroke-width="0.1" stroke-linecap="round" stroke-linejoin="round"/>
<path d="M89.8924 78.3499C90.7435 79.0109 90.0667 79.2985 89.6219 79.3597C88.5544 79.5065 86.3793 78.6712 85.4252 78.2352L85.6957 77.2254C86.74 77.3249 89.0414 77.689 89.8924 78.3499Z" fill="#FCF4E1" stroke="#76563F" stroke-width="0.1" stroke-linecap="round" stroke-linejoin="round"/>
<path d="M88.5448 73.9162C89.6388 73.9032 89.4384 74.5383 89.2014 74.8574C88.6327 75.6233 86.5397 76.3124 85.5643 76.5612L84.9077 75.62C85.6643 75.0575 87.4509 73.9292 88.5448 73.9162Z" fill="#FCF4E1" stroke="#76563F" stroke-width="0.1" stroke-linecap="round" stroke-linejoin="round"/>
<path d="M82.873 71.2875C82.2756 70.4337 81.8671 70.9485 81.7375 71.3126C81.4266 72.1865 82.0258 74.1964 82.3642 75.092L83.4997 75.0669C83.5398 74.1628 83.4705 72.1413 82.873 71.2875Z" fill="#FFF9E9" stroke="#76563F" stroke-width="0.1" stroke-linecap="round" stroke-linejoin="round"/>
<path d="M78.1501 72.8098C77.0864 72.5129 77.2481 73.1801 77.4619 73.5509C77.975 74.4407 79.9753 75.6522 80.9113 76.1467L81.5996 75.4056C80.893 74.664 79.2139 73.1067 78.1501 72.8098Z" fill="#FFF9E9" stroke="#76563F" stroke-width="0.1" stroke-linecap="round" stroke-linejoin="round"/>
<path d="M76.4036 76.8322C75.5233 77.3063 76.1629 77.7858 76.5927 77.9662C77.6244 78.3993 79.8108 78.0868 80.7751 77.8764L80.586 76.7423C79.5586 76.5747 77.2839 76.358 76.4036 76.8322Z" fill="#FFF9E9" stroke="#76563F" stroke-width="0.1" stroke-linecap="round" stroke-linejoin="round"/>
<path d="M78.5739 81.0969C78.4113 82.0254 79.1967 82.0011 79.6098 81.8729C80.6011 81.5652 81.7057 79.942 82.1341 79.1689L81.0983 78.3929C80.3246 78.9074 78.7366 80.1685 78.5739 81.0969Z" fill="#FFF9E9" stroke="#76563F" stroke-width="0.1" stroke-linecap="round" stroke-linejoin="round"/>
<path d="M84.6675 83.0597C84.3566 83.9336 83.781 83.4406 83.532 83.0848C82.9346 82.231 82.8653 80.2095 82.9053 79.3054L84.0408 79.2803C84.3793 80.1759 84.9785 82.1858 84.6675 83.0597Z" fill="#FFF9E9" stroke="#76563F" stroke-width="0.1" stroke-linecap="round" stroke-linejoin="round"/>
<path d="M88.9432 80.8214C89.4564 81.7112 88.6982 81.6862 88.255 81.5625C87.1912 81.2656 85.5121 79.7083 84.8055 78.9667L85.4937 78.2256C86.4298 78.7201 88.4301 79.9316 88.9432 80.8214Z" fill="#FFF9E9" stroke="#76563F" stroke-width="0.1" stroke-linecap="round" stroke-linejoin="round"/>
<path d="M89.8124 76.4061C90.844 76.8392 90.3683 77.3426 90.0015 77.5402C89.1212 78.0143 86.8465 77.7976 85.8191 77.63L85.63 76.496C86.5943 76.2856 88.7807 75.9731 89.8124 76.4061Z" fill="#FFF9E9" stroke="#76563F" stroke-width="0.1" stroke-linecap="round" stroke-linejoin="round"/>
<path d="M86.7953 72.4994C87.7866 72.1917 87.8989 72.8885 87.8311 73.2754C87.6684 74.2038 86.0804 75.4649 85.3067 75.9794L84.2709 75.2034C84.6993 74.4303 85.804 72.8071 86.7953 72.4994Z" fill="#FFF9E9" stroke="#76563F" stroke-width="0.1" stroke-linecap="round" stroke-linejoin="round"/>
<ellipse cx="83.1584" cy="77.1229" rx="2.48446" ry="2.09218" transform="rotate(15 83.1584 77.1229)" fill="#FCDC8A" stroke="#F5CF6C"/>
<path d="M144.223 77.6561C143.96 76.7198 143.314 77.0518 143.024 77.3349C142.328 78.0141 142.102 79.9739 142.077 80.8689L143.276 81.1902C143.701 80.4023 144.486 78.5924 144.223 77.6561Z" fill="#FCF4E1" stroke="#76563F" stroke-width="0.1" stroke-linecap="round" stroke-linejoin="round"/>
<path d="M139.017 77.6311C138.076 77.0729 137.932 77.7231 137.978 78.1179C138.087 79.0656 139.555 80.7088 140.276 81.412L141.315 80.9252C140.941 80.0598 139.958 78.1893 139.017 77.6311Z" fill="#FCF4E1" stroke="#76563F" stroke-width="0.1" stroke-linecap="round" stroke-linejoin="round"/>
<path d="M135.633 80.7971C134.565 80.944 135.008 81.5315 135.362 81.8069C136.213 82.4678 138.515 82.8319 139.559 82.9313L139.83 81.9216C138.876 81.4856 136.7 80.6503 135.633 80.7971Z" fill="#FCF4E1" stroke="#76563F" stroke-width="0.1" stroke-linecap="round" stroke-linejoin="round"/>
<path d="M136.053 85.2995C135.485 86.0654 136.254 86.2461 136.71 86.2407C137.804 86.2277 139.59 85.0994 140.347 84.5369L139.69 83.5957C138.715 83.8445 136.622 84.5336 136.053 85.2995Z" fill="#FCF4E1" stroke="#76563F" stroke-width="0.1" stroke-linecap="round" stroke-linejoin="round"/>
<path d="M141.231 88.8221C140.535 89.5014 140.142 88.8909 140.032 88.5008C139.769 87.5645 140.554 85.7546 140.979 84.9667L142.178 85.288C142.152 86.183 141.927 88.1428 141.231 88.8221Z" fill="#FCF4E1" stroke="#76563F" stroke-width="0.1" stroke-linecap="round" stroke-linejoin="round"/>
<path d="M146.277 88.0389C146.387 88.9866 145.63 88.7583 145.238 88.5257C144.297 87.9675 143.314 86.097 142.94 85.2316L143.979 84.7448C144.7 85.448 146.168 87.0912 146.277 88.0389Z" fill="#FCF4E1" stroke="#76563F" stroke-width="0.1" stroke-linecap="round" stroke-linejoin="round"/>
<path d="M148.892 84.3499C149.743 85.0109 149.067 85.2985 148.622 85.3597C147.554 85.5065 145.379 84.6712 144.425 84.2352L144.696 83.2254C145.74 83.3249 148.041 83.689 148.892 84.3499Z" fill="#FCF4E1" stroke="#76563F" stroke-width="0.1" stroke-linecap="round" stroke-linejoin="round"/>
<path d="M147.545 79.9162C148.639 79.9032 148.438 80.5383 148.201 80.8574C147.633 81.6233 145.54 82.3124 144.564 82.5612L143.908 81.62C144.664 81.0575 146.451 79.9292 147.545 79.9162Z" fill="#FCF4E1" stroke="#76563F" stroke-width="0.1" stroke-linecap="round" stroke-linejoin="round"/>
<path d="M141.873 77.2875C141.276 76.4337 140.867 76.9485 140.738 77.3126C140.427 78.1865 141.026 80.1964 141.364 81.092L142.5 81.0669C142.54 80.1628 142.47 78.1413 141.873 77.2875Z" fill="#FFF9E9" stroke="#76563F" stroke-width="0.1" stroke-linecap="round" stroke-linejoin="round"/>
<path d="M137.15 78.8098C136.086 78.5129 136.248 79.1801 136.462 79.5509C136.975 80.4407 138.975 81.6522 139.911 82.1467L140.6 81.4056C139.893 80.664 138.214 79.1067 137.15 78.8098Z" fill="#FFF9E9" stroke="#76563F" stroke-width="0.1" stroke-linecap="round" stroke-linejoin="round"/>
<path d="M135.404 82.8322C134.523 83.3063 135.163 83.7858 135.593 83.9662C136.624 84.3993 138.811 84.0868 139.775 83.8764L139.586 82.7423C138.559 82.5747 136.284 82.358 135.404 82.8322Z" fill="#FFF9E9" stroke="#76563F" stroke-width="0.1" stroke-linecap="round" stroke-linejoin="round"/>
<path d="M137.574 87.0969C137.411 88.0254 138.197 88.0011 138.61 87.8729C139.601 87.5652 140.706 85.942 141.134 85.1689L140.098 84.3929C139.325 84.9074 137.737 86.1685 137.574 87.0969Z" fill="#FFF9E9" stroke="#76563F" stroke-width="0.1" stroke-linecap="round" stroke-linejoin="round"/>
<path d="M143.668 89.0597C143.357 89.9336 142.781 89.4406 142.532 89.0848C141.935 88.231 141.865 86.2095 141.905 85.3054L143.041 85.2803C143.379 86.1759 143.978 88.1858 143.668 89.0597Z" fill="#FFF9E9" stroke="#76563F" stroke-width="0.1" stroke-linecap="round" stroke-linejoin="round"/>
<path d="M147.943 86.8214C148.456 87.7112 147.698 87.6862 147.255 87.5625C146.191 87.2656 144.512 85.7083 143.806 84.9667L144.494 84.2256C145.43 84.7201 147.43 85.9316 147.943 86.8214Z" fill="#FFF9E9" stroke="#76563F" stroke-width="0.1" stroke-linecap="round" stroke-linejoin="round"/>
<path d="M148.812 82.4061C149.844 82.8392 149.368 83.3426 149.002 83.5402C148.121 84.0143 145.846 83.7976 144.819 83.63L144.63 82.496C145.594 82.2856 147.781 81.9731 148.812 82.4061Z" fill="#FFF9E9" stroke="#76563F" stroke-width="0.1" stroke-linecap="round" stroke-linejoin="round"/>
<path d="M145.795 78.4994C146.787 78.1917 146.899 78.8885 146.831 79.2754C146.668 80.2038 145.08 81.4649 144.307 81.9794L143.271 81.2034C143.699 80.4303 144.804 78.8071 145.795 78.4994Z" fill="#FFF9E9" stroke="#76563F" stroke-width="0.1" stroke-linecap="round" stroke-linejoin="round"/>
<ellipse cx="142.158" cy="83.1229" rx="2.48446" ry="2.09218" transform="rotate(15 142.158 83.1229)" fill="#FCDC8A" stroke="#F5CF6C"/>
<path d="M124.317 79.2839C123.821 78.4476 123.283 78.9354 123.076 79.2839C122.579 80.1202 122.869 82.0715 123.076 82.9426H124.317C124.524 82.0715 124.814 80.1202 124.317 79.2839Z" fill="#FCF4E1" stroke="#76563F" stroke-width="0.1" stroke-linecap="round" stroke-linejoin="round"/>
<path d="M119.282 80.6072C118.229 80.3115 118.258 80.9768 118.404 81.3464C118.755 82.2334 120.599 83.4407 121.476 83.9335L122.354 83.1943C121.769 82.4551 120.335 80.9029 119.282 80.6072Z" fill="#FCF4E1" stroke="#76563F" stroke-width="0.1" stroke-linecap="round" stroke-linejoin="round"/>
<path d="M116.833 84.5412C115.84 84.9593 116.419 85.4123 116.833 85.5865C117.826 86.0046 120.143 85.7607 121.178 85.5865L121.178 84.5412C120.143 84.3669 117.826 84.123 116.833 84.5412Z" fill="#FCF4E1" stroke="#76563F" stroke-width="0.1" stroke-linecap="round" stroke-linejoin="round"/>
<path d="M118.404 88.7812C118.053 89.6682 118.843 89.6436 119.282 89.5204C120.335 89.2247 121.769 87.6724 122.354 86.9333L121.476 86.1941C120.599 86.6869 118.755 87.8942 118.404 88.7812Z" fill="#FCF4E1" stroke="#76563F" stroke-width="0.1" stroke-linecap="round" stroke-linejoin="round"/>
<path d="M124.317 90.8437C123.821 91.6799 123.283 91.1921 123.076 90.8437C122.579 90.0074 122.869 88.0561 123.076 87.1849H124.317C124.524 88.0561 124.814 90.0074 124.317 90.8437Z" fill="#FCF4E1" stroke="#76563F" stroke-width="0.1" stroke-linecap="round" stroke-linejoin="round"/>
<path d="M128.989 88.7812C129.34 89.6682 128.55 89.6436 128.111 89.5204C127.057 89.2247 125.624 87.6724 125.039 86.9333L125.916 86.1941C126.794 86.6869 128.637 87.8942 128.989 88.7812Z" fill="#FCF4E1" stroke="#76563F" stroke-width="0.1" stroke-linecap="round" stroke-linejoin="round"/>
<path d="M130.56 84.5412C131.553 84.9593 130.974 85.4123 130.56 85.5865C129.567 86.0046 127.25 85.7607 126.215 85.5865L126.215 84.5412C127.25 84.3669 129.567 84.123 130.56 84.5412Z" fill="#FCF4E1" stroke="#76563F" stroke-width="0.1" stroke-linecap="round" stroke-linejoin="round"/>
<path d="M128.111 80.6072C129.164 80.3115 129.135 80.9768 128.989 81.3464C128.637 82.2334 126.794 83.4407 125.916 83.9335L125.039 83.1943C125.624 82.4551 127.057 80.9029 128.111 80.6072Z" fill="#FCF4E1" stroke="#76563F" stroke-width="0.1" stroke-linecap="round" stroke-linejoin="round"/>
<path d="M121.952 79.536C121.154 78.866 120.893 79.469 120.862 79.8542C120.787 80.7789 121.886 82.5651 122.445 83.3427L123.535 83.0245C123.34 82.1409 122.75 80.2061 121.952 79.536Z" fill="#FFF9E9" stroke="#76563F" stroke-width="0.1" stroke-linecap="round" stroke-linejoin="round"/>
<path d="M117.784 82.2289C116.68 82.2174 117.008 82.8201 117.311 83.1229C118.037 83.8496 120.283 84.5021 121.315 84.7375L121.788 83.8435C120.913 83.3101 118.888 82.2404 117.784 82.2289Z" fill="#FFF9E9" stroke="#76563F" stroke-width="0.1" stroke-linecap="round" stroke-linejoin="round"/>
<path d="M117.138 86.5662C116.41 87.252 117.152 87.5496 117.614 87.6126C118.723 87.764 120.754 86.8962 121.631 86.4434L121.155 85.3969C120.119 85.5009 117.866 85.8804 117.138 86.5662Z" fill="#FFF9E9" stroke="#76563F" stroke-width="0.1" stroke-linecap="round" stroke-linejoin="round"/>
<path d="M120.338 90.124C120.421 91.0629 121.174 90.8361 121.54 90.6054C122.417 90.0516 123.064 88.1978 123.278 87.3401L122.077 86.8587C121.463 87.5559 120.255 89.1851 120.338 90.124Z" fill="#FFF9E9" stroke="#76563F" stroke-width="0.1" stroke-linecap="round" stroke-linejoin="round"/>
<path d="M126.732 90.4426C126.658 91.3673 125.974 91.04 125.642 90.7608C124.844 90.0907 124.254 88.156 124.058 87.2724L125.149 86.9542C125.707 87.7317 126.806 89.518 126.732 90.4426Z" fill="#FFF9E9" stroke="#76563F" stroke-width="0.1" stroke-linecap="round" stroke-linejoin="round"/>
<path d="M130.283 87.174C131.009 87.9007 130.27 88.0728 129.81 88.068C128.705 88.0566 126.68 86.9868 125.806 86.4534L126.279 85.5594C127.311 85.7948 129.557 86.4474 130.283 87.174Z" fill="#FFF9E9" stroke="#76563F" stroke-width="0.1" stroke-linecap="round" stroke-linejoin="round"/>
<path d="M129.98 82.6842C131.088 82.8355 130.759 83.4449 130.456 83.7307C129.728 84.4165 127.475 84.7959 126.439 84.8999L125.963 83.8535C126.84 83.4007 128.871 82.5329 129.98 82.6842Z" fill="#FFF9E9" stroke="#76563F" stroke-width="0.1" stroke-linecap="round" stroke-linejoin="round"/>
<path d="M126.054 79.6916C126.932 79.1378 127.221 79.7817 127.256 80.173C127.339 81.1119 126.131 82.741 125.517 83.4382L124.316 82.9568C124.529 82.0991 125.176 80.2453 126.054 79.6916Z" fill="#FFF9E9" stroke="#76563F" stroke-width="0.1" stroke-linecap="round" stroke-linejoin="round"/>
<ellipse cx="123.738" cy="85.0988" rx="2.48446" ry="2.09218" fill="#FCDC8A" stroke="#F5CF6C"/>
<path d="M95.2315 51.2692C94.5354 50.59 94.1421 51.2004 94.0324 51.5905C93.7692 52.5268 94.5541 54.3367 94.9794 55.1246L96.1784 54.8033C96.1528 53.9083 95.9275 51.9485 95.2315 51.2692Z" fill="#FCF4E1" stroke="#76563F" stroke-width="0.1" stroke-linecap="round" stroke-linejoin="round"/>
<path d="M90.7104 53.8507C89.6165 53.8377 89.8169 54.4727 90.0539 54.7918C90.6226 55.5577 92.7156 56.2468 93.691 56.4956L94.3475 55.5545C93.591 54.9919 91.8044 53.8636 90.7104 53.8507Z" fill="#FCF4E1" stroke="#76563F" stroke-width="0.1" stroke-linecap="round" stroke-linejoin="round"/>
<path d="M89.3629 58.2844C88.5118 58.9453 89.1886 59.2329 89.6334 59.2941C90.7009 59.441 92.876 58.6056 93.8301 58.1696L93.5596 57.1599C92.5153 57.2593 90.2139 57.6235 89.3629 58.2844Z" fill="#FCF4E1" stroke="#76563F" stroke-width="0.1" stroke-linecap="round" stroke-linejoin="round"/>
<path d="M91.9782 61.9733C91.8686 62.921 92.6253 62.6927 93.0173 62.4601C93.9582 61.9019 94.9413 60.0315 95.3152 59.166L94.2761 58.6792C93.5558 59.3824 92.0877 61.0257 91.9782 61.9733Z" fill="#FCF4E1" stroke="#76563F" stroke-width="0.1" stroke-linecap="round" stroke-linejoin="round"/>
<path d="M98.2234 62.4352C97.9602 63.3715 97.3143 63.0395 97.0243 62.7565C96.3282 62.0772 96.103 60.1174 96.0774 59.2224L97.2764 58.9011C97.7017 59.689 98.4865 61.4989 98.2234 62.4352Z" fill="#FCF4E1" stroke="#76563F" stroke-width="0.1" stroke-linecap="round" stroke-linejoin="round"/>
<path d="M102.202 59.2338C102.771 59.9997 102.001 60.1804 101.545 60.175C100.451 60.162 98.6648 59.0337 97.9082 58.4712L98.5648 57.53C99.5402 57.7788 101.633 58.4679 102.202 59.2338Z" fill="#FCF4E1" stroke="#76563F" stroke-width="0.1" stroke-linecap="round" stroke-linejoin="round"/>
<path d="M102.622 54.7316C103.69 54.8784 103.248 55.4659 102.893 55.7413C102.042 56.4022 99.7405 56.7663 98.6962 56.8658L98.4257 55.8561C99.3798 55.42 101.555 54.5847 102.622 54.7316Z" fill="#FCF4E1" stroke="#76563F" stroke-width="0.1" stroke-linecap="round" stroke-linejoin="round"/>
<path d="M99.2384 51.5656C100.179 51.0073 100.323 51.6575 100.278 52.0524C100.168 53 98.7 54.6433 97.9797 55.3465L96.9405 54.8597C97.3144 53.9942 98.2975 52.1238 99.2384 51.5656Z" fill="#FCF4E1" stroke="#76563F" stroke-width="0.1" stroke-linecap="round" stroke-linejoin="round"/>
<path d="M93.0121 52.1249C92.0678 51.6842 91.9715 52.3343 92.0413 52.7144C92.209 53.6267 93.7328 55.0677 94.4738 55.6741L95.4446 55.0846C95.0272 54.2816 93.9564 52.5656 93.0121 52.1249Z" fill="#FFF9E9" stroke="#76563F" stroke-width="0.1" stroke-linecap="round" stroke-linejoin="round"/>
<path d="M89.6831 55.8047C88.6135 56.0795 89.0871 56.5765 89.4577 56.7907C90.347 57.3047 92.685 57.3537 93.7429 57.314L93.9684 56.3281C92.9857 56.0391 90.7528 55.53 89.6831 55.8047Z" fill="#FFF9E9" stroke="#76563F" stroke-width="0.1" stroke-linecap="round" stroke-linejoin="round"/>
<path d="M90.1818 60.1614C89.6565 61.0122 90.4501 61.1076 90.9126 61.0489C92.0225 60.9082 93.7598 59.5443 94.4897 58.8799L93.7589 57.9924C92.7854 58.3609 90.7071 59.3106 90.1818 60.1614Z" fill="#FFF9E9" stroke="#76563F" stroke-width="0.1" stroke-linecap="round" stroke-linejoin="round"/>
<path d="M94.1937 62.7697C94.5171 63.655 95.1851 63.2413 95.4787 62.9237C96.1834 62.1616 96.3285 60.2036 96.3129 59.3198L95.0279 59.1657C94.6151 59.9981 93.8704 61.8843 94.1937 62.7697Z" fill="#FFF9E9" stroke="#76563F" stroke-width="0.1" stroke-linecap="round" stroke-linejoin="round"/>
<path d="M100.452 61.4226C100.62 62.3349 99.875 62.1957 99.4815 62.0121C98.5372 61.5714 97.4664 59.8553 97.0491 59.0524L98.0199 58.4629C98.7608 59.0693 100.285 60.5103 100.452 61.4226Z" fill="#FFF9E9" stroke="#76563F" stroke-width="0.1" stroke-linecap="round" stroke-linejoin="round"/>
<path d="M103.036 57.3463C103.925 57.8603 103.256 58.2178 102.811 58.3323C101.741 58.607 99.508 58.0979 98.5253 57.8089L98.7508 56.823C99.8086 56.7833 102.147 56.8323 103.036 57.3463Z" fill="#FFF9E9" stroke="#76563F" stroke-width="0.1" stroke-linecap="round" stroke-linejoin="round"/>
<path d="M101.581 53.088C102.691 52.9473 102.531 53.6211 102.312 53.9755C101.787 54.8263 99.7083 55.776 98.7348 56.1445L98.004 55.257C98.7339 54.5927 100.471 53.2288 101.581 53.088Z" fill="#FFF9E9" stroke="#76563F" stroke-width="0.1" stroke-linecap="round" stroke-linejoin="round"/>
<path d="M97.0149 51.2133C97.7196 50.4511 98.1652 50.9984 98.2999 51.3673C98.6232 52.2527 97.8785 54.1389 97.4657 54.9713L96.1807 54.8172C96.1652 53.9334 96.3102 51.9754 97.0149 51.2133Z" fill="#FFF9E9" stroke="#76563F" stroke-width="0.1" stroke-linecap="round" stroke-linejoin="round"/>
<ellipse cx="96.1769" cy="57.0358" rx="2.48446" ry="2.09218" transform="rotate(-15 96.1769 57.0358)" fill="#FCDC8A" stroke="#F5CF6C"/>
<path d="M38.3171 93.2839C37.8205 92.4476 37.2826 92.9354 37.0757 93.2839C36.5792 94.1202 36.8688 96.0715 37.0757 96.9426H38.3171C38.524 96.0715 38.8136 94.1202 38.3171 93.2839Z" fill="#FCF4E1" stroke="#76563F" stroke-width="0.1" stroke-linecap="round" stroke-linejoin="round"/>
<path d="M33.282 94.6072C32.2286 94.3115 32.2579 94.9768 32.4042 95.3464C32.7553 96.2334 34.5986 97.4407 35.4764 97.9335L36.3542 97.1943C35.769 96.4551 34.3353 94.9029 33.282 94.6072Z" fill="#FCF4E1" stroke="#76563F" stroke-width="0.1" stroke-linecap="round" stroke-linejoin="round"/>
<path d="M30.8328 98.5412C29.8397 98.9593 30.419 99.4123 30.8328 99.5865C31.8259 100.005 34.1431 99.7607 35.1775 99.5865L35.1775 98.5412C34.1431 98.3669 31.8259 98.123 30.8328 98.5412Z" fill="#FCF4E1" stroke="#76563F" stroke-width="0.1" stroke-linecap="round" stroke-linejoin="round"/>
<path d="M32.4042 102.781C32.0531 103.668 32.8431 103.644 33.2819 103.52C34.3353 103.225 35.769 101.672 36.3541 100.933L35.4764 100.194C34.5986 100.687 32.7553 101.894 32.4042 102.781Z" fill="#FCF4E1" stroke="#76563F" stroke-width="0.1" stroke-linecap="round" stroke-linejoin="round"/>
<path d="M38.3171 104.844C37.8205 105.68 37.2826 105.192 37.0757 104.844C36.5792 104.007 36.8688 102.056 37.0757 101.185H38.3171C38.524 102.056 38.8136 104.007 38.3171 104.844Z" fill="#FCF4E1" stroke="#76563F" stroke-width="0.1" stroke-linecap="round" stroke-linejoin="round"/>
<path d="M42.9886 102.781C43.3397 103.668 42.5497 103.644 42.1108 103.52C41.0575 103.225 39.6238 101.672 39.0386 100.933L39.9164 100.194C40.7942 100.687 42.6375 101.894 42.9886 102.781Z" fill="#FCF4E1" stroke="#76563F" stroke-width="0.1" stroke-linecap="round" stroke-linejoin="round"/>
<path d="M44.56 98.5412C45.5531 98.9593 44.9738 99.4123 44.56 99.5865C43.5669 100.005 41.2497 99.7607 40.2153 99.5865L40.2153 98.5412C41.2497 98.3669 43.5669 98.123 44.56 98.5412Z" fill="#FCF4E1" stroke="#76563F" stroke-width="0.1" stroke-linecap="round" stroke-linejoin="round"/>
<path d="M42.1108 94.6072C43.1641 94.3115 43.1349 94.9768 42.9886 95.3464C42.6375 96.2334 40.7941 97.4407 39.9164 97.9335L39.0386 97.1943C39.6238 96.4551 41.0575 94.9029 42.1108 94.6072Z" fill="#FCF4E1" stroke="#76563F" stroke-width="0.1" stroke-linecap="round" stroke-linejoin="round"/>
<path d="M35.9519 93.536C35.1538 92.866 34.8925 93.469 34.8616 93.8542C34.7874 94.7789 35.8864 96.5651 36.4451 97.3427L37.5354 97.0245C37.3401 96.1409 36.75 94.2061 35.9519 93.536Z" fill="#FFF9E9" stroke="#76563F" stroke-width="0.1" stroke-linecap="round" stroke-linejoin="round"/>
<path d="M31.7839 96.2289C30.6796 96.2174 31.0085 96.8201 31.3109 97.1229C32.0369 97.8496 34.2826 98.5021 35.3147 98.7375L35.7877 97.8435C34.9132 97.3101 32.8883 96.2404 31.7839 96.2289Z" fill="#FFF9E9" stroke="#76563F" stroke-width="0.1" stroke-linecap="round" stroke-linejoin="round"/>
<path d="M31.138 100.566C30.4104 101.252 31.1523 101.55 31.6142 101.613C32.7227 101.764 34.7538 100.896 35.6308 100.443L35.1546 99.3969C34.1189 99.5009 31.8656 99.8804 31.138 100.566Z" fill="#FFF9E9" stroke="#76563F" stroke-width="0.1" stroke-linecap="round" stroke-linejoin="round"/>
<path d="M34.3382 104.124C34.4213 105.063 35.1737 104.836 35.5395 104.605C36.4174 104.052 37.0643 102.198 37.278 101.34L36.0767 100.859C35.4625 101.556 34.255 103.185 34.3382 104.124Z" fill="#FFF9E9" stroke="#76563F" stroke-width="0.1" stroke-linecap="round" stroke-linejoin="round"/>
<path d="M40.7321 104.443C40.6579 105.367 39.9743 105.04 39.6418 104.761C38.8437 104.091 38.2536 102.156 38.0583 101.272L39.1486 100.954C39.7073 101.732 40.8063 103.518 40.7321 104.443Z" fill="#FFF9E9" stroke="#76563F" stroke-width="0.1" stroke-linecap="round" stroke-linejoin="round"/>
<path d="M44.2828 101.174C45.0088 101.901 44.27 102.073 43.8098 102.068C42.7055 102.057 40.6805 100.987 39.806 100.453L40.279 99.5594C41.3111 99.7948 43.5568 100.447 44.2828 101.174Z" fill="#FFF9E9" stroke="#76563F" stroke-width="0.1" stroke-linecap="round" stroke-linejoin="round"/>
<path d="M43.9796 96.6842C45.0881 96.8355 44.759 97.4449 44.4558 97.7307C43.7282 98.4165 41.4749 98.7959 40.4392 98.8999L39.963 97.8535C40.8399 97.4007 42.871 96.5329 43.9796 96.6842Z" fill="#FFF9E9" stroke="#76563F" stroke-width="0.1" stroke-linecap="round" stroke-linejoin="round"/>
<path d="M40.0542 93.6916C40.9321 93.1378 41.2209 93.7817 41.2556 94.173C41.3387 95.1119 40.1312 96.741 39.517 97.4382L38.3157 96.9568C38.5294 96.0991 39.1763 94.2453 40.0542 93.6916Z" fill="#FFF9E9" stroke="#76563F" stroke-width="0.1" stroke-linecap="round" stroke-linejoin="round"/>
<ellipse cx="37.7378" cy="99.0988" rx="2.48446" ry="2.09218" fill="#FCDC8A" stroke="#F5CF6C"/>
<path d="M117.169 72.1355C116.672 71.2992 116.134 71.787 115.927 72.1355C115.431 72.9717 115.72 74.9231 115.927 75.7942H117.169C117.376 74.9231 117.665 72.9717 117.169 72.1355Z" fill="#FCF4E1" stroke="#76563F" stroke-width="0.1" stroke-linecap="round" stroke-linejoin="round"/>
<path d="M112.134 73.4587C111.08 73.1631 111.109 73.8283 111.256 74.1979C111.607 75.0849 113.45 76.2923 114.328 76.785L115.206 76.0459C114.621 75.3067 113.187 73.7544 112.134 73.4587Z" fill="#FCF4E1" stroke="#76563F" stroke-width="0.1" stroke-linecap="round" stroke-linejoin="round"/>
<path d="M109.684 77.3927C108.691 77.8109 109.271 78.2638 109.684 78.4381C110.677 78.8562 112.995 78.6123 114.029 78.4381L114.029 77.3927C112.995 77.2185 110.677 76.9746 109.684 77.3927Z" fill="#FCF4E1" stroke="#76563F" stroke-width="0.1" stroke-linecap="round" stroke-linejoin="round"/>
<path d="M111.256 81.6328C110.905 82.5198 111.695 82.4951 112.134 82.3719C113.187 82.0763 114.621 80.524 115.206 79.7848L114.328 79.0456C113.45 79.5384 111.607 80.7457 111.256 81.6328Z" fill="#FCF4E1" stroke="#76563F" stroke-width="0.1" stroke-linecap="round" stroke-linejoin="round"/>
<path d="M117.169 83.6952C116.672 84.5315 116.134 84.0437 115.927 83.6952C115.431 82.8589 115.72 80.9076 115.927 80.0365H117.169C117.376 80.9076 117.665 82.8589 117.169 83.6952Z" fill="#FCF4E1" stroke="#76563F" stroke-width="0.1" stroke-linecap="round" stroke-linejoin="round"/>
<path d="M121.84 81.6328C122.191 82.5198 121.401 82.4951 120.962 82.3719C119.909 82.0763 118.475 80.524 117.89 79.7848L118.768 79.0456C119.646 79.5384 121.489 80.7457 121.84 81.6328Z" fill="#FCF4E1" stroke="#76563F" stroke-width="0.1" stroke-linecap="round" stroke-linejoin="round"/>
<path d="M123.412 77.3927C124.405 77.8109 123.825 78.2638 123.412 78.4381C122.418 78.8562 120.101 78.6123 119.067 78.4381L119.067 77.3927C120.101 77.2185 122.418 76.9746 123.412 77.3927Z" fill="#FCF4E1" stroke="#76563F" stroke-width="0.1" stroke-linecap="round" stroke-linejoin="round"/>
<path d="M120.962 73.4587C122.016 73.1631 121.986 73.8283 121.84 74.1979C121.489 75.0849 119.646 76.2923 118.768 76.785L117.89 76.0459C118.475 75.3067 119.909 73.7544 120.962 73.4587Z" fill="#FCF4E1" stroke="#76563F" stroke-width="0.1" stroke-linecap="round" stroke-linejoin="round"/>
<path d="M114.803 72.3876C114.005 71.7175 113.744 72.3205 113.713 72.7058C113.639 73.6304 114.738 75.4167 115.297 76.1942L116.387 75.8761C116.192 74.9924 115.602 73.0577 114.803 72.3876Z" fill="#FFF9E9" stroke="#76563F" stroke-width="0.1" stroke-linecap="round" stroke-linejoin="round"/>
<path d="M110.635 75.0805C109.531 75.069 109.86 75.6717 110.162 75.9745C110.888 76.7011 113.134 77.3536 114.166 77.5891L114.639 76.6951C113.765 76.1617 111.74 75.0919 110.635 75.0805Z" fill="#FFF9E9" stroke="#76563F" stroke-width="0.1" stroke-linecap="round" stroke-linejoin="round"/>
<path d="M109.99 79.4178C109.262 80.1036 110.004 80.4012 110.466 80.4642C111.574 80.6155 113.605 79.7478 114.482 79.2949L114.006 78.2485C112.97 78.3525 110.717 78.7319 109.99 79.4178Z" fill="#FFF9E9" stroke="#76563F" stroke-width="0.1" stroke-linecap="round" stroke-linejoin="round"/>
<path d="M113.19 82.9755C113.273 83.9144 114.025 83.6877 114.391 83.4569C115.269 82.9032 115.916 81.0494 116.13 80.1917L114.928 79.7103C114.314 80.4075 113.107 82.0366 113.19 82.9755Z" fill="#FFF9E9" stroke="#76563F" stroke-width="0.1" stroke-linecap="round" stroke-linejoin="round"/>
<path d="M119.584 83.2942C119.51 84.2188 118.826 83.8916 118.493 83.6124C117.695 82.9423 117.105 81.0076 116.91 80.1239L118 79.8058C118.559 80.5833 119.658 82.3696 119.584 83.2942Z" fill="#FFF9E9" stroke="#76563F" stroke-width="0.1" stroke-linecap="round" stroke-linejoin="round"/>
<path d="M123.134 80.0256C123.86 80.7522 123.122 80.9244 122.661 80.9196C121.557 80.9081 119.532 79.8384 118.658 79.305L119.131 78.411C120.163 78.6464 122.408 79.2989 123.134 80.0256Z" fill="#FFF9E9" stroke="#76563F" stroke-width="0.1" stroke-linecap="round" stroke-linejoin="round"/>
<path d="M122.831 75.5358C123.94 75.6871 123.611 76.2965 123.307 76.5822C122.58 77.2681 120.326 77.6475 119.291 77.7515L118.815 76.705C119.691 76.2522 121.723 75.3845 122.831 75.5358Z" fill="#FFF9E9" stroke="#76563F" stroke-width="0.1" stroke-linecap="round" stroke-linejoin="round"/>
<path d="M118.906 72.5431C119.784 71.9893 120.072 72.6333 120.107 73.0245C120.19 73.9634 118.983 75.5925 118.369 76.2897L117.167 75.8083C117.381 74.9507 118.028 73.0969 118.906 72.5431Z" fill="#FFF9E9" stroke="#76563F" stroke-width="0.1" stroke-linecap="round" stroke-linejoin="round"/>
<ellipse cx="116.589" cy="77.9503" rx="2.48446" ry="2.09218" fill="#FCDC8A" stroke="#F5CF6C"/>
<path d="M91.1686 29.1355C90.6721 28.2992 90.1342 28.787 89.9273 29.1355C89.4307 29.9717 89.7204 31.9231 89.9273 32.7942H91.1686C91.3755 31.9231 91.6652 29.9717 91.1686 29.1355Z" fill="#FCF4E1" stroke="#76563F" stroke-width="0.1" stroke-linecap="round" stroke-linejoin="round"/>
<path d="M86.1335 30.4587C85.0802 30.1631 85.1095 30.8283 85.2558 31.1979C85.6069 32.0849 87.4502 33.2923 88.328 33.785L89.2057 33.0459C88.6205 32.3067 87.1869 30.7544 86.1335 30.4587Z" fill="#FCF4E1" stroke="#76563F" stroke-width="0.1" stroke-linecap="round" stroke-linejoin="round"/>
<path d="M83.6843 34.3927C82.6913 34.8109 83.2705 35.2638 83.6843 35.4381C84.6774 35.8562 86.9946 35.6123 88.0291 35.4381L88.0291 34.3927C86.9946 34.2185 84.6774 33.9746 83.6843 34.3927Z" fill="#FCF4E1" stroke="#76563F" stroke-width="0.1" stroke-linecap="round" stroke-linejoin="round"/>
<path d="M85.2557 38.6328C84.9046 39.5198 85.6946 39.4951 86.1335 39.3719C87.1868 39.0763 88.6205 37.524 89.2057 36.7848L88.3279 36.0456C87.4502 36.5384 85.6069 37.7457 85.2557 38.6328Z" fill="#FCF4E1" stroke="#76563F" stroke-width="0.1" stroke-linecap="round" stroke-linejoin="round"/>
<path d="M91.1686 40.6952C90.6721 41.5315 90.1342 41.0437 89.9273 40.6952C89.4307 39.8589 89.7204 37.9076 89.9273 37.0365H91.1686C91.3755 37.9076 91.6652 39.8589 91.1686 40.6952Z" fill="#FCF4E1" stroke="#76563F" stroke-width="0.1" stroke-linecap="round" stroke-linejoin="round"/>
<path d="M95.8402 38.6328C96.1913 39.5198 95.4013 39.4951 94.9624 39.3719C93.9091 39.0763 92.4754 37.524 91.8902 36.7848L92.768 36.0456C93.6457 36.5384 95.489 37.7457 95.8402 38.6328Z" fill="#FCF4E1" stroke="#76563F" stroke-width="0.1" stroke-linecap="round" stroke-linejoin="round"/>
<path d="M97.4116 34.3927C98.4047 34.8109 97.8254 35.2638 97.4116 35.4381C96.4185 35.8562 94.1013 35.6123 93.0668 35.4381L93.0668 34.3927C94.1013 34.2185 96.4185 33.9746 97.4116 34.3927Z" fill="#FCF4E1" stroke="#76563F" stroke-width="0.1" stroke-linecap="round" stroke-linejoin="round"/>
<path d="M94.9624 30.4587C96.0157 30.1631 95.9864 30.8283 95.8401 31.1979C95.489 32.0849 93.6457 33.2923 92.7679 33.785L91.8902 33.0459C92.4754 32.3067 93.909 30.7544 94.9624 30.4587Z" fill="#FCF4E1" stroke="#76563F" stroke-width="0.1" stroke-linecap="round" stroke-linejoin="round"/>
<path d="M88.8035 29.3876C88.0054 28.7175 87.7441 29.3205 87.7132 29.7058C87.639 30.6304 88.7379 32.4167 89.2967 33.1942L90.387 32.8761C90.1917 31.9924 89.6015 30.0577 88.8035 29.3876Z" fill="#FFF9E9" stroke="#76563F" stroke-width="0.1" stroke-linecap="round" stroke-linejoin="round"/>
<path d="M84.6355 32.0805C83.5311 32.069 83.86 32.6717 84.1625 32.9745C84.8885 33.7011 87.1342 34.3536 88.1663 34.5891L88.6393 33.6951C87.7648 33.1617 85.7398 32.0919 84.6355 32.0805Z" fill="#FFF9E9" stroke="#76563F" stroke-width="0.1" stroke-linecap="round" stroke-linejoin="round"/>
<path d="M83.9895 36.4178C83.2619 37.1036 84.0038 37.4012 84.4657 37.4642C85.5743 37.6155 87.6054 36.7478 88.4823 36.2949L88.0061 35.2485C86.9704 35.3525 84.7171 35.7319 83.9895 36.4178Z" fill="#FFF9E9" stroke="#76563F" stroke-width="0.1" stroke-linecap="round" stroke-linejoin="round"/>
<path d="M87.1897 39.9755C87.2729 40.9144 88.0253 40.6877 88.3911 40.4569C89.269 39.9032 89.9159 38.0494 90.1296 37.1917L88.9282 36.7103C88.3141 37.4075 87.1066 39.0366 87.1897 39.9755Z" fill="#FFF9E9" stroke="#76563F" stroke-width="0.1" stroke-linecap="round" stroke-linejoin="round"/>
<path d="M93.5837 40.2942C93.5095 41.2188 92.8259 40.8916 92.4934 40.6124C91.6953 39.9423 91.1052 38.0076 90.9099 37.1239L92.0002 36.8058C92.5589 37.5833 93.6579 39.3696 93.5837 40.2942Z" fill="#FFF9E9" stroke="#76563F" stroke-width="0.1" stroke-linecap="round" stroke-linejoin="round"/>
<path d="M97.1344 37.0256C97.8603 37.7522 97.1215 37.9244 96.6614 37.9196C95.557 37.9081 93.5321 36.8384 92.6576 36.305L93.1306 35.411C94.1627 35.6464 96.4084 36.2989 97.1344 37.0256Z" fill="#FFF9E9" stroke="#76563F" stroke-width="0.1" stroke-linecap="round" stroke-linejoin="round"/>
<path d="M96.8311 32.5358C97.9397 32.6871 97.6105 33.2965 97.3074 33.5822C96.5798 34.2681 94.3264 34.6475 93.2907 34.7515L92.8145 33.705C93.6915 33.2522 95.7226 32.3845 96.8311 32.5358Z" fill="#FFF9E9" stroke="#76563F" stroke-width="0.1" stroke-linecap="round" stroke-linejoin="round"/>
<path d="M92.9058 29.5431C93.7837 28.9893 94.0725 29.6333 94.1071 30.0245C94.1903 30.9634 92.9827 32.5925 92.3686 33.2897L91.1673 32.8083C91.381 31.9507 92.0279 30.0969 92.9058 29.5431Z" fill="#FFF9E9" stroke="#76563F" stroke-width="0.1" stroke-linecap="round" stroke-linejoin="round"/>
<ellipse cx="90.5894" cy="34.9503" rx="2.48446" ry="2.09218" fill="#FCDC8A" stroke="#F5CF6C"/>
<path d="M121.169 107.135C120.672 106.299 120.134 106.787 119.927 107.135C119.431 107.972 119.72 109.923 119.927 110.794H121.169C121.376 109.923 121.665 107.972 121.169 107.135Z" fill="#FCF4E1" stroke="#76563F" stroke-width="0.1" stroke-linecap="round" stroke-linejoin="round"/>
<path d="M116.134 108.459C115.08 108.163 115.109 108.828 115.256 109.198C115.607 110.085 117.45 111.292 118.328 111.785L119.206 111.046C118.621 110.307 117.187 108.754 116.134 108.459Z" fill="#FCF4E1" stroke="#76563F" stroke-width="0.1" stroke-linecap="round" stroke-linejoin="round"/>
<path d="M113.684 112.393C112.691 112.811 113.271 113.264 113.684 113.438C114.677 113.856 116.995 113.612 118.029 113.438L118.029 112.393C116.995 112.218 114.677 111.975 113.684 112.393Z" fill="#FCF4E1" stroke="#76563F" stroke-width="0.1" stroke-linecap="round" stroke-linejoin="round"/>
<path d="M115.256 116.633C114.905 117.52 115.695 117.495 116.134 117.372C117.187 117.076 118.621 115.524 119.206 114.785L118.328 114.046C117.45 114.538 115.607 115.746 115.256 116.633Z" fill="#FCF4E1" stroke="#76563F" stroke-width="0.1" stroke-linecap="round" stroke-linejoin="round"/>
<path d="M121.169 118.695C120.672 119.532 120.134 119.044 119.927 118.695C119.431 117.859 119.72 115.908 119.927 115.036H121.169C121.376 115.908 121.665 117.859 121.169 118.695Z" fill="#FCF4E1" stroke="#76563F" stroke-width="0.1" stroke-linecap="round" stroke-linejoin="round"/>
<path d="M125.84 116.633C126.191 117.52 125.401 117.495 124.962 117.372C123.909 117.076 122.475 115.524 121.89 114.785L122.768 114.046C123.646 114.538 125.489 115.746 125.84 116.633Z" fill="#FCF4E1" stroke="#76563F" stroke-width="0.1" stroke-linecap="round" stroke-linejoin="round"/>
<path d="M127.412 112.393C128.405 112.811 127.825 113.264 127.412 113.438C126.418 113.856 124.101 113.612 123.067 113.438L123.067 112.393C124.101 112.218 126.418 111.975 127.412 112.393Z" fill="#FCF4E1" stroke="#76563F" stroke-width="0.1" stroke-linecap="round" stroke-linejoin="round"/>
<path d="M124.962 108.459C126.016 108.163 125.986 108.828 125.84 109.198C125.489 110.085 123.646 111.292 122.768 111.785L121.89 111.046C122.475 110.307 123.909 108.754 124.962 108.459Z" fill="#FCF4E1" stroke="#76563F" stroke-width="0.1" stroke-linecap="round" stroke-linejoin="round"/>
<path d="M118.803 107.388C118.005 106.718 117.744 107.321 117.713 107.706C117.639 108.63 118.738 110.417 119.297 111.194L120.387 110.876C120.192 109.992 119.602 108.058 118.803 107.388Z" fill="#FFF9E9" stroke="#76563F" stroke-width="0.1" stroke-linecap="round" stroke-linejoin="round"/>
<path d="M114.635 110.08C113.531 110.069 113.86 110.672 114.162 110.974C114.888 111.701 117.134 112.354 118.166 112.589L118.639 111.695C117.765 111.162 115.74 110.092 114.635 110.08Z" fill="#FFF9E9" stroke="#76563F" stroke-width="0.1" stroke-linecap="round" stroke-linejoin="round"/>
<path d="M113.99 114.418C113.262 115.104 114.004 115.401 114.466 115.464C115.574 115.616 117.605 114.748 118.482 114.295L118.006 113.249C116.97 113.352 114.717 113.732 113.99 114.418Z" fill="#FFF9E9" stroke="#76563F" stroke-width="0.1" stroke-linecap="round" stroke-linejoin="round"/>
<path d="M117.19 117.976C117.273 118.914 118.025 118.688 118.391 118.457C119.269 117.903 119.916 116.049 120.13 115.192L118.928 114.71C118.314 115.408 117.107 117.037 117.19 117.976Z" fill="#FFF9E9" stroke="#76563F" stroke-width="0.1" stroke-linecap="round" stroke-linejoin="round"/>
<path d="M123.584 118.294C123.51 119.219 122.826 118.892 122.493 118.612C121.695 117.942 121.105 116.008 120.91 115.124L122 114.806C122.559 115.583 123.658 117.37 123.584 118.294Z" fill="#FFF9E9" stroke="#76563F" stroke-width="0.1" stroke-linecap="round" stroke-linejoin="round"/>
<path d="M127.134 115.026C127.86 115.752 127.122 115.924 126.661 115.92C125.557 115.908 123.532 114.838 122.658 114.305L123.131 113.411C124.163 113.646 126.408 114.299 127.134 115.026Z" fill="#FFF9E9" stroke="#76563F" stroke-width="0.1" stroke-linecap="round" stroke-linejoin="round"/>
<path d="M126.831 110.536C127.94 110.687 127.611 111.296 127.307 111.582C126.58 112.268 124.326 112.647 123.291 112.751L122.815 111.705C123.691 111.252 125.723 110.384 126.831 110.536Z" fill="#FFF9E9" stroke="#76563F" stroke-width="0.1" stroke-linecap="round" stroke-linejoin="round"/>
<path d="M122.906 107.543C123.784 106.989 124.072 107.633 124.107 108.025C124.19 108.963 122.983 110.593 122.369 111.29L121.167 110.808C121.381 109.951 122.028 108.097 122.906 107.543Z" fill="#FFF9E9" stroke="#76563F" stroke-width="0.1" stroke-linecap="round" stroke-linejoin="round"/>
<ellipse cx="120.589" cy="112.95" rx="2.48446" ry="2.09218" fill="#FCDC8A" stroke="#F5CF6C"/>
<path d="M104.074 109.508C103.811 108.571 103.165 108.903 102.875 109.186C102.179 109.866 101.954 111.825 101.928 112.72L103.127 113.042C103.553 112.254 104.338 110.444 104.074 109.508Z" fill="#FCF4E1" stroke="#76563F" stroke-width="0.1" stroke-linecap="round" stroke-linejoin="round"/>
<path d="M98.8684 109.483C97.9275 108.924 97.7836 109.575 97.8292 109.969C97.9388 110.917 99.4068 112.56 100.127 113.264L101.166 112.777C100.792 111.911 99.8093 110.041 98.8684 109.483Z" fill="#FCF4E1" stroke="#76563F" stroke-width="0.1" stroke-linecap="round" stroke-linejoin="round"/>
<path d="M95.4845 112.649C94.417 112.796 94.8593 113.383 95.2139 113.658C96.065 114.319 98.3663 114.683 99.4106 114.783L99.6812 113.773C98.7271 113.337 96.552 112.502 95.4845 112.649Z" fill="#FCF4E1" stroke="#76563F" stroke-width="0.1" stroke-linecap="round" stroke-linejoin="round"/>
<path d="M95.9049 117.151C95.3362 117.917 96.1057 118.098 96.5615 118.092C97.6554 118.079 99.442 116.951 100.199 116.388L99.542 115.447C98.5666 115.696 96.4736 116.385 95.9049 117.151Z" fill="#FCF4E1" stroke="#76563F" stroke-width="0.1" stroke-linecap="round" stroke-linejoin="round"/>
<path d="M101.083 120.674C100.386 121.353 99.9931 120.742 99.8835 120.352C99.6203 119.416 100.405 117.606 100.83 116.818L102.029 117.14C102.004 118.035 101.779 119.994 101.083 120.674Z" fill="#FCF4E1" stroke="#76563F" stroke-width="0.1" stroke-linecap="round" stroke-linejoin="round"/>
<path d="M106.129 119.89C106.238 120.838 105.482 120.61 105.09 120.377C104.149 119.819 103.166 117.949 102.792 117.083L103.831 116.596C104.551 117.3 106.019 118.943 106.129 119.89Z" fill="#FCF4E1" stroke="#76563F" stroke-width="0.1" stroke-linecap="round" stroke-linejoin="round"/>
<path d="M108.744 116.202C109.595 116.862 108.918 117.15 108.473 117.211C107.406 117.358 105.231 116.523 104.277 116.087L104.547 115.077C105.592 115.176 107.893 115.541 108.744 116.202Z" fill="#FCF4E1" stroke="#76563F" stroke-width="0.1" stroke-linecap="round" stroke-linejoin="round"/>
<path d="M107.396 111.768C108.49 111.755 108.29 112.39 108.053 112.709C107.484 113.475 105.391 114.164 104.416 114.413L103.759 113.472C104.516 112.909 106.302 111.781 107.396 111.768Z" fill="#FCF4E1" stroke="#76563F" stroke-width="0.1" stroke-linecap="round" stroke-linejoin="round"/>
<path d="M101.725 109.139C101.127 108.285 100.719 108.8 100.589 109.164C100.278 110.038 100.877 112.048 101.216 112.944L102.351 112.918C102.391 112.014 102.322 109.993 101.725 109.139Z" fill="#FFF9E9" stroke="#76563F" stroke-width="0.1" stroke-linecap="round" stroke-linejoin="round"/>
<path d="M97.0017 110.661C95.9379 110.364 96.0996 111.032 96.3134 111.402C96.8266 112.292 98.8269 113.504 99.7629 113.998L100.451 113.257C99.7446 112.516 98.0654 110.958 97.0017 110.661Z" fill="#FFF9E9" stroke="#76563F" stroke-width="0.1" stroke-linecap="round" stroke-linejoin="round"/>
<path d="M95.2551 114.684C94.3748 115.158 95.0144 115.637 95.4443 115.818C96.4759 116.251 98.6624 115.938 99.6267 115.728L99.4375 114.594C98.4102 114.426 96.1355 114.21 95.2551 114.684Z" fill="#FFF9E9" stroke="#76563F" stroke-width="0.1" stroke-linecap="round" stroke-linejoin="round"/>
<path d="M97.4255 118.948C97.2628 119.877 98.0483 119.853 98.4613 119.724C99.4526 119.417 100.557 117.794 100.986 117.02L99.9499 116.244C99.1762 116.759 97.5882 118.02 97.4255 118.948Z" fill="#FFF9E9" stroke="#76563F" stroke-width="0.1" stroke-linecap="round" stroke-linejoin="round"/>
<path d="M103.519 120.911C103.208 121.785 102.633 121.292 102.384 120.936C101.786 120.083 101.717 118.061 101.757 117.157L102.892 117.132C103.231 118.027 103.83 120.037 103.519 120.911Z" fill="#FFF9E9" stroke="#76563F" stroke-width="0.1" stroke-linecap="round" stroke-linejoin="round"/>
<path d="M107.795 118.673C108.308 119.563 107.55 119.538 107.107 119.414C106.043 119.117 104.364 117.56 103.657 116.818L104.345 116.077C105.281 116.572 107.282 117.783 107.795 118.673Z" fill="#FFF9E9" stroke="#76563F" stroke-width="0.1" stroke-linecap="round" stroke-linejoin="round"/>
<path d="M108.664 114.258C109.696 114.691 109.22 115.194 108.853 115.392C107.973 115.866 105.698 115.649 104.671 115.482L104.482 114.348C105.446 114.137 107.632 113.825 108.664 114.258Z" fill="#FFF9E9" stroke="#76563F" stroke-width="0.1" stroke-linecap="round" stroke-linejoin="round"/>
<path d="M105.647 110.351C106.638 110.043 106.75 110.74 106.683 111.127C106.52 112.055 104.932 113.316 104.158 113.831L103.123 113.055C103.551 112.282 104.656 110.659 105.647 110.351Z" fill="#FFF9E9" stroke="#76563F" stroke-width="0.1" stroke-linecap="round" stroke-linejoin="round"/>
<ellipse cx="102.01" cy="114.974" rx="2.48446" ry="2.09218" transform="rotate(15 102.01 114.974)" fill="#FCDC8A" stroke="#F5CF6C"/>
<path d="M54 83.5V159M101.5 72.5L73 173.5M130 54.5L90 159M76.5 35L73 154.5M40 58L60.5 162" stroke="#55794F" stroke-linecap="round" stroke-linejoin="round"/>
<path d="M44.1131 34.9032C49.0086 44.0703 49.7261 48.36 48.6611 54.9087C47.6194 61.3138 42.9377 64.4997 39.9881 65.5069C32.331 66.6303 28.6511 62.4661 25.6908 58.374C24.2133 56.3034 20.9128 50.1579 19.5316 42.1402C20.667 42.2068 22.5235 42.3772 23.9172 42.7209C23.904 41.1333 24.9848 39.4083 25.5268 38.7442C27.2786 38.6823 28.833 39.6887 29.3912 40.1997C30.1027 38.0676 31.299 36.2452 32.0695 35.3288C33.3994 35.6493 34.7368 36.513 35.9211 37.5297C36.4066 36.9819 38.2134 35.5362 39.3737 35.0707C39.7861 35.233 40.9095 35.8655 42.1038 37.097C42.8371 36.1546 43.5384 35.4135 44.1131 34.9032Z" fill="#C1495E"/>
<path d="M39.9881 65.5069C32.331 66.6303 28.6511 62.4661 25.6908 58.374C24.2133 56.3034 20.9128 50.1579 19.5316 42.1402C20.667 42.2068 22.5235 42.3772 23.9172 42.7209M39.9881 65.5069C42.9377 64.4997 47.6194 61.3138 48.6611 54.9087C49.7261 48.36 49.0086 44.0703 44.1131 34.9032C43.5384 35.4135 42.8371 36.1546 42.1038 37.097M39.9881 65.5069C40.3596 59.867 39.197 55.4896 37.2097 52.1293M37.2097 52.1293C36.9906 48.0191 38.0222 44.364 39.4269 41.4371M37.2097 52.1293C35.0819 48.5312 32.0086 46.099 28.8608 44.5313M39.4269 41.4371C38.762 40.4572 37.473 38.8621 35.9211 37.5297M39.4269 41.4371C40.2499 39.722 41.2011 38.257 42.1038 37.097M35.9211 37.5297C34.7368 36.513 33.3994 35.6493 32.0695 35.3288C31.299 36.2452 30.1027 38.0676 29.3912 40.1997M35.9211 37.5297C36.4066 36.9819 38.2134 35.5362 39.3737 35.0707C39.7861 35.233 40.9095 35.8655 42.1038 37.097M28.8608 44.5313C28.6772 43.0649 28.9343 41.5685 29.3912 40.1997M28.8608 44.5313C27.1905 43.6995 25.4993 43.111 23.9172 42.7209M29.3912 40.1997C28.833 39.6887 27.2786 38.6823 25.5268 38.7442C24.9848 39.4083 23.904 41.1333 23.9172 42.7209" stroke="#3B4B38" stroke-width="0.1" stroke-linecap="round" stroke-linejoin="round"/>
<path fill-rule="evenodd" clip-rule="evenodd" d="M48.6611 54.9087C49.7261 48.36 49.0086 44.0703 44.1131 34.9032C43.5384 35.4135 42.8371 36.1546 42.1038 37.097C41.2011 38.257 40.2499 39.722 39.4269 41.4371C38.0222 44.364 36.9906 48.0191 37.2097 52.1293C35.0819 48.5312 32.0086 46.099 28.8608 44.5313C27.1905 43.6995 25.4993 43.111 23.9172 42.7209C22.5235 42.3772 20.667 42.2068 19.5316 42.1402C20.9128 50.1579 24.2133 56.3034 25.6908 58.374C28.6511 62.4661 32.331 66.6303 39.9881 65.5069C42.9377 64.4997 47.6194 61.3138 48.6611 54.9087Z" fill="#DC536C"/>
<path d="M39.9881 65.5069C32.331 66.6303 28.6511 62.4661 25.6908 58.374C24.2133 56.3034 20.9128 50.1579 19.5316 42.1402C20.667 42.2068 22.5235 42.3772 23.9172 42.7209M39.9881 65.5069C42.9377 64.4997 47.6194 61.3138 48.6611 54.9087C49.7261 48.36 49.0086 44.0703 44.1131 34.9032C43.5384 35.4135 42.8371 36.1546 42.1038 37.097M39.9881 65.5069C40.3596 59.867 39.197 55.4896 37.2097 52.1293M37.2097 52.1293C36.9906 48.0191 38.0222 44.364 39.4269 41.4371M37.2097 52.1293C35.0819 48.5312 32.0086 46.099 28.8608 44.5313M39.4269 41.4371C38.762 40.4572 37.473 38.8621 35.9211 37.5297M39.4269 41.4371C40.2499 39.722 41.2011 38.257 42.1038 37.097M35.9211 37.5297C34.7368 36.513 33.3994 35.6493 32.0695 35.3288C31.299 36.2452 30.1027 38.0676 29.3912 40.1997M35.9211 37.5297C36.4066 36.9819 38.2134 35.5362 39.3737 35.0707C39.7861 35.233 40.9095 35.8655 42.1038 37.097M28.8608 44.5313C28.6772 43.0649 28.9343 41.5685 29.3912 40.1997M28.8608 44.5313C27.1905 43.6995 25.4993 43.111 23.9172 42.7209M29.3912 40.1997C28.833 39.6887 27.2786 38.6823 25.5268 38.7442C24.9848 39.4083 23.904 41.1333 23.9172 42.7209" stroke="#3B4B38" stroke-width="0.5" stroke-linecap="round" stroke-linejoin="round"/>
<path d="M67.5891 62.2991C68.4499 72.6558 67.4083 76.8785 63.8347 82.4686C60.3394 87.9362 54.7784 89.0054 51.6711 88.7608C44.196 86.7571 42.4681 81.4753 41.3725 76.545C40.8367 74.0584 40.2425 67.108 42.1525 59.1996C43.1686 59.7108 44.8054 60.6032 45.9488 61.4711C46.5659 60.0083 48.2419 58.853 49.0028 58.4582C50.6356 59.0957 51.6637 60.6358 51.9737 61.3262C53.4721 59.6508 55.2927 58.4519 56.3633 57.916C57.4573 58.7374 58.3427 60.0605 59.027 61.4633C59.6899 61.1528 61.9217 60.5417 63.1715 60.5743C63.4858 60.8868 64.2665 61.9128 64.8748 63.5167C65.9216 62.9423 66.8592 62.5399 67.5891 62.2991Z" fill="#C1495E"/>
<path d="M51.6711 88.7608C44.196 86.7571 42.4681 81.4753 41.3725 76.545C40.8367 74.0584 40.2425 67.108 42.1525 59.1996C43.1686 59.7108 44.8054 60.6032 45.9488 61.4711M51.6711 88.7608C54.7784 89.0054 60.3394 87.9362 63.8347 82.4686C67.4083 76.8785 68.4499 72.6558 67.5891 62.2991C66.8592 62.5399 65.9216 62.9423 64.8748 63.5167M51.6711 88.7608C54.2478 83.7302 54.9155 79.2506 54.423 75.3777M54.423 75.3777C55.8511 71.5174 58.247 68.5706 60.6968 66.4402M54.423 75.3777C53.8957 71.2309 52.0383 67.7798 49.7697 65.0928M60.6968 66.4402C60.4748 65.2771 59.9237 63.3017 59.027 61.4633M60.6968 66.4402C62.1323 65.1919 63.5863 64.2239 64.8748 63.5167M59.027 61.4633C58.3427 60.0605 57.4573 58.7374 56.3633 57.916C55.2927 58.4519 53.4721 59.6508 51.9737 61.3262M59.027 61.4633C59.6899 61.1528 61.9217 60.5417 63.1715 60.5743C63.4858 60.8868 64.2665 61.9128 64.8748 63.5167M49.7697 65.0928C50.1825 63.6738 51.0117 62.4018 51.9737 61.3262M49.7697 65.0928C48.566 63.667 47.2466 62.4564 45.9488 61.4711M51.9737 61.3262C51.6637 60.6358 50.6356 59.0957 49.0028 58.4582C48.2419 58.853 46.5659 60.0083 45.9488 61.4711" stroke="#3B4B38" stroke-width="0.1" stroke-linecap="round" stroke-linejoin="round"/>
<path fill-rule="evenodd" clip-rule="evenodd" d="M63.8347 82.4686C67.4083 76.8785 68.4499 72.6558 67.5891 62.2991C66.8592 62.5399 65.9216 62.9423 64.8748 63.5167C63.5863 64.2239 62.1323 65.1919 60.6968 66.4402C58.247 68.5706 55.8511 71.5174 54.423 75.3777C53.8957 71.2309 52.0383 67.7798 49.7697 65.0928C48.566 63.667 47.2466 62.4564 45.9488 61.4711C44.8054 60.6032 43.1686 59.7108 42.1525 59.1996C40.2425 67.108 40.8367 74.0584 41.3725 76.545C42.4681 81.4753 44.196 86.7571 51.6711 88.7608C54.7784 89.0054 60.3394 87.9362 63.8347 82.4686Z" fill="#DC536C"/>
<path d="M51.6711 88.7608C44.196 86.7571 42.4681 81.4753 41.3725 76.545C40.8367 74.0584 40.2425 67.108 42.1525 59.1996C43.1686 59.7108 44.8054 60.6032 45.9488 61.4711M51.6711 88.7608C54.7784 89.0054 60.3394 87.9362 63.8347 82.4686C67.4083 76.8785 68.4499 72.6558 67.5891 62.2991C66.8592 62.5399 65.9216 62.9423 64.8748 63.5167M51.6711 88.7608C54.2478 83.7302 54.9155 79.2506 54.423 75.3777M54.423 75.3777C55.8511 71.5174 58.247 68.5706 60.6968 66.4402M54.423 75.3777C53.8957 71.2309 52.0383 67.7798 49.7697 65.0928M60.6968 66.4402C60.4748 65.2771 59.9237 63.3017 59.027 61.4633M60.6968 66.4402C62.1323 65.1919 63.5863 64.2239 64.8748 63.5167M59.027 61.4633C58.3427 60.0605 57.4573 58.7374 56.3633 57.916C55.2927 58.4519 53.4721 59.6508 51.9737 61.3262M59.027 61.4633C59.6899 61.1528 61.9217 60.5417 63.1715 60.5743C63.4858 60.8868 64.2665 61.9128 64.8748 63.5167M49.7697 65.0928C50.1825 63.6738 51.0117 62.4018 51.9737 61.3262M49.7697 65.0928C48.566 63.667 47.2466 62.4564 45.9488 61.4711M51.9737 61.3262C51.6637 60.6358 50.6356 59.0957 49.0028 58.4582C48.2419 58.853 46.5659 60.0083 45.9488 61.4711" stroke="#3B4B38" stroke-width="0.5" stroke-linecap="round" stroke-linejoin="round"/>
<path d="M57.8534 16.7996C58.3809 27.1786 59.9761 31.2247 64.263 36.2886C68.4559 41.2414 74.1098 41.5597 77.1567 40.9032C84.298 37.9209 85.3064 32.4559 85.7351 27.4235C85.9346 24.8877 85.5969 17.9202 82.6498 10.3369C81.711 10.979 80.2077 12.0816 79.1903 13.0942C78.3836 11.7267 76.5685 10.8051 75.7618 10.5153C74.2285 11.3648 73.4149 13.0282 73.1998 13.7537C71.4914 12.2931 69.5273 11.3475 68.3947 10.9591C67.42 11.919 66.7188 13.3483 66.2277 14.8299C65.5293 14.6105 63.236 14.3024 62.0017 14.5012C61.7318 14.8528 61.0949 15.9737 60.7058 17.6445C59.5918 17.2147 58.6089 16.9409 57.8534 16.7996Z" fill="#C1495E"/>
<path d="M77.1567 40.9032C84.298 37.9209 85.3064 32.4559 85.7351 27.4235C85.9346 24.8877 85.5969 17.9202 82.6498 10.3369C81.711 10.979 80.2077 12.0816 79.1903 13.0942M77.1567 40.9032C74.1098 41.5597 68.4559 41.2414 64.263 36.2886C59.9761 31.2247 58.3809 27.1786 57.8534 16.7996C58.6089 16.9409 59.5918 17.2147 60.7058 17.6445M77.1567 40.9032C73.9325 36.2609 72.6736 31.9103 72.6454 28.0064M72.6454 28.0064C70.7154 24.3709 67.9481 21.7697 65.2362 19.985M72.6454 28.0064C72.6152 23.8263 73.996 20.1584 75.8862 17.1929M65.2362 19.985C65.3012 18.8026 65.5841 16.7714 66.2277 14.8299M65.2362 19.985C63.6471 18.9391 62.0771 18.1736 60.7058 17.6445M66.2277 14.8299C66.7188 13.3483 67.42 11.919 68.3947 10.9591C69.5273 11.3475 71.4914 12.2931 73.1998 13.7537M66.2277 14.8299C65.5293 14.6105 63.236 14.3024 62.0017 14.5012C61.7318 14.8528 61.0949 15.9737 60.7058 17.6445M75.8862 17.1929C75.2879 15.8416 74.2966 14.6915 73.1998 13.7537M75.8862 17.1929C76.889 15.6194 78.0353 14.2438 79.1903 13.0942M73.1998 13.7537C73.4149 13.0282 74.2285 11.3648 75.7618 10.5153C76.5685 10.8051 78.3836 11.7267 79.1903 13.0942" stroke="#3B4B38" stroke-width="0.1" stroke-linecap="round" stroke-linejoin="round"/>
<path fill-rule="evenodd" clip-rule="evenodd" d="M64.263 36.2886C59.9761 31.2247 58.3809 27.1786 57.8534 16.7996C58.6089 16.9409 59.5918 17.2147 60.7058 17.6445C62.0771 18.1736 63.6471 18.9391 65.2362 19.985C67.9481 21.7697 70.7154 24.3709 72.6454 28.0064C72.6152 23.8263 73.996 20.1584 75.8862 17.1929C76.889 15.6194 78.0353 14.2438 79.1903 13.0942C80.2077 12.0816 81.711 10.979 82.6498 10.3369C85.5969 17.9202 85.9346 24.8877 85.7351 27.4235C85.3064 32.4559 84.298 37.9209 77.1567 40.9032C74.1098 41.5597 68.4559 41.2414 64.263 36.2886Z" fill="#DC536C"/>
<path d="M77.1567 40.9032C84.298 37.9209 85.3064 32.4559 85.7351 27.4235C85.9346 24.8877 85.5969 17.9202 82.6498 10.3369C81.711 10.979 80.2077 12.0816 79.1903 13.0942M77.1567 40.9032C74.1098 41.5597 68.4559 41.2414 64.263 36.2886C59.9761 31.2247 58.3809 27.1786 57.8534 16.7996C58.6089 16.9409 59.5918 17.2147 60.7058 17.6445M77.1567 40.9032C73.9325 36.2609 72.6736 31.9103 72.6454 28.0064M72.6454 28.0064C70.7154 24.3709 67.9481 21.7697 65.2362 19.985M72.6454 28.0064C72.6152 23.8263 73.996 20.1584 75.8862 17.1929M65.2362 19.985C65.3012 18.8026 65.5841 16.7714 66.2277 14.8299M65.2362 19.985C63.6471 18.9391 62.0771 18.1736 60.7058 17.6445M66.2277 14.8299C66.7188 13.3483 67.42 11.919 68.3947 10.9591C69.5273 11.3475 71.4914 12.2931 73.1998 13.7537M66.2277 14.8299C65.5293 14.6105 63.236 14.3024 62.0017 14.5012C61.7318 14.8528 61.0949 15.9737 60.7058 17.6445M75.8862 17.1929C75.2879 15.8416 74.2966 14.6915 73.1998 13.7537M75.8862 17.1929C76.889 15.6194 78.0353 14.2438 79.1903 13.0942M73.1998 13.7537C73.4149 13.0282 74.2285 11.3648 75.7618 10.5153C76.5685 10.8051 78.3836 11.7267 79.1903 13.0942" stroke="#3B4B38" stroke-width="0.5" stroke-linecap="round" stroke-linejoin="round"/>
<path d="M94.6234 46.209C90.5622 55.775 90.2288 60.1115 91.8718 66.5396C93.4787 72.8268 98.4251 75.5839 101.453 76.3249C109.179 76.7632 112.474 72.2883 115.059 67.9492C116.347 65.7555 119.088 59.3409 119.751 51.2322C118.626 51.3995 116.792 51.7343 115.434 52.2005C115.306 50.618 114.076 48.9958 113.478 48.3826C111.727 48.4766 110.268 49.6173 109.758 50.1758C108.86 48.1154 107.506 46.4066 106.657 45.5623C105.361 45.9998 104.106 46.979 103.016 48.0969C102.484 47.5944 100.556 46.3151 99.359 45.9545C98.9626 46.1529 97.8998 46.8827 96.8197 48.2155C96.0056 47.342 95.2411 46.6662 94.6234 46.209Z" fill="#C1495E"/>
<path d="M101.453 76.3249C109.179 76.7632 112.474 72.2883 115.059 67.9492C116.347 65.7555 119.088 59.3409 119.751 51.2322C118.626 51.3995 116.792 51.7343 115.434 52.2005M101.453 76.3249C98.4251 75.5839 93.4787 72.8268 91.8718 66.5396C90.2288 60.1115 90.5622 55.775 94.6234 46.209C95.2411 46.6662 96.0056 47.342 96.8197 48.2155M101.453 76.3249C100.581 70.7403 101.35 66.2769 103.031 62.7532M103.031 62.7532C102.884 58.6398 101.531 55.0909 99.8719 52.3005M103.031 62.7532C104.83 58.9802 107.675 56.2845 110.671 54.4432M99.8719 52.3005C100.447 51.2654 101.589 49.562 103.016 48.0969M99.8719 52.3005C98.8996 50.6653 97.822 49.2907 96.8197 48.2155M103.016 48.0969C104.106 46.979 105.361 45.9998 106.657 45.5623C107.506 46.4066 108.86 48.1154 109.758 50.1758M103.016 48.0969C102.484 47.5944 100.556 46.3151 99.359 45.9545C98.9626 46.1529 97.8998 46.8827 96.8197 48.2155M110.671 54.4432C110.724 52.9663 110.335 51.4986 109.758 50.1758M110.671 54.4432C112.261 53.4662 113.893 52.7297 115.434 52.2005M109.758 50.1758C110.268 49.6173 111.727 48.4766 113.478 48.3826C114.076 48.9958 115.306 50.618 115.434 52.2005" stroke="#3B4B38" stroke-width="0.1" stroke-linecap="round" stroke-linejoin="round"/>
<path fill-rule="evenodd" clip-rule="evenodd" d="M91.8718 66.5396C90.2288 60.1115 90.5622 55.775 94.6234 46.209C95.2411 46.6662 96.0056 47.342 96.8197 48.2155C97.822 49.2907 98.8996 50.6653 99.8719 52.3005C101.531 55.0909 102.884 58.6398 103.031 62.7532C104.83 58.9802 107.675 56.2845 110.671 54.4432C112.261 53.4662 113.893 52.7297 115.434 52.2005C116.792 51.7343 118.626 51.3995 119.751 51.2322C119.088 59.3409 116.347 65.7555 115.059 67.9492C112.474 72.2883 109.179 76.7632 101.453 76.3249C98.4251 75.5839 93.4787 72.8268 91.8718 66.5396Z" fill="#DC536C"/>
<path d="M101.453 76.3249C109.179 76.7632 112.474 72.2883 115.059 67.9492C116.347 65.7555 119.088 59.3409 119.751 51.2322C118.626 51.3995 116.792 51.7343 115.434 52.2005M101.453 76.3249C98.4251 75.5839 93.4787 72.8268 91.8718 66.5396C90.2288 60.1115 90.5622 55.775 94.6234 46.209C95.2411 46.6662 96.0056 47.342 96.8197 48.2155M101.453 76.3249C100.581 70.7403 101.35 66.2769 103.031 62.7532M103.031 62.7532C102.884 58.6398 101.531 55.0909 99.8719 52.3005M103.031 62.7532C104.83 58.9802 107.675 56.2845 110.671 54.4432M99.8719 52.3005C100.447 51.2654 101.589 49.562 103.016 48.0969M99.8719 52.3005C98.8996 50.6653 97.822 49.2907 96.8197 48.2155M103.016 48.0969C104.106 46.979 105.361 45.9998 106.657 45.5623C107.506 46.4066 108.86 48.1154 109.758 50.1758M103.016 48.0969C102.484 47.5944 100.556 46.3151 99.359 45.9545C98.9626 46.1529 97.8998 46.8827 96.8197 48.2155M110.671 54.4432C110.724 52.9663 110.335 51.4986 109.758 50.1758M110.671 54.4432C112.261 53.4662 113.893 52.7297 115.434 52.2005M109.758 50.1758C110.268 49.6173 111.727 48.4766 113.478 48.3826C114.076 48.9958 115.306 50.618 115.434 52.2005" stroke="#3B4B38" stroke-width="0.5" stroke-linecap="round" stroke-linejoin="round"/>
<path d="M151.283 37.621C149.23 47.8086 147.055 51.5751 142.068 55.9511C137.19 60.231 131.551 59.7116 128.634 58.6127C122.011 54.6094 121.82 49.0554 122.139 44.0149C122.316 41.4773 123.678 34.6359 127.711 27.5705C128.545 28.3441 129.869 29.6564 130.726 30.8081C131.726 29.5746 133.657 28.9309 134.498 28.7632C135.889 29.8296 136.448 31.5949 136.554 32.3442C138.459 31.1516 140.541 30.5063 141.719 30.2892C142.541 31.3824 143.024 32.8995 143.291 34.4373C144.014 34.3234 146.328 34.357 147.519 34.7358C147.734 35.1234 148.199 36.326 148.337 38.0359C149.502 37.7751 150.515 37.6493 151.283 37.621Z" fill="#C1495E"/>
<path d="M128.634 58.6127C122.011 54.6094 121.82 49.0554 122.139 44.0149C122.316 41.4773 123.678 34.6359 127.711 27.5705C128.545 28.3441 129.869 29.6564 130.726 30.8081M128.634 58.6127C131.551 59.7116 137.19 60.231 142.068 55.9511C147.055 51.5752 149.23 47.8086 151.283 37.621C150.515 37.6493 149.502 37.7751 148.337 38.0359M128.634 58.6127C132.508 54.497 134.395 50.3797 134.999 46.5227M134.999 46.5227C137.444 43.2117 140.565 41.0474 143.511 39.6823M134.999 46.5227C135.646 42.3928 134.821 38.5613 133.389 35.3494M143.511 39.6823C143.621 38.5033 143.641 36.4525 143.291 34.4373M143.511 39.6823C145.237 38.8824 146.903 38.3569 148.337 38.0359M143.291 34.4373C143.024 32.8995 142.541 31.3824 141.719 30.2892C140.541 30.5063 138.459 31.1516 136.554 32.3442M143.291 34.4373C144.014 34.3234 146.328 34.357 147.519 34.7358C147.734 35.1234 148.199 36.326 148.337 38.0359M133.389 35.3494C134.18 34.1011 135.331 33.1099 136.554 32.3442M133.389 35.3494C132.63 33.6452 131.699 32.1154 130.726 30.8081M136.554 32.3442C136.448 31.5949 135.889 29.8296 134.498 28.7632C133.657 28.9309 131.726 29.5746 130.726 30.8081" stroke="#3B4B38" stroke-width="0.1" stroke-linecap="round" stroke-linejoin="round"/>
<path fill-rule="evenodd" clip-rule="evenodd" d="M142.068 55.9511C147.055 51.5751 149.23 47.8086 151.283 37.621C150.515 37.6493 149.502 37.7751 148.337 38.0359C146.903 38.3569 145.237 38.8824 143.511 39.6823C140.565 41.0474 137.444 43.2117 134.999 46.5227C135.646 42.3928 134.821 38.5613 133.389 35.3494C132.63 33.6452 131.699 32.1154 130.726 30.8081C129.869 29.6564 128.545 28.3441 127.711 27.5705C123.678 34.6359 122.316 41.4773 122.139 44.0149C121.82 49.0554 122.011 54.6094 128.634 58.6127C131.551 59.7116 137.19 60.231 142.068 55.9511Z" fill="#DC536C"/>
<path d="M128.634 58.6127C122.011 54.6094 121.82 49.0554 122.139 44.0149C122.316 41.4773 123.678 34.6359 127.711 27.5705C128.545 28.3441 129.869 29.6564 130.726 30.8081M128.634 58.6127C131.551 59.7116 137.19 60.231 142.068 55.9511C147.055 51.5752 149.23 47.8086 151.283 37.621C150.515 37.6493 149.502 37.7751 148.337 38.0359M128.634 58.6127C132.508 54.497 134.395 50.3797 134.999 46.5227M134.999 46.5227C137.444 43.2117 140.565 41.0474 143.511 39.6823M134.999 46.5227C135.646 42.3928 134.821 38.5613 133.389 35.3494M143.511 39.6823C143.621 38.5033 143.641 36.4525 143.291 34.4373M143.511 39.6823C145.237 38.8824 146.903 38.3569 148.337 38.0359M143.291 34.4373C143.024 32.8995 142.541 31.3824 141.719 30.2892C140.541 30.5063 138.459 31.1516 136.554 32.3442M143.291 34.4373C144.014 34.3234 146.328 34.357 147.519 34.7358C147.734 35.1234 148.199 36.326 148.337 38.0359M133.389 35.3494C134.18 34.1011 135.331 33.1099 136.554 32.3442M133.389 35.3494C132.63 33.6452 131.699 32.1154 130.726 30.8081M136.554 32.3442C136.448 31.5949 135.889 29.8296 134.498 28.7632C133.657 28.9309 131.726 29.5746 130.726 30.8081" stroke="#3B4B38" stroke-width="0.5" stroke-linecap="round" stroke-linejoin="round"/>
<g opacity="0.9">
<path d="M116.323 79.2168L134.471 85.8899L160.323 95.72L69.097 189.151C89.5273 159.934 109.7 127.596 125.121 101.749L109.327 95.5034L116.323 79.2168Z" fill="#D9CB9B"/>
<path d="M29.7947 75.8439L49.4592 73.0847L51.0736 90.2626L33.6718 92.4655C40.4217 120.705 49.7615 156.376 60.3563 189.035L1 78.8263L29.7947 75.8439Z" fill="#D9CB9B"/>
<path d="M22.3776 232.16L60.3563 189.035L46.3005 226.656L41.6978 238.975L22.3776 232.16Z" fill="#D9CB9B"/>
<path d="M60.3563 189.035L69.097 189.151L59.457 228.752L46.3005 226.656L60.3563 189.035Z" fill="#D9CB9B"/>
<path d="M69.097 189.151L70.7555 235.567H57.798L59.457 228.752L69.097 189.151Z" fill="#D9CB9B"/>
<path d="M69.097 189.151L88.0722 232.16L70.999 242.382L70.7555 235.567L69.097 189.151Z" fill="#D9CB9B"/>
<path d="M70.999 87.4668L51.0736 90.2626L33.6718 92.4655C40.4217 120.705 49.7615 156.376 60.3563 189.035L61.4201 101.919L69.6077 100.745L70.999 87.4668Z" fill="#D9CB9B"/>
<path d="M88.0722 101.919C81.6194 100.432 73.0739 100.516 69.6077 100.745L61.4201 101.919L60.3563 189.035L69.097 189.151L93.6204 104.153L88.0722 101.919Z" fill="#D9CB9B"/>
<path d="M109.327 95.5034L90.9386 88.7418L88.0722 101.919L93.6204 104.153L69.097 189.151C89.5273 159.934 109.7 127.596 125.121 101.749L109.327 95.5034Z" fill="#D9CB9B"/>
<path d="M69.097 189.151C89.5273 159.934 109.7 127.596 125.121 101.749L109.327 95.5034M69.097 189.151L160.323 95.72L134.471 85.8899L116.323 79.2168L109.327 95.5034M69.097 189.151L60.3563 189.035M69.097 189.151L88.0722 232.16L70.999 242.382L70.7555 235.567M69.097 189.151L70.7555 235.567M69.097 189.151L59.457 228.752M69.097 189.151L93.6204 104.153L88.0722 101.919M109.327 95.5034L90.9386 88.7418L88.0722 101.919M60.3563 189.035C49.7615 156.376 40.4217 120.705 33.6718 92.4655L51.0736 90.2626M60.3563 189.035L1 78.8263L29.7947 75.8439L49.4592 73.0847L51.0736 90.2626M60.3563 189.035L22.3776 232.16L41.6978 238.975L46.3005 226.656M60.3563 189.035L46.3005 226.656M60.3563 189.035L61.4201 101.919L69.6077 100.745M51.0736 90.2626L70.999 87.4668L69.6077 100.745M69.6077 100.745C73.0739 100.516 81.6194 100.432 88.0722 101.919M70.7555 235.567H57.798L59.457 228.752M59.457 228.752L46.3005 226.656" stroke="#615B47" stroke-linecap="round" stroke-linejoin="round"/>
</g>
<path d="M74.7887 193.036C74.7887 193.036 34.7919 186.168 63.1435 187.462C91.4951 188.757 74.7887 193.036 74.7887 193.036Z" stroke="#3F3B2C" stroke-width="0.5" stroke-linecap="round" stroke-linejoin="round"/>
<path d="M56.2281 195.671C40.7719 190.219 64.8148 191.128 78.7683 192.264M77.5253 189.443C76.4519 192.85 70.4412 198.302 54.985 192.85M58.6683 193.206C58.6683 193.206 87.7489 186.836 67.0957 187.779C46.4426 188.722 58.6683 193.206 58.6683 193.206Z" stroke="#3F3B2C" stroke-width="0.1" stroke-linecap="round" stroke-linejoin="round"/>
</svg>
